<mxfile host="app.diagrams.net" modified="2023-12-21T14:16:27.446Z" agent="Mozilla/5.0 (Windows NT 10.0; Win64; x64) AppleWebKit/537.36 (KHTML, like Gecko) Chrome/120.0.0.0 Safari/537.36" etag="0UxfPVIfnPZBZnBbPwA2" version="22.1.11" type="device">
  <diagram id="R2lEEEUBdFMjLlhIrx00" name="Page-1">
    <mxGraphModel dx="8878" dy="2260" grid="1" gridSize="3" guides="1" tooltips="1" connect="1" arrows="1" fold="1" page="1" pageScale="1" pageWidth="2339" pageHeight="3300" math="0" shadow="0" extFonts="Permanent Marker^https://fonts.googleapis.com/css?family=Permanent+Marker">
      <root>
        <mxCell id="0" />
        <mxCell id="1" parent="0" />
        <mxCell id="m8tGLTJIxdYSyH3AfNJf-68" value="" style="group;rotation=90;fontFamily=Arial;fontStyle=2" parent="1" vertex="1" connectable="0">
          <mxGeometry x="-2786" y="501" width="3250" height="2911.9" as="geometry" />
        </mxCell>
        <mxCell id="bOlvTl43doBLw3R69mOg-1" value="" style="rounded=0;whiteSpace=wrap;html=1;fillColor=none;rotation=0;fontFamily=Arial;fontStyle=2" parent="m8tGLTJIxdYSyH3AfNJf-68" vertex="1">
          <mxGeometry x="480" y="-480" width="2290" height="3250" as="geometry" />
        </mxCell>
        <mxCell id="m8tGLTJIxdYSyH3AfNJf-2" value="" style="group;rotation=90;fontFamily=Arial;fontStyle=2" parent="m8tGLTJIxdYSyH3AfNJf-68" vertex="1" connectable="0">
          <mxGeometry x="205" y="2316" width="728.8990000000006" height="177.16799999999967" as="geometry" />
        </mxCell>
        <mxCell id="bOlvTl43doBLw3R69mOg-2" value="" style="rounded=0;whiteSpace=wrap;html=1;fillColor=none;rotation=90;fontFamily=Arial;fontStyle=2" parent="m8tGLTJIxdYSyH3AfNJf-2" vertex="1">
          <mxGeometry width="728.35" height="177.165" as="geometry" />
        </mxCell>
        <mxCell id="UN5E2BRM_m0n_mUQd9ct-3" value="" style="rounded=0;whiteSpace=wrap;html=1;fillColor=none;rotation=90;fontFamily=Arial;fontStyle=2" parent="m8tGLTJIxdYSyH3AfNJf-2" vertex="1">
          <mxGeometry x="391" y="-271" width="27.558999999999997" height="19.685" as="geometry" />
        </mxCell>
        <mxCell id="UN5E2BRM_m0n_mUQd9ct-4" value="" style="rounded=0;whiteSpace=wrap;html=1;fillColor=none;rotation=90;fontFamily=Arial;fontStyle=2" parent="m8tGLTJIxdYSyH3AfNJf-2" vertex="1">
          <mxGeometry x="371" y="-271" width="27.558999999999997" height="19.685" as="geometry" />
        </mxCell>
        <mxCell id="UN5E2BRM_m0n_mUQd9ct-5" value="" style="rounded=0;whiteSpace=wrap;html=1;fillColor=none;rotation=90;fontFamily=Arial;fontStyle=2" parent="m8tGLTJIxdYSyH3AfNJf-2" vertex="1">
          <mxGeometry x="411" y="-271" width="27.558999999999997" height="19.685" as="geometry" />
        </mxCell>
        <mxCell id="UN5E2BRM_m0n_mUQd9ct-9" value="" style="rounded=0;whiteSpace=wrap;html=1;fillColor=none;rotation=90;fontFamily=Arial;fontStyle=2" parent="m8tGLTJIxdYSyH3AfNJf-2" vertex="1">
          <mxGeometry x="385" y="-238" width="39.37" height="19.685" as="geometry" />
        </mxCell>
        <mxCell id="UN5E2BRM_m0n_mUQd9ct-10" value="" style="rounded=0;whiteSpace=wrap;html=1;fillColor=none;rotation=90;fontFamily=Arial;fontStyle=2" parent="m8tGLTJIxdYSyH3AfNJf-2" vertex="1">
          <mxGeometry x="365" y="-238" width="39.37" height="19.685" as="geometry" />
        </mxCell>
        <mxCell id="UN5E2BRM_m0n_mUQd9ct-11" value="" style="rounded=0;whiteSpace=wrap;html=1;fillColor=none;rotation=90;fontFamily=Arial;fontStyle=2" parent="m8tGLTJIxdYSyH3AfNJf-2" vertex="1">
          <mxGeometry x="405" y="-238" width="39.37" height="19.685" as="geometry" />
        </mxCell>
        <mxCell id="UN5E2BRM_m0n_mUQd9ct-14" value="" style="rounded=0;whiteSpace=wrap;html=1;fillColor=none;rotation=90;fontFamily=Arial;fontStyle=2" parent="m8tGLTJIxdYSyH3AfNJf-2" vertex="1">
          <mxGeometry x="360" y="-173" width="90.551" height="19.685" as="geometry" />
        </mxCell>
        <mxCell id="UN5E2BRM_m0n_mUQd9ct-15" value="" style="rounded=0;whiteSpace=wrap;html=1;fillColor=none;rotation=90;fontFamily=Arial;fontStyle=2" parent="m8tGLTJIxdYSyH3AfNJf-2" vertex="1">
          <mxGeometry x="360" y="-172" width="90.551" height="19.685" as="geometry" />
        </mxCell>
        <mxCell id="UN5E2BRM_m0n_mUQd9ct-16" value="" style="rounded=0;whiteSpace=wrap;html=1;fillColor=none;rotation=90;fontFamily=Arial;fontStyle=2" parent="m8tGLTJIxdYSyH3AfNJf-2" vertex="1">
          <mxGeometry x="379" y="-173" width="90.551" height="19.685" as="geometry" />
        </mxCell>
        <mxCell id="UN5E2BRM_m0n_mUQd9ct-19" value="" style="rounded=0;whiteSpace=wrap;html=1;fillColor=none;rotation=90;fontFamily=Arial;fontStyle=2" parent="m8tGLTJIxdYSyH3AfNJf-2" vertex="1">
          <mxGeometry x="375" y="-98" width="59.055" height="19.685" as="geometry" />
        </mxCell>
        <mxCell id="UN5E2BRM_m0n_mUQd9ct-20" value="" style="rounded=0;whiteSpace=wrap;html=1;fillColor=none;rotation=90;fontFamily=Arial;fontStyle=2" parent="m8tGLTJIxdYSyH3AfNJf-2" vertex="1">
          <mxGeometry x="355" y="-98" width="59.055" height="19.685" as="geometry" />
        </mxCell>
        <mxCell id="UN5E2BRM_m0n_mUQd9ct-21" value="" style="rounded=0;whiteSpace=wrap;html=1;fillColor=none;rotation=90;fontFamily=Arial;fontStyle=2" parent="m8tGLTJIxdYSyH3AfNJf-2" vertex="1">
          <mxGeometry x="395" y="-98" width="59.055" height="19.685" as="geometry" />
        </mxCell>
        <mxCell id="UN5E2BRM_m0n_mUQd9ct-24" value="" style="rounded=0;whiteSpace=wrap;html=1;fillColor=none;rotation=90;fontFamily=Arial;fontStyle=2" parent="m8tGLTJIxdYSyH3AfNJf-2" vertex="1">
          <mxGeometry x="384" y="-49" width="39.37" height="19.685" as="geometry" />
        </mxCell>
        <mxCell id="UN5E2BRM_m0n_mUQd9ct-25" value="" style="rounded=0;whiteSpace=wrap;html=1;fillColor=none;rotation=90;fontFamily=Arial;fontStyle=2" parent="m8tGLTJIxdYSyH3AfNJf-2" vertex="1">
          <mxGeometry x="365" y="-49" width="39.37" height="19.685" as="geometry" />
        </mxCell>
        <mxCell id="UN5E2BRM_m0n_mUQd9ct-26" value="" style="rounded=0;whiteSpace=wrap;html=1;fillColor=none;rotation=90;fontFamily=Arial;fontStyle=2" parent="m8tGLTJIxdYSyH3AfNJf-2" vertex="1">
          <mxGeometry x="405" y="-49" width="39.37" height="19.685" as="geometry" />
        </mxCell>
        <mxCell id="UN5E2BRM_m0n_mUQd9ct-27" value="" style="rounded=0;whiteSpace=wrap;html=1;fillColor=none;rotation=90;fontFamily=Arial;fontStyle=2" parent="m8tGLTJIxdYSyH3AfNJf-2" vertex="1">
          <mxGeometry x="187" y="187" width="472.43" height="59.055" as="geometry" />
        </mxCell>
        <mxCell id="UN5E2BRM_m0n_mUQd9ct-28" value="Изм." style="text;html=1;strokeColor=none;fillColor=none;align=center;verticalAlign=middle;whiteSpace=wrap;rounded=0;fontFamily=Arial;fontSize=10;rotation=90;fontStyle=2" parent="m8tGLTJIxdYSyH3AfNJf-2" vertex="1">
          <mxGeometry x="371" y="-272" width="27.558999999999997" height="19.685" as="geometry" />
        </mxCell>
        <mxCell id="UN5E2BRM_m0n_mUQd9ct-29" value="Лист" style="text;html=1;strokeColor=none;fillColor=none;align=center;verticalAlign=middle;whiteSpace=wrap;rounded=0;fontFamily=Arial;fontSize=10;rotation=90;fontStyle=2" parent="m8tGLTJIxdYSyH3AfNJf-2" vertex="1">
          <mxGeometry x="366" y="-237" width="39.37" height="19.685" as="geometry" />
        </mxCell>
        <mxCell id="UN5E2BRM_m0n_mUQd9ct-30" value="№ докум." style="text;html=1;strokeColor=none;fillColor=none;align=center;verticalAlign=middle;whiteSpace=wrap;rounded=0;fontFamily=Arial;fontSize=10;rotation=90;fontStyle=2" parent="m8tGLTJIxdYSyH3AfNJf-2" vertex="1">
          <mxGeometry x="339" y="-172" width="90.551" height="19.68" as="geometry" />
        </mxCell>
        <mxCell id="UN5E2BRM_m0n_mUQd9ct-31" value="Подп" style="text;html=1;strokeColor=none;fillColor=none;align=center;verticalAlign=middle;whiteSpace=wrap;rounded=0;fontFamily=Arial;fontSize=10;rotation=90;fontStyle=2" parent="m8tGLTJIxdYSyH3AfNJf-2" vertex="1">
          <mxGeometry x="355" y="-99" width="59.055" height="19.68" as="geometry" />
        </mxCell>
        <mxCell id="UN5E2BRM_m0n_mUQd9ct-32" value="Дата" style="text;html=1;strokeColor=none;fillColor=none;align=center;verticalAlign=middle;whiteSpace=wrap;rounded=0;fontFamily=Arial;fontSize=10;rotation=90;fontStyle=2" parent="m8tGLTJIxdYSyH3AfNJf-2" vertex="1">
          <mxGeometry x="364" y="-49" width="39.37" height="19.685" as="geometry" />
        </mxCell>
        <mxCell id="UN5E2BRM_m0n_mUQd9ct-34" value="" style="rounded=0;whiteSpace=wrap;html=1;fillColor=none;rotation=90;fontFamily=Arial;fontStyle=2" parent="m8tGLTJIxdYSyH3AfNJf-2" vertex="1">
          <mxGeometry x="331" y="-251" width="66.929" height="19.68" as="geometry" />
        </mxCell>
        <mxCell id="UN5E2BRM_m0n_mUQd9ct-35" value="" style="rounded=0;whiteSpace=wrap;html=1;fillColor=none;rotation=90;fontFamily=Arial;fontStyle=2" parent="m8tGLTJIxdYSyH3AfNJf-2" vertex="1">
          <mxGeometry x="311" y="-251" width="66.929" height="19.68" as="geometry" />
        </mxCell>
        <mxCell id="UN5E2BRM_m0n_mUQd9ct-36" value="" style="rounded=0;whiteSpace=wrap;html=1;fillColor=none;rotation=90;fontFamily=Arial;fontStyle=2" parent="m8tGLTJIxdYSyH3AfNJf-2" vertex="1">
          <mxGeometry x="292" y="-251" width="66.929" height="19.68" as="geometry" />
        </mxCell>
        <mxCell id="UN5E2BRM_m0n_mUQd9ct-37" value="" style="rounded=0;whiteSpace=wrap;html=1;fillColor=none;rotation=90;fontFamily=Arial;fontStyle=2" parent="m8tGLTJIxdYSyH3AfNJf-2" vertex="1">
          <mxGeometry x="272" y="-251" width="66.929" height="19.68" as="geometry" />
        </mxCell>
        <mxCell id="UN5E2BRM_m0n_mUQd9ct-38" value="" style="rounded=0;whiteSpace=wrap;html=1;fillColor=none;rotation=90;fontFamily=Arial;fontStyle=2" parent="m8tGLTJIxdYSyH3AfNJf-2" vertex="1">
          <mxGeometry x="252" y="-251" width="66.929" height="19.68" as="geometry" />
        </mxCell>
        <mxCell id="UN5E2BRM_m0n_mUQd9ct-39" value="" style="rounded=0;whiteSpace=wrap;html=1;fillColor=none;rotation=90;fontFamily=Arial;fontStyle=2" parent="m8tGLTJIxdYSyH3AfNJf-2" vertex="1">
          <mxGeometry x="339" y="-173" width="90.551" height="19.68" as="geometry" />
        </mxCell>
        <mxCell id="UN5E2BRM_m0n_mUQd9ct-42" value="" style="rounded=0;whiteSpace=wrap;html=1;fillColor=none;rotation=90;fontFamily=Arial;fontStyle=2" parent="m8tGLTJIxdYSyH3AfNJf-2" vertex="1">
          <mxGeometry x="280" y="-173" width="90.551" height="19.68" as="geometry" />
        </mxCell>
        <mxCell id="UN5E2BRM_m0n_mUQd9ct-43" value="" style="rounded=0;whiteSpace=wrap;html=1;fillColor=none;rotation=90;fontFamily=Arial;fontStyle=2" parent="m8tGLTJIxdYSyH3AfNJf-2" vertex="1">
          <mxGeometry x="260" y="-173" width="90.551" height="19.68" as="geometry" />
        </mxCell>
        <mxCell id="UN5E2BRM_m0n_mUQd9ct-44" value="" style="rounded=0;whiteSpace=wrap;html=1;fillColor=none;rotation=90;fontFamily=Arial;fontStyle=2" parent="m8tGLTJIxdYSyH3AfNJf-2" vertex="1">
          <mxGeometry x="240" y="-173" width="90.551" height="19.68" as="geometry" />
        </mxCell>
        <mxCell id="UN5E2BRM_m0n_mUQd9ct-45" value="" style="rounded=0;whiteSpace=wrap;html=1;fillColor=none;rotation=90;fontFamily=Arial;fontStyle=2" parent="m8tGLTJIxdYSyH3AfNJf-2" vertex="1">
          <mxGeometry x="335" y="-98" width="59.055" height="19.68" as="geometry" />
        </mxCell>
        <mxCell id="UN5E2BRM_m0n_mUQd9ct-46" value="" style="rounded=0;whiteSpace=wrap;html=1;fillColor=none;rotation=90;fontFamily=Arial;fontStyle=2" parent="m8tGLTJIxdYSyH3AfNJf-2" vertex="1">
          <mxGeometry x="315" y="-98" width="59.055" height="19.68" as="geometry" />
        </mxCell>
        <mxCell id="UN5E2BRM_m0n_mUQd9ct-48" value="" style="rounded=0;whiteSpace=wrap;html=1;fillColor=none;rotation=90;fontFamily=Arial;fontStyle=2" parent="m8tGLTJIxdYSyH3AfNJf-2" vertex="1">
          <mxGeometry x="296" y="-98" width="59.055" height="19.68" as="geometry" />
        </mxCell>
        <mxCell id="UN5E2BRM_m0n_mUQd9ct-49" value="" style="rounded=0;whiteSpace=wrap;html=1;fillColor=none;rotation=90;fontFamily=Arial;fontStyle=2" parent="m8tGLTJIxdYSyH3AfNJf-2" vertex="1">
          <mxGeometry x="276" y="-98" width="59.055" height="19.68" as="geometry" />
        </mxCell>
        <mxCell id="UN5E2BRM_m0n_mUQd9ct-50" value="" style="rounded=0;whiteSpace=wrap;html=1;fillColor=none;rotation=90;fontFamily=Arial;fontStyle=2" parent="m8tGLTJIxdYSyH3AfNJf-2" vertex="1">
          <mxGeometry x="256" y="-98" width="59.055" height="19.68" as="geometry" />
        </mxCell>
        <mxCell id="UN5E2BRM_m0n_mUQd9ct-51" value="" style="rounded=0;whiteSpace=wrap;html=1;fillColor=none;rotation=90;fontFamily=Arial;fontStyle=2" parent="m8tGLTJIxdYSyH3AfNJf-2" vertex="1">
          <mxGeometry x="345" y="-49" width="39.37" height="19.68" as="geometry" />
        </mxCell>
        <mxCell id="UN5E2BRM_m0n_mUQd9ct-52" value="" style="rounded=0;whiteSpace=wrap;html=1;fillColor=none;rotation=90;fontFamily=Arial;fontStyle=2" parent="m8tGLTJIxdYSyH3AfNJf-2" vertex="1">
          <mxGeometry x="325" y="-49" width="39.37" height="19.68" as="geometry" />
        </mxCell>
        <mxCell id="UN5E2BRM_m0n_mUQd9ct-54" value="" style="rounded=0;whiteSpace=wrap;html=1;fillColor=none;rotation=90;fontFamily=Arial;fontStyle=2" parent="m8tGLTJIxdYSyH3AfNJf-2" vertex="1">
          <mxGeometry x="305" y="-49" width="39.37" height="19.68" as="geometry" />
        </mxCell>
        <mxCell id="UN5E2BRM_m0n_mUQd9ct-55" value="" style="rounded=0;whiteSpace=wrap;html=1;fillColor=none;rotation=90;fontFamily=Arial;fontStyle=2" parent="m8tGLTJIxdYSyH3AfNJf-2" vertex="1">
          <mxGeometry x="286" y="-49" width="39.37" height="19.68" as="geometry" />
        </mxCell>
        <mxCell id="UN5E2BRM_m0n_mUQd9ct-56" value="" style="rounded=0;whiteSpace=wrap;html=1;fillColor=none;rotation=90;fontFamily=Arial;fontStyle=2" parent="m8tGLTJIxdYSyH3AfNJf-2" vertex="1">
          <mxGeometry x="266" y="-49" width="39.37" height="19.68" as="geometry" />
        </mxCell>
        <mxCell id="UN5E2BRM_m0n_mUQd9ct-58" value="" style="rounded=0;whiteSpace=wrap;html=1;fontFamily=Arial;fontSize=10;fillColor=none;rotation=90;fontStyle=2" parent="m8tGLTJIxdYSyH3AfNJf-2" vertex="1">
          <mxGeometry x="349" y="407" width="70.866" height="19.685" as="geometry" />
        </mxCell>
        <mxCell id="UN5E2BRM_m0n_mUQd9ct-59" value="2" style="rounded=0;whiteSpace=wrap;html=1;fontFamily=Arial;fontSize=10;fillColor=none;rotation=90;fontStyle=2" parent="m8tGLTJIxdYSyH3AfNJf-2" vertex="1">
          <mxGeometry x="320" y="398" width="70.866" height="39.37" as="geometry" />
        </mxCell>
        <mxCell id="UN5E2BRM_m0n_mUQd9ct-65" value="" style="rounded=0;whiteSpace=wrap;html=1;fontFamily=Arial;fontSize=10;fillColor=none;rotation=90;fontStyle=2" parent="m8tGLTJIxdYSyH3AfNJf-2" vertex="1">
          <mxGeometry x="351" y="339" width="66.929" height="19.685" as="geometry" />
        </mxCell>
        <mxCell id="UN5E2BRM_m0n_mUQd9ct-66" value="1" style="rounded=0;whiteSpace=wrap;html=1;fontFamily=Arial;fontSize=10;fillColor=none;rotation=90;fontStyle=2" parent="m8tGLTJIxdYSyH3AfNJf-2" vertex="1">
          <mxGeometry x="322" y="329" width="66.929" height="39.37" as="geometry" />
        </mxCell>
        <mxCell id="UN5E2BRM_m0n_mUQd9ct-68" value="" style="rounded=0;whiteSpace=wrap;html=1;fontFamily=Arial;fontSize=10;fillColor=none;rotation=90;fontStyle=2" parent="m8tGLTJIxdYSyH3AfNJf-2" vertex="1">
          <mxGeometry x="355" y="276" width="59.055" height="19.685" as="geometry" />
        </mxCell>
        <mxCell id="UN5E2BRM_m0n_mUQd9ct-69" value="ч" style="rounded=0;whiteSpace=wrap;html=1;fontFamily=Arial;fontSize=10;fillColor=none;rotation=90;fontStyle=2" parent="m8tGLTJIxdYSyH3AfNJf-2" vertex="1">
          <mxGeometry x="326" y="266" width="59.05" height="39.37" as="geometry" />
        </mxCell>
        <mxCell id="UN5E2BRM_m0n_mUQd9ct-71" value="" style="rounded=0;whiteSpace=wrap;html=1;fontFamily=Arial;fontSize=10;fillColor=none;rotation=90;fontStyle=2" parent="m8tGLTJIxdYSyH3AfNJf-2" vertex="1">
          <mxGeometry x="207" y="325" width="196.85" height="59.055" as="geometry" />
        </mxCell>
        <mxCell id="UN5E2BRM_m0n_mUQd9ct-72" value="Разраб" style="text;html=1;strokeColor=none;fillColor=none;align=center;verticalAlign=middle;whiteSpace=wrap;rounded=0;fontFamily=Arial;fontSize=10;rotation=90;fontStyle=2" parent="m8tGLTJIxdYSyH3AfNJf-2" vertex="1">
          <mxGeometry x="333" y="-251" width="66.929" height="19.68" as="geometry" />
        </mxCell>
        <mxCell id="UN5E2BRM_m0n_mUQd9ct-73" value="Пров" style="text;html=1;strokeColor=none;fillColor=none;align=center;verticalAlign=middle;whiteSpace=wrap;rounded=0;fontFamily=Arial;fontSize=10;rotation=90;fontStyle=2" parent="m8tGLTJIxdYSyH3AfNJf-2" vertex="1">
          <mxGeometry x="312" y="-252" width="66.929" height="19.68" as="geometry" />
        </mxCell>
        <mxCell id="UN5E2BRM_m0n_mUQd9ct-75" value="Н. Контр." style="text;html=1;strokeColor=none;fillColor=none;align=center;verticalAlign=middle;whiteSpace=wrap;rounded=0;fontFamily=Arial;fontSize=10;rotation=90;fontStyle=2" parent="m8tGLTJIxdYSyH3AfNJf-2" vertex="1">
          <mxGeometry x="272" y="-251" width="66.929" height="19.68" as="geometry" />
        </mxCell>
        <mxCell id="UN5E2BRM_m0n_mUQd9ct-76" value="Утв." style="text;html=1;strokeColor=none;fillColor=none;align=center;verticalAlign=middle;whiteSpace=wrap;rounded=0;fontFamily=Arial;fontSize=10;rotation=90;fontStyle=2" parent="m8tGLTJIxdYSyH3AfNJf-2" vertex="1">
          <mxGeometry x="252" y="-251" width="66.929" height="19.68" as="geometry" />
        </mxCell>
        <mxCell id="UN5E2BRM_m0n_mUQd9ct-77" value="Лит." style="text;html=1;strokeColor=none;fillColor=none;align=center;verticalAlign=middle;whiteSpace=wrap;rounded=0;fontFamily=Arial;fontSize=10;rotation=90;fontStyle=2" parent="m8tGLTJIxdYSyH3AfNJf-2" vertex="1">
          <mxGeometry x="355" y="276" width="59.055" height="19.68" as="geometry" />
        </mxCell>
        <mxCell id="UN5E2BRM_m0n_mUQd9ct-78" value="Лист" style="text;html=1;strokeColor=none;fillColor=none;align=center;verticalAlign=middle;whiteSpace=wrap;rounded=0;fontFamily=Arial;fontSize=10;rotation=90;fontStyle=2" parent="m8tGLTJIxdYSyH3AfNJf-2" vertex="1">
          <mxGeometry x="351" y="339" width="66.929" height="19.68" as="geometry" />
        </mxCell>
        <mxCell id="UN5E2BRM_m0n_mUQd9ct-79" value="Листов" style="text;html=1;strokeColor=none;fillColor=none;align=center;verticalAlign=middle;whiteSpace=wrap;rounded=0;fontFamily=Arial;fontSize=10;rotation=90;fontStyle=2" parent="m8tGLTJIxdYSyH3AfNJf-2" vertex="1">
          <mxGeometry x="349" y="407" width="69.75" height="19.68" as="geometry" />
        </mxCell>
        <mxCell id="UN5E2BRM_m0n_mUQd9ct-80" value="" style="rounded=0;whiteSpace=wrap;html=1;fillColor=none;rotation=90;fontFamily=Arial;fontStyle=2" parent="m8tGLTJIxdYSyH3AfNJf-2" vertex="1">
          <mxGeometry x="319" y="-173" width="90.551" height="19.685" as="geometry" />
        </mxCell>
        <mxCell id="UN5E2BRM_m0n_mUQd9ct-81" value="Рощина А.И." style="text;html=1;strokeColor=none;fillColor=none;align=center;verticalAlign=middle;whiteSpace=wrap;rounded=0;fontFamily=Arial;fontSize=10;rotation=90;fontStyle=2" parent="m8tGLTJIxdYSyH3AfNJf-2" vertex="1">
          <mxGeometry x="301" y="-173" width="88.74" height="19.68" as="geometry" />
        </mxCell>
        <mxCell id="UN5E2BRM_m0n_mUQd9ct-82" value="Парахин К.В." style="text;html=1;strokeColor=none;fillColor=none;align=center;verticalAlign=middle;whiteSpace=wrap;rounded=0;fontFamily=Arial;fontSize=10;rotation=90;fontStyle=2" parent="m8tGLTJIxdYSyH3AfNJf-2" vertex="1">
          <mxGeometry x="320" y="-174" width="88.74" height="19.68" as="geometry" />
        </mxCell>
        <mxCell id="UN5E2BRM_m0n_mUQd9ct-83" value="&lt;span style=&quot;font-size: 14pt; line-height: 150%;&quot;&gt;ВлГУ.09.03.04.04.25 Чертеж 1&lt;/span&gt;" style="text;html=1;strokeColor=none;fillColor=none;align=center;verticalAlign=middle;whiteSpace=wrap;rounded=0;fontFamily=Arial;fontSize=10;rotation=90;fontStyle=2" parent="m8tGLTJIxdYSyH3AfNJf-2" vertex="1">
          <mxGeometry x="189" y="188" width="471.33" height="56.74" as="geometry" />
        </mxCell>
        <mxCell id="UN5E2BRM_m0n_mUQd9ct-84" value="ПРИ-120" style="text;html=1;strokeColor=none;fillColor=none;align=center;verticalAlign=middle;whiteSpace=wrap;rounded=0;fontFamily=Arial;fontSize=10;rotation=90;fontStyle=2" parent="m8tGLTJIxdYSyH3AfNJf-2" vertex="1">
          <mxGeometry x="209" y="325" width="195.71" height="57.81" as="geometry" />
        </mxCell>
        <mxCell id="UN5E2BRM_m0n_mUQd9ct-85" value="&lt;font style=&quot;&quot;&gt;&lt;p style=&quot;&quot; align=&quot;center&quot; class=&quot;MsoNormal&quot;&gt;&lt;i style=&quot;background-color: initial;&quot;&gt;&lt;font style=&quot;font-size: 16px;&quot;&gt;Разработка мобильного&lt;br&gt;приложения «Многозадачный календарь»&lt;/font&gt;&lt;/i&gt;&lt;/p&gt;&lt;font size=&quot;3&quot;&gt;Чертеж 2 - Схема работы приложения&lt;/font&gt;&lt;br&gt;&lt;/font&gt;" style="text;html=1;strokeColor=none;fillColor=none;align=center;verticalAlign=middle;whiteSpace=wrap;rounded=0;fontFamily=Arial;fontSize=10;rotation=90;fontStyle=2" parent="m8tGLTJIxdYSyH3AfNJf-2" vertex="1">
          <mxGeometry x="199" y="60" width="274.46" height="116.09" as="geometry" />
        </mxCell>
        <mxCell id="LmQs3-ISiVxIVtay6JkM-1" value="" style="shape=image;verticalLabelPosition=bottom;labelBackgroundColor=default;verticalAlign=top;aspect=fixed;imageAspect=0;image=data:image/png,iVBORw0KGgoAAAANSUhEUgAAAXAAAAKICAYAAABpMKHWAAAgAElEQVR4AezdWbN0SVU38PeTGHrNhX4CwwsuNPRCsMOQpumJ7qenp0e6GZ1QQW1nRZTGASdwQBFBW0WRFkEmQVFARCZRQUVFcZ7qjd+GbPLk2UNm7l1Vu3blijhRdWrPKzNX/td/rZX7/33e533e7iMf+ciuSdNA08BlDfzET/zE7vnPf/7uP//zPy9vzPzlbW972+6ee+7ZfehDH8o8ou3WNJCngf/XDHieotpe56eBl7zkJbsf/dEfXeTBgaTnPe95u3e/+92LnK+dpGmABpoBb/2gaaBHAy972ct2DPiSwog/97nP3X3wgx9c8rTtXGesgWbAz7jx26P3a+BVr3rV7pu+6Zsubfzwhz+8e/Ob37xDibzlLW/Z/dM//dOlfaZ++KM/+qPd/fffv/uHf/iHqV3b9qaBSQ00Az6porbDOWkAT/3sZz9793d/93eXHvtP//RPd7/xG7+xe+tb39rRIb/4i794aZ+cH37pl35p933f9305u7Z9mgZGNdAM+Kh62sZz0sB//dd/7Z7znOf08tT//d//vfvf//3fx9Xxpje9aecvlo997GMd7fLjP/7jO38//MM/vPut3/qteJfHv3/nd37n7ld+5Vce/799aRqo0UAz4DVaa8dsUgOveMUrdi996Ut7n+03f/M3dw8//PDuhS984e5FL3rR7hu+4Rt2H//4xy/sC7X/9m//drf99ttv3/36r/96l31yYafP/vOJT3yimyx8NmkaqNVAM+C1mmvHbUoD0LMA4z//8z/3Phd0bvsb3vCGne/f9V3fNYiu3/GOd+y++7u/uzsPRD8kr371q3c/+IM/OLS5/d40MKmBZsAnVdR2OAcNMMj47TER3PyBH/iB3etf//rd93zP9/RSLY4XoPze7/3e3SOPPLL7yZ/8ycFT/t///d/u67/+63cCm02aBmo00Ax4jdbaMZvSwHve856uWGfsodAlOPD3ve99u5//+Z/fvfzlL9/9/d///YVDZKX81E/9VGeQZatA6zFvfmHnz/7z+7//+7tv//Zv79vUfmsamNRAM+CTKmo7bF0D0DRjOyYM88/+7M92iBr1getO0whll6BOvuM7vqPjv3/oh35o7JSPb/vmb/7mhsIf10b7UqKBZsBLtNX23ZwG/vzP/3z3dV/3dbv/+Z//GX22f/3Xf+0oFsZe+iDaIy2vf+c739mhaQFMWSbf+q3fOnrOsPGxxx7rjH74v302DeRqoBnwXE21/TapAdWWJel8Aph/9md/tvu1X/u13d/8zd9c0Anum3HHldueW6wjRVFWS6vQvKDO9k+GBpoBz1BS22WbGkCBMJxDmSfpU7/97W/vOO7Xvva1XRBTtkks+G553y9+8Yt3aJb/+I//iDePfrf/WMBz9OC28Ww10Az42TZ9e3B52iXrnTDIn/70pzvFWaXw537u5y4okRFWYfmP//iPu9e97nVd3viFHUb++eQnP7n72q/92i5FcWS3tqlp4IIGmgG/oI72zzlpQPbHu971ruxHtpIgeoRxFqyUQRKLEvsf+ZEf6X6yTeCzRPDrv/d7v1dySNv3zDXQDPiZd4Bzffy//uu/3n3jN35j0eP/8R//8e6Xf/mXdygUlZkBjYeTfOpTn9r9zM/8TJfR8gu/8Au797///WFT1ufv/u7vtsKeLE21nYIGmgEPmmifZ6UBdEcpQrbQlfVP/uRP/mT3bd/2bR3PHSsNpw7Ry1B5zWteUzxB4OJNKunEEF+jfW8aiDXQDHisjfb9bDSg8lJQskSsdSLtUHYJrltBTywMr6Ig+6jqxGmXivTDNDhaeo62//looBnw82nr9qSf1YAgo+yTNI97SkHvfe97u5RDwU/pgn/5l3954RBphdIH/UlNrHn7DsMfePQLJ2//NA30aKAZ8B6ltJ+2rQEvZLBWSakonfeKNeuFM9KxWCvcwlSqKu1jjZN0udl4/6Hv0LsCIOukNGkamNJAM+BTGmrbN6cBBhaKLhUl8oKU0Lsy+V/91V+9cArntc+///u/75TV+14j3gb0F3/xFzWHtmPOTAPNgJ9Zg7fH3XXl7uiQUmG0GfAHHnigQ8l/8Ad/cOEU+G/I/nd+53e6AKkFr2rEeuMtnbBGc+d3TDPg59fmZ/3Ef/u3f7t7wQtesPu3f/u3Yj0IUn7gAx/YWbtEJkqfyP8WIJVuOLUSYd/xfpNn7o0+TZoGpjTQDPiUhtr2TWlALve+lm9FezC8d911V3eNtNAnV5HWWsldCCv3nG2/bWqgGfBttmt7qgENCD6W5n+HU8kyUZwDhVt4Kl3rxHKzSuy///u/v1t69nnPe144tOhTmqJXt+Wu0VJ08rbzpjTQDPimmrM9zJQGvGj4jW9849RuvdulBQpOWgtcwU38Bh+rFCqlZ8Rx2LJQoP1aEQAtreSsvVY77nQ10Az46bZdu/MKDUjzk6pXI9YEh46l+Mk4iRezkhPOqIdXrQlopgi95JpQfAtklmjsPPdtBvw82/0sn1p6nwCmisoaUSb/yle+slsL5cd+7Md2cr9jUZnpnZmMubVQlNvXisnBwllNmgbGNNAM+Jh22rZNacCb5x9++OHiCsygBFkoDLhKyT50/LKXvaw7/4c//OGuUrOWA3c9NE+ryAyab59DGmgGfEgz7ffNacAiU1L8agUvjeP+yEc+slNs4+UNQWSgWMdE7vdb3vKWbkVC+9UK/nsOgq+9bjvutDTQDPhptVe72xkasFwriqNWGH8oWwaKhaoU7ATxTk0cuWVmGXccefrS47Bvzqd8de/qbNI0MKaBZsDHtNO2bUoD1vGuTSGkCBw6bvulL33pzmSQiuIdWS7Pf/7zu3zwb/mWb0l3yf5fCqGJwKTQpGlgSAPNgA9ppv2+OQ2gPxjxfQnqxHstZbowvnGWSuk1rZSo4OjjH/946aFt/zPSQDPgZ9TY5/6ogoJ9yDlXL//yL//SpREq6PFGnzRNUPDy9a9//e6d73xnlyvubfO1IlXRa9tUZTZpGhjSQDPgQ5ppv29OA/jvdAGqkoe0Bvj111+/e8UrXtG9jecTn/jEhcOd24serHSIqrHfHJELXvLOzjnXWsOxYgbhXaICwrwYSwo88sgjXdFUuv76Gu752PfQDPixW6Bd/2AakEXyvve9r/p6DAwKRiDTmuJ9i1Xhru0HhavGnCMvfvGLd29+85vnnOIkjv3kJz+5k1cvaCtQbJleE5e2smjYG97whs6IW8ZXG86pcD0JhRTcZDPgBcpqu562BhTxoDlqhVFhXBjwK1eudNko8blkjngXZlhvxfKzc+QlL3nJhUyXOeda67F09eCDD3bxAi/MGBPLFci/Z+h5J96sdO7SDPi594Azen6l7rjrWhFY9JYdRuev/uqvLp3GS48fffTRbhtDX1vxGU6Ms4/XWwm/b+GTlyLYC1GXGmLxAa+su+eee7oXSG9BH7XP0Ax4rebacSenAcgNSq4Vhhuqls0izzst1GGUFPdYkdCfV6zNEbSCa25NtAE6RNrlHLGUgdfb1by6bs5113RsM+Brao12L3vVgNJ2fGutMBa4bcKFlxMeCxdfYBMyhBAF4eaItcVRMlsSi4HVvi+0Tw/a0/nOIVbQ9/zNgPdppf22SQ0897nPnWXA3/GOd3SUhoIeFAnEHYucbUYdR+7PsrNzBALfkgGXhonGmpPK2adPVJXJOUyuffts9bdmwLfasu25LmlgLgK3lop3YkontGxsajBwsyH3G9eOapkjDPg+C4/m3FvNsVID51TCjl0TnXLvvffOjjuMXWON25oBX2OrtHvaiwa42mnudsmFBDHDuzRVXKaVlh/96Ee7PHB5y9ZKeeYzn1ly+kv74tkFRbcgnmPOQmI5OuDxWG3ynKQZ8HNq7TN/Vpy0JWVrBYUSyvGVuafvvITAGXj54SoovaF+jlhzJV7xcM65jnms1M0HHnigq2Jd4j68kINnYuEwL4AWDH3ve9/bnZpnlE6sS1xzredoBnytLdPua3ENWJ619m08biasNojn7quQtKSslzrYztDPDaxZGGtpvnhxpWac0GQXr9yYccjoLrwoVa8oLdQJWiYgb0FSVFmaITR6whPe2Az4CTdeu/UyDUBnc6r4fvqnf7pD1egAwTgGJBbID2/NgDz22GO7T33qU/Hm4u/SEFV8nrKoomTA9yk8I/nkQSxloK3PQZoBP4dWbs/YaUAOtxUDa4XRDpSGNTrSPGZv0WGsIP0l3iiPglFKfqoiZiDzZ47X0/fsPB0TJA8HEhdzsPBXLJb0Zdi3Ls2Ab72F2/M9rgGBR5xprTBEFsQSjPN2+j6B8JdYAtYLIqDKU6YC5MKjgZaUEF9QoYoDt/qj4GUa22DYLZ2wdWkGfOst3J7vcQ0wulIAa0VutxcNMxo43TlFQVP3IBj6whe+cDe1PsjUeY61XTqlyldoeUmhd4bZyzJMDoqrhhYoo7801XPJe1nDuZoBX0MrtHs4iAYgNu52rVj/5O1vf3uXYcKIpJWYaBPIj8i8mGN8Q8Vi34qHtfd/yONMcnOzcIbuF30V8uNl6gzl21v4Su75lqUZ8JHWhSKgLJVe/nwPhRojh7VNK9XAW9/61lnBLcU5KBLrUjMMqQGH7qF0VIs1TObkPaMEcO6nKia4NMi71LNoR1QWb8jnENdtaQM6nLMC5VL3vK/zNAPeo9kPfOAD3XsPuWByhw1K61L47jerxC0dmOm5jfbTwhqQmz0HkQkoQn7QpQBmynVLLbQErHW89ZE5RThcf+utnKLIyTZO9iWWMpBe+cpXvrILZI6BKkZe7GOr0gx41LJcZG9Uwd1peEZaJD2I737Dpaq0M/ungzjs2z7XpwEelAyRT3/601U394d/+IedMYCsGfC+5WKtQggRvuc979lZ+6NWGH9pi6coJq9Acezj/gUtr7vuuu6NRzydNIAZX9PKh8aqoPAWpRnwz7Yqg33XXXd1wakc3lGHkFJ25513divPbbFzbPGZ5lRjqrR8//vfv3vOc57TqSY1CjIjpK8x8AzYy1/+8moVnupa4IKvloqds2zvlNIAKSmEvGJxjfTdpOnxcsLTqtl0n1P9/+wNuM5gwKnkqsndVawB1ekkOLcm69aAdq7lZiFrXpdJ26JW6UsduPXoNrnPPhmyWkH1hIBo7TmOcZwg7xyaKueeTaImSBQKXYcy+qFjGXnU1hblrA24mVsHmLvwvo6Br0S9xJTLFjvMqT+TFw3XuveMk0AlDtynt9MHMXnjrU3kOHApblOGJRybfuqXJpp0gkj3W+P/nnvuMrqeyzhCT/bRXWIZr371q7s/15p6y5Jlfy1ktsWxedYG3CudDLalBDrbZ/Bmqfs85/NILXvRi15UpQJrgN9www3dYkkqAaX6BcHDAgOqPRlexqfWYMhykeeMsjklMfG47zFO2vN88IMf7N5tiQbBYacrRPJqIWaesWKm1GNCz1i2gCeEpspJ1+QVbDEn/GwNuGDTPtZL0FFONfh0Ssai9l6llDEyNYLfVYovl1yVYWqgLWRlEle8og/UTuaomn3lUNc8d+4xkLEc7SmRzYPjt+yASc9xsaBGgu5MuF56HIvCHfEn79K07okFraZEe20xG+UsDbhyagsOjaUfTXWIoe1caUEubnaT9WmAEWZkptzuvjvHSTMuaBjBSut/xwIUMEoQpv1kP9SIwhQUwamJe84J3HrLkPgAI2yFx1R4MPRoEoTA47Eku0fwkq6NY5/0PSWMflixcGrfU9p+dgacu3X16tW9JvdLNbz77ruL37Z9Sh3nlO+V56UYpFRM+CHjwcJV/oJYs4SxYcAgaBRLauDDvlOfguKnuIiV5+9bZjd9XumYEDiDeu21115C0Dwb+mOcpWvGSxZ86EMf6srnTcL0f//992dx7ugoPHh8rvS+TvH/szPg0sgO8Z5BaYnnsJjOKXZ6RkEWSalw58VMIPCbb7750oJWjItgtsAavrXGgON/xWZifr30Po+xv+Ia1FQc2B26D5QJuokevXUoraUAsujQJKvalT5ikeGjFkOeveV7eTs5osZDIHpLclYG3IxtFj6EmPG50HMX9T/EvZ7bNRjaGh5cmqmAGxrGBCCoGQsKgUFxbpxrTV9D0wjenZqUUBSCnIKU3tLDENNnLBA4ow4t82bQnbEYW4w/T0ob5NRtOB5w29c7OeP7O+T3szHgii4ETNKI9j6VDYUx4qeWTbBPnazh3GgQqK40TQ9fCxEKMDIcKX+Ln+XaKwjD4cpIKRW8L+/t1ARizs21tj6JZ0S5SDtMeXMVriZA6Z7SNXk+sQhemkCf9axndeg70FrxPn3fUTf7zlHvu+4+fzsbA17zUtVQbWnFM5kHlrLMne1Do+H5FBI0WZcGtGlpu3hpACPlZcWyTcLLHcKToT8gRkZHu9fkgaP4ll6CNdzfPj8hWxkhOUI/EDQ9mujiLBQBSRSJ9nFOlFSa/sdDEejl6dhPUDNHeE/iCynizzl2rfuchQFniGWG1CxAZfU5iEvDv+lNbypuRylOkH9D4cWq2+sB+NX0LS5TF1TwBYFrT+57X3/QX3Ct0PhUPnR6PX1F+twp9hXjY2hd7vg5ceQCvoKdJlDGOX5eWVyMsvgRDwnSTlMqtYHfrQXOiJe8ZYnnVRObiJ9hTd/PwoDrKKWDVSPpTGGxHG6d72nub05jpqlQOce0ffarAe0ola0kWKgf+UNzeNdjKoCCIiFGAodbuh6IwN6pvlFdFXJOQQ29mQAZXnnZskhST4UXA5mbDOkkrZSmV96PbaisknRgnlFOpkzatmv9/ywMuIFak5aFLuGqcfeg97ThuWLvfve7u46ms+HX+9Ye9ru84Sbr0kDpqnl4WW69/GOufZrRADFKfePSo9xKkCHN4IZPER0GaiKXizYeQwqmOIGsoFQYce3TZ6CNRfw4D4gnBJHnivabs8xv7nUOtd/mDTgXLU1DylWujulYfCdDzgjHS4jiPKFyHcJKdAa4yHofT25wMvZN1qMBE2uo+Mu5K65+WJsDT5uiZdSAoDWOV0ZKSXsDBzlVjDn3eeh9PCfaKFfsbwJkTMUUUs5fcFh2irGE707fCwo4QfuQN+Nd8pYlHtSWKjI3b8C5tIxrjUAUOodgCwPM9RMBHxIuNF6uD4lAEjVZCUPXar8vowEGPIe7dTVZDIy2tpTNkC5Rqt15a/oMdC43OlfQBILkpyglGSieD32Fw8abx1WW4dllqEDfaE80CXomFu0V6BNpm6lnHO+bfrfvljJRNm3AzdJTRjdt4Ph/hQIKDVSFcZtTpGDAyilGm0AJoun33Xdf77KycloFUscmgPja7fthNGByTznWoStz+xlmb2zCwabcqzb2O4Rn0SuGPkfw5ZB7TXwl5/z73ofBFRfIFejbuGKIAaM0m0faIMPMI3nooYcurR5p3KFdxJaMyxIxXmX6bEU2bcB1jDSCXdJwlqGEAqRHGYwGZoyuUSjok0Ch6FRcvyHhDp4qyhp6plP/nbvOeOZUEFolED3CWOFeIc9YTPiMEiMhoyQ3zxyVALmfqtAHKjFXjEnUh2CkYGXsIdMZZA4lmywVwkkmiIXx92eRK5WxY2MuPs53tCivKz1nut+p/L9pAy7iXLPmRdx43GAdDfcJDYSyX58CKTqfzguFTHGeOiPU0GRdGuCO5+QSM9Be2sDgC1Y6bq7wyHiJORkcc6+1r+NRRn0plUPXM5YgbOOzL3dcvMk2wUrGOaUe0Sv2UaHJGJcsjQGUmSBKso+GnmMNv2/WgGsgDTyHssBpS3uC5NEo+O3Q8DqCjgUFMMyQwBTaN0gNfsi9yXo0wKCgt8LkPHRngQNnPCDINM+bgcexykhSEj91PtcRDMUHn7KgRKbAS/x8gsfWL+HVCmKmHLZtkDn9AUfGXSwyVHDnkgZKKRQ0lckhbbv4/Kf0fbMGPKQYzW0Mr2+CAvylHDjDLUvFJCGglcOtoWTmegVzn6kdf1kDjMHUix4U5/C6ZJiYrNPsCOdgHHhqOS/3YESg75DZcvmuTuMXz5yzpGt4Gl5tAFY8mXgCQ1MZU1C9NExZI+mr5Rh1KBx6R6W87W1vC6fO+kTPxNWfWQetdKfNGnDVXCW8XF/7CFIx3AbZM57xjI4mgcpjEdhCi3DB8WtTwgBwH5usSwNSPy0+BT0PCU6WYYEard+RFurIUGFQVBHaPrUapcl8CznJinJK1lc3EZoExRDSIjcxJt4tcATZ83TS4K50TguLaTMxCW1SIvQ+1s4l5zr2vps14FKPSjpVX0NAA86jEzHQkFUc7BIIMWh1NHmwaUVZ3zmhrppV6vrO1X5bVgNoAAskDaX/AQSMMrdd30hFjYB+gnIz8acIPd7fORi+UxdGtKSiVf9nnOnSHz2kLxMX6LfIFVrLZ0pNQs/GpOOhaZNBiQhAp6i+5Pg17btJA66ajRuWpnnVKB5iFqzSmbhzseh8gZ+Dzu699954c+93CAPV0mcAeg9oPx5UAwywvz7hqpusTeRf+qVfWsT7xufjqelPYwY+3n/N33mk4jr4/xzhsfJmjU/ZN158kqJhcScUiTRCE2ZKbaEgBZMFOY3JODMs5x5MCKVVsjnnPcY+mzTgGpWbu4So5IQIGOs0UMMI4/+kDwpiQgU5Yt++AoacY9s++9UAg8Tr0t6pSHHTB8RFeFs13HU4f5qCmF7rVP73PCajEiMqQAmFE/RHWkoPpUPXDDnwlHpExp1jpF6KNfRlsozpj7dckjUzdq5jb9ukAcdDlqQWDTUC91DRRshL9d1vsRjIXDIucy7il3Io+6DJOjWAepNdxFAvLQyW+MxWRJ/nhaY89djzMdCoEUAGCk9TKCFyhll8gJE2XmJxLWsb8YQY+FJ9MuBhLZb4vKf4fZMG3AzP2M4VwRKdC88m8IH/jpe+lOYklVAnU+Qj1TBHFHlA7k3WqwETszRURTlLicAm45GCgKXOf4zz8FC/6qu+qujS+r/gI+SMCkk5cCdTYOVPwBNFE4vjxZ4YbmCtlM9uBjzW5sq+4+JkjZQggr5H4BpylyEFxlm6E7cuHnyKeMJiSNKooLYcsRiPe0xdw5xj2z6H0wCUhx6oWckyvkt9RuYRw6FfbUWAm+uvv373xV/8xUUUCqN95cqVDn1Lv03rIsQI5IIz8DxVeotF8gDjTnDZaSl+vG/fdxx4o1D6NLOC37i9S6zqppNA1nfeeWdXaKBEGqqPEbh0J6jKvooTSgIjDH9J7uwKVHuWt6DNrVkNMdYILw2CFJOJJ/+ac63pGNQJL/IpT3nK7vM///OLXlUIZEHNvFd/qQE3xgQqoWxGPAVjCn+C53v16tUu4FmimxbELNHWgfcVfCrJs9ZZIOI+/hpXJ61MehiXmjGPl5MVxMK1Q+cyS1To5Qr3r62Lkqut4+6n6AQKtJwwlz5H9ClBbStZbiVgGT83r1R/xyV/wRd8QdFiVharEoSUbGAhsbRiVXYJz/fpT396N67SICWDbhz6NP5KlzQQs1LNuQXZHAfOmObmhaIwND7OXOpYnOOtcTWyTgRZ66iQmBXngijkkO7EGKvC0/FyBaKLK9Byj2v7HU8D3H05/ILa6DT8eKDBAAGUAmTJuKFeoO60Tx3v7pe9sqpkkxR56lOf2gUkc68AXQtQGl+Cuqknij4xrsI6/CkHjto03vwJcJZWVYpnpRllufe+tv02Z8A1evoW6yGlQwEClNC3Y+SmBjEwISiD0aC0Dkb6tp2wmhqqRcpTWpkXztX3af/cZUz7jm+/HU8D+gPDw5BLOZSFwWBD6IyDybmkLxzvSeZdGagxkXnmXM8kXNFkKMebsU6BjPWGxJfw38BVmi/vN0At0JuozBJppfQl2jrgvlCQxsnNQAlBSrcoL5UhjkVuK3TNnVPEkeYG62g6H07tmmuu6TpyfPzYd5F0Hb/J6WpA7EMfgLIZbJSaPhgL3jug9Pj3LXznvapngJZLAr3AkOwRaYCMcZq9FZZpZtz7EDZuHPjBg5cK2gV3jx7dgmwKgYtMm9XDioE5DSTibdBB13K5Y7GNkUWvQONKhv0WBHLnCjLu6JOYHw/7DH3a171udXAPPfe5/Q5pXnvttZtE5KHvAjmhMCenfQUxUZEmQDRKmm9vHDOwqjR5qmmeuHFHr6XI271JWTRppOfMue817rMpA65TlKwzomCDcUaTaFSIIBYpX3hM6YGMt8KDuOJMDqzflfpyJUveSuI63O+wKlt83fZ9Oxow8YujSBstmeDXrgFjLQQXS1/ogG4Rp5JOKEkgDf4bE3jym266qdu2ZC4+b0kGWJrZsnZ9D93fpgw4FO0VTbnCGCuPFgXHa8YvWzDLyzyRQeBPxBztEQsDzvhblEgnTIMt8b593xn/dInavv3ab6erAfSCPqlvWANkKxM26iSk6/JcUx57rMV4qzKwjB+6SalLE50AJVAkTpUGHFEswagbPyW59WxEzrLPY/e/pm2bMuA6BD46R6ynwCjrJAoB8HkQQRARdsYZ+paWKDgqSBV3Fm6Y9DLoXWpSfHw4z9gneibtnGP7t22npQEgAN+qH0GrYijpwk2n9USfu1ugJ6z2afyUrD1k3KBIoHg6MW5jCQZcEBPfnY6RUGbPeCvFL1k2A/8eA7X4uqf4fVMGXDAE4skRnUfAUyEANCADJe2E+G4ZBoJT+DY5vTF3ZoDaxh3jmulMJeJ6uRkzJedt+65DAyFPmae3pSKeULgW6ERFbGm15FgLmMxuvvnmLsuEd5t6Jc6PXzfeGNyU7uDtCoLyABjzkjx7E4aJYSuyKQPuFU2pOzbWUAy+SDYj7DuDngp0gfvGladvGYcUBHBs88Jik0GJ4A4Dj1hyXNv39DQgGFear7zWp4SeUR8hiAmJS6lMDe3Q/QtS0oexwwtOj5PRg0K57bbbugwwE0QsJg5ejeAnA18iqB5e91ZkUwYcDYIzKxHBFPQHY5pmr1F/5CoAACAASURBVMhOwY1LZfKXdhZ0iqg2dI6SKUEh7lG+cG2Jdskztn2PrwEpcZZd2ILwQmNawzgRkE/Hz9CzokyMO2BLbCDw2WF/3jF9ATfGtDEYCwQuWYHHa7+SV6qhT9Lzxec+te+bMuCS+0sQrY4jlU9HUm0Zd0oNKcCpQEOWici1GT+4wrbpPNC3TgbJKz4oEYi+JPhTcu6277o0IKaylSwUL0zhtcYSxkf829B3C0lJA3QeYyBNB0SJiB0Ye8ZXmmMObAFqaE/fFVXlimPSwqDcY9e436YMuIYseVGC4AdXDHUinxuKiIUrJ2INoacTgwGJb/cWHoYfJ6fTlQj30XFNzkMDQMIWKjSl/qV0kHGkP+cIg81woyYBn9QLBYwAGxx3WnCDbjEWAS+TBg48t3BPnErCQVjJMOde177Ppgy46qyShdohcAZawYAMkz40LGsADx6Qd9ygtnnFlvPg0Bn6EhE8VeXZ5Dw0YMJHxU2JwPZa0TreW2ZIWAclPIsxkouEGVLeqrRKBjzNAw8FdNA1ilJQM4gxd88993T3wLijLnMFl76lDBTPvSkDjoPmmuUKrg0S4NKJTsdVlrnnEIzRKWSUpGhh6hwmm/R9f1PHtO2nqwH9K+V706eBJmVfpEYt3e9Y/4fMq/QdmGomcj1QRthEJpjoL/VKTF48UzEDGSPpMs2QN9RuiWdjPmdSpC9jHc26JdmUAYeA08YeayzBGChYrjf0rROmwt3jLvpL3xyi4xlskIfOURocgbQg+CbnowGB8LFgn34EneqP6TrZa9ASw6l+Ic29RksoaMvxHMSScNiCkIKRDHEsgBU6BjgS7LT+dyy8ZsYdl63uQzZLjqBbSuxDzjmPvc+mDLiOVdJA0ARODaeHx45dNZQJAytAqdP6892aDzGdouRXoMWgSw38VOO6VyuqNTkfDeB1xVuGRKUgAw+pp8G9oWMO+buAP+oDCk55cPxymgjQd288XsDFJOV7GhAFrBh43qmxGSNsIEkgUpqhsSfgGQqK+q4V/2aySNF+vP0Uv2/KgJcicA3PpZLDanaOF+SBKNAxGpyR94e781vg/yAkARUdTKdm4EsEsviiL/qiTUXFS57/HPfFw6ZZFbEe5DijDdLc53ifY34P8R5reKcJA0rq8eNTEmhHRhpICvnk4Til9tIL0UiyvWIJqb2MO2/GGErpnHj/8N1kY4KJwVfYdsqfmzLgZvUSDpy7pxPJS1UGnyIKed5cOaiJkU+DmRC37WgYnRm3VyI6LyRDttaxSvRwbvvqd6GKMX12Oc1eppxLC6TH7/N/xlJ/5yHg6mOP1XWtFWScTMnb3/72Dl0z0l/xFV9xqZQeaEJLGs88VGg7FkAN/eJajLwMmCl57Wtfu6kKzPC8mzLgslBK1iOBqHUQQUjGOc0PNdsTg6nvNW2CkDqRjiiaXrpIDsPPA4A4tlLkETpW+xzWgLRV1EGfoAQEO6HUmqB63zmX+k1fxdGjgPT7lKPnmaI3pigNwMdaKqgS50gnAuMSZQnRM+ISDGJxfdTKrbfe2t1HysfH+4bvjL6JY2uyKQPO0Jasi4ADZzzN4ho4ReC26yxSDOWIi5jHi1nhvWWfyGdFn0DqJQLNQA/QtwlgS/mpJXo4t315iX3Vg4J3+gPjhZazVjZDtxZhaBld6BhYwkGnYiyYfPYpCoBcQ7641Ex6GxMcO/47pWrGjjmVbZsy4NyqsQBR2ig6o9kbj82A9nU8NAcEwNCnWSoMLr7SpMGY61gl4toBeUP7OlqKRnLOx3PIif7nnKvtcxgN9LUzxM04AgX6BSQb4i2Huavhq+CZcffW8hZ8l3/NA02fw+QkmWDfIl7FI+DJQOxjYnyaWLYomzLgZuT0rTpjjSYQoxPgx/BsKYfNwFuzW64p9C3bJJ7FzfwWsYK+8YOl7wW02H8cYTdo3UuJuB+pVGEiKDm27Xs8DchzTj0+/U0fFpexWFQpINjn04TF3lCU7p23y1inWScMvXsfS5Wce588VuNSn8eXTwUx0TCA2BZlUwYc+u6rphxqOIPFzCygxFVN07Ysc8k4QhRQkbUZ4tle4NLvjDgDz00rkbT82IRSasANIBF5zzHlSpbcW9t3vxpgpNOqYdwwowhIeDvUmjJRrL0tIwQHziDq8+61T4yJdOmJvv1qf+MJuwf0iTE0VhxlUhSjkkW2RdmUATcguKC5ogPIApF7K780DWI6j/OZ7aUgpdFwlZcCl1euXOk48pJrOzfaJk5d9BsqxXlT13TomaRSmVSgORNAk9PQgPZNM1EACB4ZT6+knmHfT8z4hWIbRTjGCvTLiPeJiScnG6Xv2JzfeLs8ZwDKmByrgEZT9iUg5FznFPbZlAHXcXL5N4iCAeUOWnMBcmfIY2FM46BlvM13A1CH5upCBX2BqfSY+H/ZCGlOsGtaqKcEffE8Sq8d30f7fhwNiJ/EhSXoMMicwRHIjOm649zhZ66Ki/dOT9QFKsI9GjuM6JCoykxjRkP7lv4uHoWmoT/eylCcwP3Kisld7Kr0Ptaw/6YMOKOsYXNF0Egn9HYQmSalRhBiEiAR/MS933///bmX7vZDuaSFCjYw6rkG3ODiIciiYfybnI4GLGQWpxOaiEMqKrqudGmGfT05ejFkdwErsrZQfbK0hkSG1b7W+eFx4uLFpuTMD8UKZMnwnLcsmzLgIeiYa8hw4OF9l77jymKBvnHbqssEHO0bu70MuAwV+dyOLzHgzs2Ap7m04fqQWU7eKgoG0oGM0pcuh3O1z3VqQNZRvPyCyRyn63cGMt52zCfQz4OxVkrvD8/NSxgS48R4msoJHzp+7HeeMvoEzYRyGjLgjPeaqKixZ6rdtikDzpXCaeem1OHOGGfoFeJJX65qImBIzfg6seKBOC+Xi2ab4CH+uSQDBvqXNx5PCHEjujf3NBWYdM+yYKCNXN48vk77fjwNaC9tF94J6ZNHiNZD6YmpxP3tWHdqfKAtCJCi7wIXfh8TBt6zHEME99EnW5dNGXCNJbASAi5jjccwMr6QMCMqUGMCQMMEMaDwbGZ4BpobGfOSjKYJA9JQ2FCSRogmmRoAzuceh0Qurk5qYrnhhhtW43IP3W/7/bIGtF+gSvQ3RlsMBHpkhALyvXzkYX6RoidlMHiKkC/KUMIAIz4GltRJACFDCLn2CXgoJjYet8mkjwOnwzRBoPZ6az5ucwacIZWzOiWMH1cQBcIQoyCg8djlgpBEsdEoOD2BnICWnF/xjmCOwVYasDEZ5LzMwX2lubbh2biS0gehtqc85SkX7j3s0z7XrQGeVqBKGMdnP/vZnSfI+MRg4VhPAeDE92FsSa21+BsOOi1zT+8Trz8FVNJjpv6XcYXOtICcjJ30pQ7ucevcd9DR5gy49KZcKsNMHhayMmD6+DqDy0wPTVj7O3ZpHc94chV19BLhOvubErm2Alt95+c5GPSewUSD5mlyWhqAsCFZdB3PUTCdUQQapgpUDvGk+na8vhCQI9OLgcwBSiETJAZGc+/bOJUJo8+jmmKET2c8Ytlh5yCbM+A6FZdvCdH5DCYTgmCJyWGpggDoG7rOEfRNjILCMVxHnZgnoEOnSCTs1z7XrQGeXfCy9F9eHaOp/x1beHhxcPy+++7rCnik5sUpkGP3aWLy0pTgaYztm7NN6mCgSaHxwM87NnikOefZwj6bM+BoBTmoSwhUxDCiWnSUuCPH54fESw07VB3z7fH50u8GsuyENOXQ/UFqFtqyPfCU6fHt/3VrQKwDNQdZSr3T39ZSWQvRxhMJr9EEIzZksa1ckaWF3tyn8KLFFM4pmL85A45WkBu6xMp+BpS8cmhZx1Vdhk4J4lpQeSi1HyvpDcf4hES4eSUdjSsrdSsWBpuH4DxKnKUzNjk9DaDHgACoW1AcFaZ/SCU0SR9L0BAxfeI+jAkeruK3OB6Uc48Ciwz5PgRwu/fee0erMvdx3WOfc3MGnEL7KhxrFA1VM8533XVXF8BUMBOjXMbTjG8AKrzJXQulpGI03DeulMsaG30ZAAY8Hv7uu+/e3Xjjjb3LAYRztM91akDbAgdiGcACpArlWupBlsWxhFfHUMci9dXa+byE0qUjLHCFLipB7vG1h74DRMZeLiU5dJ5T/H2TBpxByw1kTjWalCk0BZ45XWsE56yTE25wulbK0Lmh+XRgDO0b/86Ac61DcIsH4P4MKEgJF+i3JqenAWl5KDoxDUaOR3VskWobe5zuBz3JM9B/H3jggce5+9x7NWZ4yNbwWUJ4LkCU8XmOskkDjkpg6OYKQylNKfxJXYpzTiEKa5Cr0kSl5CIAKVjpSnS598p9ZbQJVxtiU1xh9bq+xbhyz9v2O74G9KGw+uXTnva0YuO45BPoW32ZHIKt0gdx4Pph7pIP8b3pp4w44DFHZJ+I/+xz5cM593eIYzdpwLmd6I65aFSQUbqU1CnpSji8OI1QbrgBhyeH+vGWU4Kbd29jBRBj50ChoHFwoxBbuL9rrrlmMid37Lxt23E1IFDIaKNN0HYKYEo55iWfAMDoe8MUL1N/v+eee7o18GuvqUCNEUcV1cSrgDT3kAuaau9z7cdt0oBTuk42F5FyzxQhKAeGOPzF2SZytKGRsC5xDieI5ggLFtV2DkVDPAzcO+ok8JHxvdWeux13PA3w5FAnJndBub7U0UPdnTTBkKoXX1MthOKcpz71qbMLdIARfVclsXMGajC+XvzdJAfxi/uIGaRZWfG+5/J9swYcN70ED849g74hjz7aA/cmso4njwOcQx3Ivs43R3RkGSk8BM+JkrGEQFzQMOf87djjaUDaquIshm2fb7UZe0L9a8hDBFr0dUY0Nw127Fq2AVo8WZ4pEASUmEAYaNsEPa2A6JoKnYzDY2bnTD3PIbdv1oBrdG+bnyM6sqAL4+hP2bPfgujkMgZw45A4FDElDz/88GIBHB1cUYNO7lnXEPiaev62fVgDqISrV692WU8M1rFE8BK33LcOC5CAG+ftheKjpe5TfwaY0CoMtWUF3AdKCfCRKNB3T0td/xTPs1kDbjCI5udWi/U1HmOtw+ICcc2+xzO/NEIdjDCkU8vJ4ubxfku5xryC2267rQugonriirS+52m/rV8DqDGeY443t6+nAQgEVPsEzeEevdJs6JVqfce13/ajgc0acOrils0pbsExi5TrzP4sQBUjcEFSWSjhHYHyeMfEuey7lEjxkkKVs6jQUtds59mvBlByYi+Mo6KZYwh0PYZ0TTBqLdraO8donYvX3LQBV1qLspgjUK2cV39pHriUQnylvFhoPKxFwvD3CQ5vyUV9UDqCtXKHGfKcxYX67qv9th4NWNjq+uuvnx0gnPNE0maH4in6vG3GxTG9hDnPt6VjN23AIRmURW01G4Qrv9ra3fg+3+NOK80LZykizoALvDDowZDHHQW/h9KpSZmKzxN/l9Lo+VSK3nTTTR1XeCzUFt9X+16vAX32yU9+clY8pf4qw0eiSMR1hlIY0SsAg4lmbh738F20Lbka2LQBpwQpfrXZKFxE+bii3tCt73GqEzrF+ifSv1Ajgiz48j4DrvoSsllS8PEoIly4XHXR+7EXQExdW0mytdEF0BQIyXRx3144sOTEM3Uf575d/1kqTlKqS95j3Mf7jtc31DwslYXSd432W54GNm/ARcxz1yjpUxlULQ+cMbMiYSwQuskBhWIVOelVjKC/VHT4fQQZcaW8A/dQu1AQ78AzQvPiBp5JRos/58R32obvH0ovS5+3/V+vAcCh9AXb9Ve7eCQwEL9o+eLWz/wnP/xcS9f79HHM3zZvwClXBWXNgICw0SNS9BhnpcMMWB/CHmtEXHxfVdvYMbnbIG4pV57RRKUApES4w6ghhjqmh9JzeG5xAPuiiZrsTwPawYR5jMlSP50qj4fS40XV9qeJduYpDZyFAR8qC55Sju3QBuqDgeNach9lo5SIBYD2mXKFizTocOK5aZOexX1B16nhNkBlIRikcdaNZzZhCJjKzW2VnyW9oGxfyyQcI8sDOJm7BEXZk7a952jgLAw4BcnXnkIWqSIZMcYapQARSdfDB6dUSnpc/L/UQhVm+xIUkYo9mQGMq2ecSp1E8cheUe2XCmOODsLph2VN0wGNe7eoltz4ZsRTDS7zvyDiu971rmVOlnkWVNrSxTmZl267VWrgbAy4RW9K39TDUMnqgEoYR38QaYpKx3Rv3ZN9om8TikpQBhUnj0KBkIeCYJC3CQVn3idSJbnRzqlM374q8/rEBIBiGssZ7juu/TatAd6Ul/YekqqwxMNQAc/0Hbc9jqGBszHglAt1TgVolmwEmStzF66auh8GmcEVhAzC4EpHI9zweAlcefEW5RoSyA8Cx3cz4Ab1mIGG1JU+N1lWA3SOGjskjSKjqqWhLtuO+z7bWRlw7qGVzw6BatAOAn5SC/ctKJ14mVvXw9tbNJ8htnohgbqt6TImvA4piV7hJrd9yntgaARQpTA2WVYDqK6pGgYGVxtZQ8SfgHlpkN1d89hQKE1OSwNnZcA1jTQ5Rm3fYn1wqwQeWhhgnDhPgyFGreDhDWou+RSic7z7FjOQeSOI67cxMXl4O0tDb2NaKt8m7VTsJdW/SZN3p7IXXcZjEq/w5zuq0KQqfpMbo2D4HdPktDRwdgYcnWAh+Kl1S+Y0o5TF++6772jRfBOUQQxRoUu8eIJRzkXJjL0ccBkq4e0/U/qA7gV5myynAbEW2U8xBSY7RVxC24h/oNBSUXQlmG2BMxOxhdamRDBcdWWT09LA2RlwzcPAWpg+8MRLNhmEizoxuI4lBj7+1H184Rd+YVfuryI1R6QQok6gbwEtVaY5AiWaNI753Dn3ecr78KhQgCXgA22ognjK60ShpEj/lHV1Lvd+lgZc41o4X1BzST4c762YZijD49CdSkCSW/zEJz4xm97wDNA31IeKKSmAYrwVFTVZXgMmYHRJzUsecOkC3YLNfUYa6JASuuRYWF4D7Yx9GjhbA04ZOENZIlDnXMFLmhCU3K9JVE3iwXNFGqFJyJooyqWht7TQZ+xcDMG5v6dwTD812xjvJeIp+mbfy75ln4xlJtXcczvmMBo4awNOxbIyGPGYZyxVfcitFiBdm+BL02Vwx+5R0Et+tyAs+gQVU5L3zr0XXGuyjAYsLKZ/9iHnmitA4to2Fm1e0sbxse37cTVw9gac+kPBSs1iU1L4BIqmOMZjNLPMAiXvuWLtDdV/BrRlQwU/X/WqV+Ue/vh+aBtL8DaZpwEpqDygoaVda84u7mNhtcCjmxgsUlaTelhz/XbMshpoBvyz+lR+fu+993aoM4cyMKgElRyTm92xbNNNn02mQgmHjQvlSkPQkDv6Jc0vx5Nab4Wx9+d7WvXJ8Lfinun2GdsDby3QLjtkaVGtK8Ctn6P+LNY2lV669D208y2jgWbAIz2iQhgwL17AGyuQUEghsOfPd7/ZZh+u6FrXyZaTXbOMLmOs8Ef6oKVF0wnAcgKhQhPVouQ+fesRnUB5jFCTOg3QK2S8L7HOe5hkawKj+7qvdt4yDTQD3qMvRgp1IK9ZVoUgEqPtu99e/epXd+ui9By6mp9UUtbSOu94xzu6QKS10PvywLndgZNl8L09PA0EW7VROmKTcg3QO1ou9WzKzzR8BOSND1exuw+UP3zltmVJDTQDPqJNRkpwEzL353swXCOHrWKTwZlTwJHerOIf3oVsEhOVCSv2MgS7gkeCTuF6y01Og2AqQdcY1E2fd43/033fxDl2r/TP4KcT6dgx4hRPeMITuiUXxvZr29argWbA19s21XcmICWlsU9w1tbMePTRRzv6I13cC7f/yCOPdEU5jLfy+9jFtlCW5XXl0aNYFPv0GWpGHops3GpfKwz/poKyNJdenEJKrMpLbVGCqLVv2geG765tWZsGmgFfW4sscD/yt4cqL/H4YZ0WQc40Z1sGitQ1fzjueE1qnLbMiLe85S1dLMCxjMUQ6jMBTC2GtcDjbuoU2sQ6J7liopT1A7Gj/hRTmbzT4PPQ+exvSeAmp6mBZsBPs91G7xoKU4jTJwyuAKMgVt/r1yBsfD/32uAOKxk6l5fYGuy33357F8i0gFW8jG16PdkoQxNJum/7f9e9M5XxHZoQ+3QkWK09YxFUFsfIFRWeh1g1M/d+2n75GmgGPF9XJ7EnHtSaJEMIzO+ySLjcX/mVX9l9jx+M8WC4IWeLG0mTjPOQFfaEqkDL1Q5RNc4pGMfgn0rcINbDMb4LKKKlSoRutWVIZdVm/i8pTBNsXlsFcYkOznnfZsA31voKiwQwhwQNYq0T3DWaRBl1LIJhinicxycD7k0/QRgGxzHi0HVMsYR9wifjoopwaDIJ+7XPXRcYhqTjeEOuXsQ1eDsC0CbNuL1yziFAb9nalvaZo6117dMM+LraY/bdQMhjaAoHznjffffdXcArzVSBwCEySNAfY59mmITX08lVnkJ6KkHbMqXTzQpBe7tRjSgo0+ZiDtq2RuSEt7TPGs0d95hmwI+r/8WvzqhayH9IvCJNsRKe3HeZIrFAYYKc9uHSpxkKjDdU/bGPfawz8GNo33llqzAwTcY14EUMJcHLcDbVsLfeemtHc0HSV65cqSqLFzORxdLktDTQDPhptdfk3cpIGFvTxcJWinygNelq+O5YbMehQ3QClIxCLDJQuNuCodBeWoUZ7+u785esx5Iefw7/07Gq2dr16VFadKxNa4u3xE4sn1BD4ZxDG631GZsBX0HL4IqXCPRJKWOUhzhQ9IlFjKAt7rJ0QwguFkYEipcLnvLjYT+onLGA4KcoFDy6SaXJsAZMctIHa8WkKn/cyxt81gqvzAJoTU5HA82Ar6CtuM4lS74O3fJHP/rRbmEiZdJ9Ig3QQlVWuMNvQ1yMcCruRxUmw8IgxJOLqkyUCAMum8U5x8SEoLJQemKTfg2gq7wBqUbkfquc5RFpL95RbdDY4mVj8ZOa+2vH7FcDzYDvV7+TZ5c5YNBBvHNFsJBhHRNVlCENUPFHWsTB+HvvItTM8MoDjw14eFema8hAMQlMiWswME36NUDPXh5dI/oP/lz/QXmhx2rXUOFxmeDj9q65p3bM4TTQDPjhdN17JQFHyMfLEwQG54hUsqmJwOBWYWnQG/DSBWORcaL8nUvvXGkpvOIfyJtw2XOQo5dmpKsaxtc85+9oLYU0Na8zCy/fsBYNGoUXN0Sf5eiY4TZx8+SanIYGmgE/cjsZwAaewGNqLEtvDfrKeQmxd3ZaAxrXneb+QuDOw3j7g9hjRCbgJrOE4ZYHbvKZEtdpKWr9WhKTMMHVCgR+3333dZ7SG9/4xi4YOoeuksrYlj+obY3DH9cM+OF1fuGKOGIDmFGcK7hUeeBjgvuG+AxyXHb6+jP3I43QWtTOx0OIDbjjIHhUjQyUqeu5F0vzvvKVrxy7rbPdZrKcoxul9HL60V5omKtXr87y5F7zmtd07Xu2DXJiD74pA44ewNnKsuDec9sF4VKUuaY2wltDPV42Gy/bWnOPzjFFVXC1ca7K4OV5py8N4AnYHvLAZbbEAvHJdBlaSyXeN3w3CbhWk8sakHtdW+iEQkFnmYRlBnmrlAD0UBD78tUv/6Kwi3fW5DQ0sAkDLviCz1WUwvj4Ltimc+uMcmwF7izQlFYVHruZTDZebaUEei4HDslPBcOgacvJ2lceNyMQi3VP8OMmlb73WkLg8o5t//Iv//Is998zWp+jyWUNyLmXalkj2lJ78XBkExkHkPgckcFSupztnOu1Y+dp4KQNuBQqhQvWkOCKCr6kwSCl4TqlnGcZE0qG+1bhm6fGuqMhJZy1IJTJJr330rNCYlMBKLpAo6A+DHpIOxWoHDLElacUCi/B7xCfc/B0psREMIfnnTr/qW4XcJShM8dDNKEyuCZIEzIAU5tGSI/y+p1DbKbJ+jVwsgacq2cxegGy3LQpiEV+8z333NO5m8duHnSHqL9J5Wu+5mt2glBzxMqAJrUxMUkwHIKRAmhpGqDt7ouBNukpnY85cFkrOHSG3z45AS/eRcq1j93juWyjy6lK1ildaC8ekxcg8zT1gbQ4a+oc6XZVnekaOek+7f91aOAkDTh6ROR9ii4YUjF0Ifca1XJMcR88B8UTimumjG98r4xqbFhty1nNDjrjckPRUH+6TgmPBfrGp8s0sciS7JiAyKDuQE1pB3qcEl5Bc8svawm1tMQyA/L5eVX+cjyiy3dy8RcTQs26LBfP0v47hAZOzoAzPnfdddcsN5FiuYoMXihqOYSy02tYd0Lutk8BKMuC5ooKSKXPDLFXqBEVeWPuuACkdD4ZL9IDGe++ClCGxUuJnZt3w5gH7yC8rs0ys9C780yJY6DDJhc1sMQLL1Ba2kd7+dOfxVTmCArNZNBk/Ro4KQPOyKE/SgwdlCpwGf+FZhHAE/isXQAonKf2071J2zKRMKZT64rE1zFIoWPpfNdcc83upptu2t14442jPLqUM1SGt8gz5FYVTLNDuOQQHc/gwQcf7NxzNEoIjtnORUfBCLpqkykxcaSrHk4dcw7bpQ8CJHOER6VNnQutlRMHmboez6t2Wdqpc7fty2rgZAy4CDuDMrX2RqoehkdnZJCgRZx5bHQgGMj1GIv4MMIGMIPp3gKSTp/B/4wgQ4ri8Los1AVumT6e+MQndvEAnkma9peey8uMITWGmB7S4KKJTpCXvp1bhoTfQmqayZM+GQyBM1TWlDQD3q8hk2dOIVT/0Z/5VXuLoQhIy8/XLtp2johtTFX0zjl/O3Y5DZyEAYf2uOw1+bIoBRwstMj4CMylq+MxnIzfobNTIFkpfQwcNxgn7zskzjvwbspQWYl3ZmxRGrhyhpU+vJcyVDlC8lPuM9QPYUHuCnag8hIx4ckqMTGaeHD3U2IiGHv12tTxW91uApzK2895dhMx2kMfT5dGyDk+3UftxNSaOukx7f/jaOAkDDjEyJgtIaLrfRkRDOmhEeBQMAAAIABJREFUAm0h+Mh43nLLLbtrr722M8T333//7s477+xWlfOsDHPIxQ7HxDqQURN7DjjpqQwEk5XJAr9tMoPiY4HwFfkwLCYI1w/XNgG6nu28ABSOc0wJnl2+c5OLGrDezNyXCYufoKfEQ0z2ApBz1kNxh4q50kXOLt55+28tGli9AWdIGLZatxCqhjhlT4isy/hQhNInjAwXdGmBpq3cF9AR9zQUtkA6X/IlX9IFjVAVEHYwmKX34f7HaBjnM+B5IK7LAKfxBPcgNdBkgFoKwUvHQv68AFSWIJfrQfFTojp2brrc1DVOcbt26AsilzwLj0hbagtGV7C41KtKr6cPiY80Wb8GVm3A8a643jHqBILB2SkRhw7jQCDqhavPCDHe9rNmMiPWJzou45Qatb59+34zmFAgDLDrQkMQLsMnd5rBJO7ZmiO8AQYRehKAhGrniKrTMEkMnYd+XBdnCrml16RzxTvS0eSJQ/mB/3ZOEyFjbEKVrZIz0F3jmNk+Q7o49u9opbnVt56B9ygQb3kDPPhUHGTqufX/NQSdAR9UoTFrfOuP6Li4P049y9a3r9qAx2tPDzUEvg4XC+HiyTV2EAYGXRKQouwL7v+YMGxTARw0A6Ts0zUMIN8FSr0jkgvLkLp/3xl0nTEV6AuCFYS67bbbLtEZ6f5T/zOSOvmYmFCUwtOTa6cFGwaHQCfUbAL0GYvnlIZockJt5VAAJk8rFza5qAFGck7VpLPpW/qR/mYyEJOY8sIu3sXl/wAc3texBOCRlWXcqgoFGIwrAIWXwXPRB4eA2LHu+xjXXa0BhyJ0xrH3O1KYGdnLAqAGnS5F63hGhpVIsxIMHBNBT6Xt8SBgrBl+Zcs6jQ4lawTdAPlAqQwbY21tilwKxDE4ZIbU+XKPG7p/QdCpAgwGA/1h0uvL96VHyNAzSnE0mcX0lcFlYMmgkEETOPqhe/I7vt2k0eSiBniX9DlH9EFAAfJm1J72tKfNplAEwnOC03Puu+/YAIIALeOUFxt71I4BKvQ5MTH3CGycs6zWgBv0OZFwyFsH9gcJoyZigdBx3owN3nkKoTrWvnh3RofxwsObHEwmkDT0WkuzxPemwhHidx1GM0W78b4536EWg3hKTDKWIEWHoHZiEQQVJ0DtQM0GSRwUM7FKxQzVeia1KTFRiEM0uagBWUOhwvXilrL/9FGGDgBAo+S0ydgVGPBDI3DUozHAG80dW0CWSlao/FzR+CoNOFQBnUzxuToho8eVZ1Cgyj7BjTNKKTrv29dvuOyv/uqv7qL6BkX4G9q/9neDzuTgGWTAxAHDmnMykozrmOj0JgyGO2QuxPszBs6BjjGYUp2aIE2CvJqHHnro8RTG+BzpdxOx+EOTixpYIuAIkfKWTLg8I5MyJDtHTNjG36EEBWRdIyCsRvRnQGMuHVVz7WMfs0oDLtiH+5oShlUhCR4XmmVQIO5YGEWGCm1gtmYwc0SnCNRLzv41+zDgruH+0mBhzfkYyaEMm3A+g9sEZZKUrWDAx8KlZ7zRUryblMKiZxMFqsaASzn0+Fzhu7bM4crD/ufyadJGAc4RCF4gmZfTt7Jkzbn1gXSRs5rz5BwjSGkhrhzPeOx8+iOvYSqNduwcp7htlQZc4DFnlTsKl9OML2NUuGDpLAydhFJ5KBxSz5EQEJob0R+7FkOKQnFPePCpIpyxc9kmQAmJmdiGxHPhr9EtXM+U64TAoW7FISZSE2R8X7wYBp5eUSxT+fniBwx42i5D93dOvwvMpXn4pc9vIpb/jR6cOxmEazsPNL9vgfRRlbljfep+8OH485Q3nzrulLevzoBz8bmWOmaOMDJ4X9xfihYdz3AwOIykTl4yQzNSS3WuvmeBcPGgAqcGTK0LGc4NHTuPzyFBgVjFkdsqgJoWLzH+dIaTpCuVnjGnylMwYQoO+z61SBWUb0I2MTS5qAGrPi6xeqBJMp5kL16l/D/e1yHeygNsLF13kQMqyjWy3iNWZ8AhUu5grthX0NHKbiiSFIWEyDYUKL+5RLhl++zIgjVSonQ6Rs79cynnCIMMZQ8J1GNNFZQGeinViTTCsGKhiVEmSsypOjevx4TJZZ+a4GQM5NBhQ/e7xd/RHoLhMnym9HeM50dnAD37FFlXqMOlBQABYuL1jpa+xprOtzoDjnsrWeebcQnogxGUlx0LFx9lAHH6LOG1nTfNwojPvcR3nDyk65kZ1VzPY+jaPI0xowBZc1tNFqiSvjQ2KZMQtj96i4XhYbjx7SF9M96efofy6b3JZzQgAwgo0A5oLMBjjugv4hjOy/NK+3/NufWLqWB4zXnDMbxsVMe+MkeAIOM22IVw3S1+rsqA4wNLgydQJDcM/wXNpgtS4QdDChs0WUpTQCJpoG/JjgAN4+gZuThdr/Ya0i/HPBicvkAvzt2zWXUwFoMLNxtoJwGymJKhC4adEaJP38dEJkuoQB3b71y2aZtgHFFQPJk5YgJmrLRpCOTNjTfwvEwu+xLIW8rvPkVefNDzPq9z7HOvyoDrNCHgmKsYCFZngPQYw7TiEdLRIaUkQt8pxTJ1HWhkH65euC70jfYYM7ph35xPAxl3PyTcd5MdmkR6n+eLBd/teRUFier7HvPXvASxhKtXr3bHT9EjJoC5tFB8f6f8Xdto6zAhWkrWBDdHUF7GTShSM4HPDbxr+wB65txb37G8uzTu0rff0G+WZQjLGaNh0I99mVDiAvpvCuiGznuqv6/KgEPQJelm3EeumNQ52RLWS0gj0CgAszFUaaW/1GBNNZzBJic2nRimjsvdjrPzzIJ9Y9kjueeD4ukxGIn0OMYUfWKgm/RUuzECOnwQmSbhbTEpncVVF3NwvM+x9K8QwEzbJFznnD7pQLvoo0HobsqDCfuOfYpjMOCM1dysFtcxscerXI5du3QbmjPWQd/xxsHQWAB4JCt4VjEknuvQ0hcmoZxiwL57OJXfVmPADXYzc8lgx3/rEDov1NAnOos1JxikWs7NIEsXfeq7Vs1vKCC0hftcCi1A4EMl7gw7BG3SM0i54P4P9A20zZMx4YV94sHE0LtP96wi1X5DgifPTdscOsdWfldXII01FpOptoqDxPH2nO/aTSaQtoLEGSxGbo7IDhHfWFqg76nFzxS1QdXGdI7nxvseMuBAlyyvnPMs/ayHOt9qDDhDJq2qVLil6AeGKXb1w3l0CG4q1GnBqBpDjKcspXbC9ac+uX86Nc45NpRTx41tN5DDiyDS/QR2TBZSAa35wiPhkoYlCMI9MOqeOfwfzsPg4895NegVC4gNCXR07mtV0I0+qEYhNax0bgKM0zSHdDn0uwlV/3Z+CB9tAAzVinEEFPG0lhbjG08/JACWoh7AgHeiWjgAi3AMXQJjzgOAmAD1xSERZzAhbFVWY8AFHGp4N8bEG3fkUpu100Fi9mXQ8ODSi8Zc/qFGNkks4er2nR/6ct8msKUEejKY+8SAgLDpgfG2LyMdJj/FRWIFBjHjgiZJjTgvyf4MhbTPIRGQnhtQGzr3qfzOwNLjUCBXO/XVL+Q8n74jBhTQN05YbcEckSY6h6MeujaPzSQz5m1YFgDQ8onHBxBSKlBMC+rWRxlwqH4s28Q2Hkp6nqH7PLXfV2PADfZSCkFngCLxsVCkwZAGNHRoxsgAkmKVu1BO3JA6Ex5cx9qHMKol1NHUPXAdoZfSgC3jDTVzwx0r4JkiMZMZJCV4iRIY8mjw+mP0ytQzbGV7qJIceh459UPGfeiY8Lv+D5jceuut3To/+r6JWUyjVkwI++CNoeQxpBzuV5aTPzrpi1fxHumMd6j/5YxnHop4zxZlFQacATM7Bze+RNG4Xi4SlM31SkVjM+6MCSqklpNlsEoCrOl9HPp/Hk1pyqR7FMBkEBhmxRColDjAaU0ZAwftY7AH5J4+X8gUSH8/p/8FFKG/vlz7oAdokhdZKyZZtIMxJCX0jjvuGC3kmroOI4t2WFJMKABFWlOQXoP3jAIy1oAu6ZGpB+dZw4ugnZPXMSXswlhm1tTxa96+CgPOWHCXasSMzCibZbn7qYvGCJkcdGwIvYamcV+oAmjnVARXOESjjD2DQWbgcDl5RNIFGYcgkDmjjvYZ8hpkB/GoxipCw/m2+sloMURTNQSyfOZ4KmiE66+/vkOs+joDODZhTOkbVYiWWFJkOuX0RZORsQqMAWXW6vFbLIrUBFlNeqijnPgBClB/TM8Vn/dUv6/CgDOMNSiEoWCYcYi+qzBMUbgG5loyRrjfNC0ut+HM+gzXqYhOi8ssSStDFQkIe60cwwOJoQBSlA0piTkMiTYw+M5ZeCqoiDR+kOoERSU2M8bjpseE/1FlAIk24jmZtOdMmihC95JDS4R7yPkUMAeucgRtwgvwXH0TCY8FZeoPnWfc5wjAoU22Jqsw4Mrdg1tUqmCNDX37xM2mwQrBE50CN2h7LYUCRexzXZTS587ZX6UkTjtXoEYFTwYPNEd3gkalAhnV8rql11rj/sACxEd/OQJR1gYfGXF9ms4FwhnKWg7cBMBrWFqgb+MnR+S0G6eeR7FZKmg7mU0mLJ7LlIcTjofcnXdrsgoDriGm+LEhxUMccmzN8in6dozBxCDp3K5Ti6Lx8zi3dIIYuq81/A7VyYMtQXcyS7ixsgEYA5OW4GauaA959ylqzz3+1PeDCOmuJH1SbKa2pF7qneupg0DziU3IyqoRHtdSFcHh+voDVD/lidifZ8ej5pUYZwrvUg6cl2Bi9Am45a5tpA/r16c0foMOxz6PbsANdBkeJUYiPJBOIUgkUMll13nj5TlxgToQ7otbaPbGmdeKDlCa2VF7raWOwyUO5YT3XYOx94YjzwqxlE4Apdfru4dT/o2LT285Bis8J5qLkasV7SVuoc0EmOOgc8k5jaGhArCS88T7ytc2PnNE/Io3bhKRZZK+j9U5eNL6Mz171hJKFBiJ7UPOPa19n6MbcC46ZJvLZcUK5SoyMKgChTACoRo4CDdLx1Zur2N4DyQjXisGpnOekkDUnn+Ms46fBw8ekBhEV+Lal14rvu4Wvnt+gKK08g8NAnzkUi6xrkwUgsz4YplHtelyAI6YSQ2Qiu8n/W5yQcflCnsgY8RkAnzForJXPwYyjGOZTilCj/dPv/MoHbMlOboBZyAY31rBnZuxca59PDrKJAQv8OQlnHB6TxofHXNqIoCTU0lqcNjPoAt5tiWufcgEOjX9LHW/uOjaFDxtJDBXI4AM9A098xBrwBC+eagkveaewjHAGRozR4AH49MxvHITUjyhSIsF0rw6EW0KfadZZ2PXAe7EG7YkRzfgymLnGFWNyjWSo40eSV1Xs7iOCYFz72u5do0+N2f3WB0H7ye9LIf+kaljYTB6ElNQKBUPoqFnoH/o81y5b4FyAUBoukYY35xUu75zu7ZUQimF2qzEqIXzufe+GFLYXvMJ1cvnzi2Asz+PWhohUJemRBrbvBu0jAmHt1ES30GlioPl9Oea5z3GMUc34GbSEo42VpKOyu0TwGSgRa5jCsW+XCwIHLrR8HOCGCo5BYxOUXgn3PQpgcKhHNkA9GVyhIzGhNEy8JY2AGPXXNM2sRZZJ7mZFkP3DkWXAgxoW9/mKRkHxlJpFgrqxuRbY/iHnsXvvOtSxMuT9jwM7dDLKTwzsAb4lQZsxRpKKa6xZzz2tqMbcKgYsq0V6Fresnc3QjBp4zAqt9xyS9fYkMqcZH4o85Tzm+Ul5+TjypsXeKLbnKAWw8HdPVdBHS3xbkf0S403apKFdHmzsq1KDThqsRZEjbW5cW185wqEragP2GDE0ZV9z4LeE59BoeSi+3AP4lhz4mDhPGv5PLoBZyjmZIYo4hHAEcmHQtKghoi8yDMDwyCli12VNITZnqu5NFIpuYc5+0qFVIrM1R4SgTgcJGOvKk/+bEpLxccyGgLFvJw5k2N8zlP6LrDGeNZmfsTPKhjJk8kNOIdjAQscOuohl28Ox7pvaZ/puAnb53yKTZUEVfUzRp9N4Oky/ulYQ7PcfvvtHQeukKfUo2YjauMUc3Sxr2OPbsC56zpgrTAwslAgjytXrlyiULik1kswm+sUc9Y5Zvwh8Jo1W2qfb+njFOqoWB1y1a2nwSBJ0YKCxsQACm+tp2MT5DmJfGXUQ46XkqsXOszNbXZOdALEyigx/oJ/JUFM42JOEsHYc0G7JWl7jDV7IBjMc+5D33TNS/G8+lxOKX18j2jBLfXToxpwDcb9S2mPWOFT3xl/XBnDJDqd8rAMu5mcQYII5qQBctcY8Dkofup5DrFdnAASV3mXChRkUHNRxyYqenSOMCFaFwXHzqifi+hX9LSkSKOT9plLDWgv/REPb0KB4sc8pvhexS4ECocm83jfmu8mtxJk776BMZQUlG0dnnQywpHj1Y3zkFZYcm/6PICyFTmqAdeBKJNbVCsCbIwG7sxfanQ0NvdesBPPV1uJ6f4gAga8Jl+39vn2dRxkJC++z8U1sfahn3AvkI9MlXQdawOKfs4hE8UEZsJK+1vQ0ZxPVZUl6Zu11zIucotsSq9hXArsltBBjDV6T944as5fSqEIbuLsjWuArJQOkZWGItyKHNWAQ22UOWcQCGhwG2+66aYOaccr52kkC2XppAy3mZ0LNUcYqFKecc719nmsiciAQC1NPRN0JMvC89t/yHWVCQTBb1nwrgBBmvG01DOHtM85wGbqXqB1sYt9eZOQt75Sm1Y5dP9AGA9Fmb2khVKPmn3Q5+fYnKF7O8bvRzXg3ESpU7WNbHbG+5mF8WY6TFo5aK0IszXjI1g6hixzGsA10DVbEbqXSw8tMcxQD5ea8fAnOGy76jhGS3phiopiXeDQuc77ND7x9Y7xXdZNzeqZJffKM9rnGtb46VL0WnL/qDX9qUSABAhZH0KrAhgpHSTIznu0DzqldLE1oFEiQgm1U/IMh973qAaceyUCnjZSiRIE2hgY+Z2MSyqyT3TWUCVYsshQei7/M+Al6y/0nWONv5lMpVnidSEb6Aw/Cq3QIXpkKh88PJdsiKGXTId9TvUTXWciK81+qHleujehLi28UJ7vnHE3dU+8k9LgqPsRswIApAYbz+k9Ak+CtoAa0FE6CTmfuNu+eP8pvSy9/agGXBUV+mOOQN46Od5Mg6fBHy4XCuUZz3hGR6PMjUAz4EtmHcx59n0dy0uRXuZvDG0PXd/EjB8uyUAYOteaflfBZ3Kbk/Za8jzoDYH5vmBzyXnifcUtGEdIdp+ioteSDCXCuAIKYSwLaKYes6QFgA1Xrko4p64hvQeewVbG8NENOJQ3R8ykeDCuPiMtkBmLzq/BGG7pR1yvOQIVbc0wzdHH0LEGMFd1SwFNVcMqfg8p+rZUzSVy7PG/jLe22bdYp7tUV4KY8sAZadQelJ0acKCCLkymaKaUMs15Lh75vuIXOddfcp+jG3Cu+hyBKLi11vkwI6cGXLACksF9mdnnvhZN1kwz4HktphhoKwFNQEC8Zl9BvzGN6rc81Tmo2X2jJvqyjsauXbtNu5dW5zLKJn1eDkOuujUFAGgZgXJgDRIX4yoVueaH8qJK7610/6Mb8LkUSnCpNCYON+VpGVv8t5UEpb7NSSOkXBSKUvMm0xrg7eApl0CP01fb3x76lHbHzx5L8Nb33nvvpTqHnPvRX/X9vjfc5Bxfs48URdWhJcIYM67iMILE+k6asmsSZdh91oproGq2IEc14AJBskjmCPRt1uZm6qBp0MP/gRcXtZ6bX2sgmzSa5GkgvKA2b+917iXvHQg4tujrxossmJwgKu9TzjSQlHqm+36W2vfcQu0MN09XinBKoaBMeHZ978vMfSbHH3Myzr3PnP2OasB1MI2VNlLOjdtHgA2HLlAZ0gjTSkyl9mZzWRE689wV4xjwUH2Ye5/nvJ82lvHA+JyioOgYzTlvel/yuQWIGTl0CANHr4w5/tif7RA3j9PYEvuR831okR1SmmqprzjG+PIMQ5RRCtJKn40BP0QcoPS+avY/qgHHeclW8FkrApPKma3vwYinnJgccC4XzkyxiiDIHGHAt5KCNEcPJccaLIK/KZ9Zco5j7AsgSDnLfXHuIe8RtaDfW3BMCi2DLiXXZOk3VYqlS60uef81FAogJy0YTy9VEDjrKxizH2Nfa8gbhbJQS+MWBSzS6smS08vJ5g7pMCn6dh7cuIKI0oh43z3oMAx4zosR+o4/59+gnrk5+IfWnzQ2GQtrFpOiGANQ4U+BSm1h3JLPWRPEdH2pxZ6HJyGFMn2tGg+aARbM5InUgD/HD601vqQODnGuoyJwMyn+Og1UlDw4akSAhgGXG8r9ig05oyuDIPDgJedO94XeGfBTD8qlz3WI/0NA81QqNFUCQrWpATmErrZwDTUZpaAJBSSOhX6BxHnXssdikbUmQ4Xt4G0Y96XS0ghLNTayvxztOZwyF0uDWm1Qxgk+fOkV4sLto2cY8JLXOIVj2+euW8P5FCo0GRKD/NQ8hjX1MVkepYU87t9EbyxLFexbpZRxt00BD6poag2fPp2gVbeSiHBUBE65XKEYMfcpfOw3qYOyBDQ646rRY4oDgpKCZWaXhTJnDQTrLrjGGlzUMZ2sdRu3WBn62qvgVPYa5Ax5kzoNyBYpLaUXjKV38RL9xPc0AKtNZKDwto39Ug/J8eIacwv66rSy/FFHN+AMr4BFreAAcekCThonDWww2CHIyaWbY8B5Cgx4k3oNmEQNoJoS/fqr5h8p8wF1spUBnv/ky+6pMpoBTsfj2FUYazExAVhphMZaasB52YKcQJ8gZ2kpfSgW2goNenQDLqe1tBHGOkG6zeI3+Djcq8DKHPSn/HafK8Sl977V/9ET+1ikaQl9yWSaW627xH2c+jmkXULSaWHd1HMZn7KWUG19q36KZ+k7EL40ydLFrMJyskvExKae5RDbj27ABSHks9aKBjRj+4O007QjqFn+t999T7eXXFdJM4+hyTwNQGcq6ea0xbw76D9a+wqqN4qsXz8lv9IhTyan4Ciclwcto0zwErBDffZ5alA94x7y4MPxOZ/oVanLW5GjG3CFNjXBDg0gEs2NUrTALTf40gXepRpx5QQ+vGtwztocjse3N5mvAW1moK5FIEaIbk5AfS3Pspb7oM+hYpy+e2SY5XdbPdR4FTPpo2DUdQBsin3SLJW+88a/Qfg8g63I0Q24SjeGt1ZwZoy0ScA6J2lQgzusM0g1lP85B0G7xlZKcGv1vdRxkBkktJZsAKXyMpiaLKcBuf8lqwUy1gAY70z1q7GWInBe2x133NG1lb7DyJcIL8taK1uRoxtwM67GqnVbzfBve9vbulzyOPskNJCgh2i4GRt6Tis1w345nyre+ni5nGPbPpc1wEXmOfGkjilS3gTNSvnaY97zKVwbpZnr8Rr/PFyAjFcu3sRApwjceIbQldxb16iUhkOnyjHfihzdgFOkGXdOdshYY+DIBT1UqWn8WgMOCayRtx179lPYJqB5qCVO+/Qhy0HKGne8yXwN0KdxxvCWFvNY4vXmm2/uMkygbwuhpUtfSOUV4HzmM5/ZAbLSyR+deuiFveZrdfgMqzDgIv9QdI1Y70FkWkk9dJyutyEdjIEwq2u82jfyQPfSmtLz19xzO+ZzGjCx4kpLkdTnzjDvG2MwJ4g+7+qnfzRDLSVP5gh6kieDahSQhKAV2+QKEOeFxdYuN26vXr166Z2Xzg9Fq8JEe1kqo0R40X2eesk51rTvKgy4BjHb1oiEfigbt2W95BRJ4Vrx7DoZGsVkUSOug0NvsrwGjhXQxLcyBGi8JvkaAGKMKVQEepJRRWuoiGYcA28tZc+2HJ4akkZx3nbbbR3gkp3GQKdtI/Ctv1icjvdWEnRGtwJhKarPf/L17bkKA44LrTGscjnxlmFBG6+8Sl84DKFblEjnwrHVLierc+2rRH993eKwd2SSRWMcMqAZgqhzqoAPq6XjXo2+LF0LbEHVDLNUP7THmPcE8eYURZkUtAXOHH0iK6iPVjXWTRL6Cmq0r9x+SFOoE0t3bElWYcAZ2dLlRrluUDte2qyKHuGKp7O9jqfTWdRe0KOWApHhspXXMK2xAyuLFtDkeh9CGJ81pTEe4plLrqEdGFHgSpYXg80DlakjFS83fU/GR+5yvMYqj0hWGq/asWnBDQ8bOkeJoltKigClH859oUuJDg+x7yoMuAetWTSfi2YdcNy3hnYOfHgseDmDlQHHd5YuMh/OZa3lY7wPMVx/658mZOgod7DP0Ycgm4m/LUp2UYsyQVAjUDBqBDDyKYYEZNVMrrjxXO+aAZfy6w8lo8ZD0DIWaN5yDAw5r42hzxVV1If08nLva85+qzHgZnezaqlA4WZqNAmUDDXEglbBfesMUpRq3gvIZeMK1nTg+F7a93ENmIgZ1tpMofGzf2Yr5BhS1XL23/o+OGaLQxlHDBz0612WxiJqxMQ6RxhgqDo3WwTCZwuMZbRnKu7JJOO8JvuUMk33D/+bHPStlFMP20/1czUGXDS5JEMEFRJQAe5MYANVkgYopDXJ84UqBF1qKBTLipbc26l2hjXct8m29GW4JfdtQp9TzFVyrbXuG7JGAB9GG6eNXoBqQzxpyXtHj6aecXp+41bRnTiTscxr7sshB6R4aleuXOnAWLrYVXre8D8boLBoa7IaAy6arHFyhSHGzaFEuGjcPEGK1ECbraEL6zLoIDXrB4uG1yD33Gdp+31OA9A31zgXWX3uyOlvjAgUNhZ0mz7L6e2BGkE9AEmQLUSMogjUSC46rn1yRtkEMSa8W6uS3nnnnd1SsbLKZJqkMS3ek3Hss0RMVn0TQsk51rjvagy4BjS4SnI0cZg4MJ0ShWKAhhSmoGwGnbullB6HXVrxaX/G/1TeJBOe+5Q/DV6ocEnKSrYSThd/eg7C8AVqRIAf0gZ4INFDT2By/XPAmXvWRqowTeAm8pRO8yo05xJctS1nPLMJx6w12Gd/W40B95CQbh/vNaYAnKYWNh/jAAAgAElEQVR0I42OIomj1hpO5gj6w6uYfJbkjbquSQFiaXI4DeBdGR2VfEuJFFKoc6tCZ+I/JijZNWgLVIOsi5KskX3ox70xujkpvMCWceoZUKSpMODaEdXGXth/StiAkoKiqfOtafuqDLhqTDNwiZiJuWdyQqWhxRSJWVzJrcbWGRjj0iAGiqYtclTSIsvsa6KFwOa88DrcCRqNF7WVRfzDc/EuoVsxGoE/YwedGPKj902NhPvI+TSB5mSAiWd5Dt54X8k7rtwYhtYFJnOeUSYNr26LsioDrlGk+5XQFRqRSwhtQ8rp26b9JiAidayUBwuuV1vA6jhdX4l7zqAfuzsD3MS+lRgG46WgRjAWwoa0BX0DNTI3a2RMl3O28Q7QGGMLhhn39pHuC2UvMemiTZ0zN299zjMe49hVGXAKMFuW0CiqtszuAjRKa9M33Bu8OrvfrdGQm5PqXiB4najJsAYYFC9ogAT9+Z7ylsNHj28JC03NCWgq+pB9sFbDNq6Bz2xl/MJbaqBT9BKvEzWyj6yRnHuq2cfYHsvzZ2SNT/SJACaKJDX4xjuPWGICeqiPZonvLRf5x8ec0vfVGXBuUwmNgt/CfYsw40zjBpe0D9FLL9TwAp45PFxoQEigpNIrHHdOnyZGg4Sh1A7QoElzKQkBTd5QqSizNgGna8SXnufQ+4esEfqERMNaI6gSFGGNLg79DH3XM+FAw2MSFrIyYfXRZ9qTR62uQ8HP2AtWTAj2W0v7AxFLA4nVGXCdU0UlNJcjjLSFpnw+61nPurCAvAbEqZnRcaqMd2zgx84PWSrV7VuPYey4c99mwSDtt6QIQJUGNA0UFAOjdwqCPkSNQNYmQFkjAIS+feiskX3qy3PNyQTiTcmm4W3LPhtbxVS64bED1zwE7ABvQiDXBBSKpYDKudXAqzPgOg/3iNHNEbOrIJXZGtpOG5TiFG4YFFwvRQI5gjPVSZqMa8CEiLuEnFAeikGgniXFxCuoVULNaD9Uw9KIZ6nncl/0hrtmqA1q94sWEK+Js6mWuuYazoMOg8JrU0T1M15ZSEoYeib6k3mWk6UydI45v/P+TDCeVVaNdgYi/QGbgIX2tp0HCzDWyCoNuI4N/UIlU2JJUDOtPHB/qSIoysyncssgyV37WQaEPNom4xqQtw81Bv2jUPaRtcNtlk2UI7wASCdnFbyc8y21j6wR9yTGg+sNWSOBGkmL0Ja67trO49n1l31KSX9Z8j5MzBC3yQOtOGXDjB9eQm3x2ioNOIV6qDF+KyjdjIYLM2DxZqlA51CNDiOAkhr4dH//Q/FbenN13zMu+RtuU3xBBtC+jBD0rY1zMoIYCJP6GkR/45XwKnl0+OyQNQJNnqMAaOhOE+0+hMfGCzx0gFff18ZsRyntJfZ3zz33FGdLrdaAc0E08lj6DzeMCwKZoUggbDxiEAvymAhe+tKXdoFMnGiOAYDY+yaDcN72+TkNmOzoXlm2LIN9IisTsDYco0UsS4tnzanQ+9xTLPuNgdJ/GGoo2z3LhNI3t0qNlGoQStVvlhZGFN0mdnBIQSWiRNBhtfSQeJtVT0tK/ldrwCkfkuKejwn0jRZRKm/gxsUaGtNsKJcYgmNgIKExgSJ1gCZ5GmCYoA751nQrL3lfIsAtoGnNjD6RbqftSjKN+s5T+pt+JjsENQIwQNn6LmoEZZJTbFJ6zS3sb+wu/ZIU+p9bO1CjW5N0btxu7PyCmryH3KD9qg24AfnQQw+NBq8EzmSsiOimOeAUpSpNowY07v8xkUHRuO8xDV3cxnDpvILF8uz7Ur8uHjHvP9W0jHTfKnSuvw/+ve+OIemQNWJSgSahL8gbAh/zEvrOd46/KcJTKT00IZfqBOXKIzehHlKAmCWBi8QMgFRNxZSs2oC7eaiOa1IrUBt3jTvLNRlLI9QQc65Ve4+nfJyMAJ4NzllbSdvct/QFqEzQkG+6nPBS9xKyRrjmDDVvz58Jo1Ej9VrmMQv4zaUsjW3GeypoWH+n/UfirgGKMaq3/8jxX9/1rnd1zzNFua3egJtNNXDt68zQKxA4ZC1dJ14rJVahtCRv94kpmHh7+96vARMinUrXMojED/Yt6DCDVQCb+N8gEixcUlAfng0VIiXMBOHz3LJGltRp37kgTvEuyQalAqCZUAW49+39pfcmSOq+c/qdQL/JXnGWOBFbNJXi6LnE78Zk9QbczVOQdYIN1FKBqCFrvNJQcAG60hAGZpMyDYi2y3G1GiQ9H2rRfAHNkKfPu1qKSw1ZI4yJ8wtCKhxB0aFGmuxHAzJy6JrOc5eUlpDgGH0uJ7ts6TvHeeemtgKhjPEdd9zR3TMAMsWZA0cmprEJ4iQMOMWbsbisQ0Z4qHGkEeJnx1w0BgCyalKuAUYNolA4g0bJ4e3Kr3L5CP1AoNDgxT/PGcCMh0lI8AvKxumjg7ZcUHNZo8f/RZtCqLxlC8+hEdJYB8Ag88mYlrGxFH9e+vQ8M4WDUxRHOC9DbF9FPWyRbKmcN0MFajCcJ/08GQPuxnGtNYaWq8PV6hNGh3JbpkCfdqZ/Y7gNJtQJBN5nwHk4EHMuspq+6mf2kG3y5Cc/uZh3D1kjUh9NAtJP9S0emID4oYNguc97LvvxtK1BBF37EyDUv3z6X3uh6w7Nd8f65ymUeOwCrMYJxM5bFPgeQ9bxtYCKIQB6UgZcbq9ZL2fmihUw9F1w86677mqu8ZCCMn5HL+iQ0NAYxcBYqq7tW+M54zK9u5h0ZTHkBJCgHwNGWiqEzRhAeYEaaVkjvSo+6o9Al8wyQWIV1zwiudKlXvjSD8Gr5yWU3If+p9jNsyilL6kSdoxKzT45KQPuAQxWiBkSH0LVfQ+a/oaSuffeeycDCelx7f+LGlBNpy10zilhQK9evdoh9SUMpvY3KQxlFnG3uaAhawTVgtuWJjqHcpl6zrZ92xoAIFE9JcLDg8DF2pTYl1bhQuHiTKmcnAH3AJA4LsnLGkqLNhgc7g83rCYomirw3P+HiELRAYSkgnZM5P4q4NB2c0up+ww4oy21UVyDmypQJPe/FdSMtUrblqsBmS4AZCkAgKDRPkNIeur6VnD01qVUTtKAh4cwC1ImF37KGDDW+G4KlEc8B72H67fPXZehYYVH+dHWXUdP5Ai+/MEHH+xcypz9+/bpM+BSC53XCwFkIAmwKghr0jSwhAZw2VPZI33XYYChaMFL3mcJ/eJ86htkrqRxpJM24B5MlJpCGXLGwyzHVfeglq4UZOPiB9plLYu79zXyKf5Gx9KjZHAEeiL3OVRVyr13bM2E2mfA5f2Lk5isDRaT9QMPPJBF8eTed9vvfDUgmBrqD0q0YIkOnieQw15NAc6+c+vLqN9YTt6Ah4fhOgtICarJLJA0r7Qa7yQDYippPpynfZZrQDCY3n2WGmIuqYkXPz0WBO27q9SAo0qg7zT1TNvj3pcMoPbdT/tt2xqQYfWCF7yg6iH1c6CCbcKHl1K/LipDCvUYy2YMePxQ7fvhNBBWCBQpl9UBJdSI7BBG1nlyJRhw2Sj+uJhDb3JS4s+FbdI0UKsBtJ+/GoG8sQEqvlWGS4eUWVMiaBcegCyYIM2AB020zyoNhHxdPDPXELqoFQFQ6VlcTeflRQ39MfiKbZ70pCd11I3A9NSbgGxvgeva1mnHWdl0CCBMacdSD2E5ECDH2t81kwGKMKZRmgGf0nzbPqkBHQpdpWPOWUxKapV8cijDZADRD/1JDZSJ9GVf9mXdPgaIcuUxaQZ8TDtt25gGxNR4cLXrzMvWMk4YYEhcKqsU11JxnOyqIM2AB020zyoNyE1lbHF7UvdQKjViLW3r3Shpz5VAofiUC94XpQ/nEtiu5S/DOdrn+WpAyX5tASHkLbmCxyhgz6usrSI1gUjICMc3A36+fXKRJxe85ApyL2WhqHAsEcscyGKR3jm0UuTQ+YIBD4U8Ugah7LQy0yL5sl1KJoeha7bfz1MDPMFQ71CqAYtuyYQCdKzjopinlP+Or2n9n3B8M+CxZtr3Yg0ompGmCX3roCWdnFuqM0PvwQiX3EBqwB2LylGdqUaAwZaj7hoxb1hyjbZv0wANABhzMtn0cX0SlYICMW5qRS66fk2aAa/VYjuu04DsD64likIGSe6LZLmUim2GFunJUW+fAXecVewsGgSpPOEJT9hdd9113Toac/j5nPtp+2xTA2Iz0vfm9B8VyMAFCmXqrWBTWoTiBfpJM+BT2mrbRzUAVaBNdChGWfbImEDaApACjiUL+vSdc8iAx/sKFN18883dPcpUsahWmice79++Nw2kGmAwIeg5Yv0TNCMPVR+cUx1sQhHPwYc3Az6nVdqx3ZKaqBO0hU9rzAwJgw114xNro/nxuXMMuP2lHJo0VH66ts6PUmlvX4q12b4PaUABjuyROWJZB8FLRWviRvrkHBGwV7zYDPgcLbZju8IEud+KE6CUoUAhqgQXveQC/NC85WSnJgNBTZWeIUNGsNRkwy02MKcW4GrNfN4aYHBD36nVBAQuwC6YDuR4xdocsbAVQNIM+BwttmO7VdkYQG6dtUcsXZCKxXt04Jry4fRc4X+ZJdD09ddf/3hKVdjW92ldaelX1m4JIiglcwYilwljnebSRYbCudrndjUANcf9puZJldKrwvRpnPS9+KTkvCo7nacZ8BKttX0vaQAtwvhJJeTW1S6XeenEIz/gtRX7iMQrrsgdXPJx3Z9BFIvqTOu4QEa4fJxneytPrKHz/Y6m06/nVvAK8lsz36qEaMSpWNGUxgVCUTLNgE9pqm2f1AAqA00BVUDa+xIruMl4YWjDminSF0tSFxVToHz6kLYMmscee6yjW1AuEE7uOw/39cztvMfVgIKZ0rfv9N0xLxXwADaAj7njxMJsgFMz4H3abr9la8DC9pCwtxvh5WqWyZy6mFRFiAN6FnyMUxVlweAocwWikl44hoCg75CqZbKAzgWMmpyfBhje0uK0Pi2hGC1Dq/ZBFspcOlFxEGqnGfA+bbffsjXgZRoCglKkrIWiUy0pFg9icEXx41XYwjW8BajvTSVhe9+nFC58+NTyslB6nLkCvc8p5ui7l/bbujVg7ZE5C7SFpxNnQc/dfvvtXRGPGM4c0YcF4ZsBn6PFdmyXdcKI60xcw7nR+qBSRRPSt/CP1kkZyjRR2WZpztJKTgPTAli5+bgCUDJWPCfapnZVuvB87fM0NICzFiyfK/qo/sOjW0JQe2opmgFfQptnfA7rbCvtlSbIeKMo5ooUKx1dauIU4nW92jJnQSVlzUOTQ99zyB33vIKnKutw8SieJtvUwKOPPtpV9c59OlQMAw4ILCEyu+67775mwJdQ5jmfA4URViFULFPCR6d6U24MzaNjvF0pdzKQf46zLhWDwCSBGikVLjAu8+GHH+4oHO8EnVNqXXr9tv9hNCDmItV0jXLHHXc0A77Ghjmle8IToyEE+WSDoFFqxDsDoVoTQGnAUE6sYGaNSA8zYdSszex6jLbiJWX63GReiImoyTY0IEA/FvCueUrjRVBzrtxyyy3NgM9V4rkfj4O2jCvDZQEptESJeA8m5M7wo2NqxLX7CohyzyVQ6UUSMgRqhbdgES3egIlImljpOz5rr92Oy9OAOEnp5Grxqbkpf+5O3xI0F4g30ZeOk74nvPHGG5sB71PMvn+DWi2oJOUOx2s2LuFh931/Jef/2Mc+1qX26ZCCjrlrejN4ltSEfhUBSUesFfnnc4NDAqXokCVoEOliPAmZBxDcUrxnrX72fRwqimE0mevPJq7SoPK+79H5FXLx1txvrgAXtd5dfA3rdwM4zuXFJcbKXFGF3IKYc7VYcDze1Ip9UJpZGOp73vOe16FPLrjBLthxSgKheLWZ6jK52jl54Aya1CzFMnPzYekKDcKAl6KrVM+KhDzPUqJ8H7/Ou1B04VlLjMdS97Gv88iEQJuJI9C/1Ez9WaaOdFJppUu071L3b916mUcm2FxZyoADBordABc6Cy9kyL2Pvv2aAe/Tyh5+k6XADdPBdXapSdCKBvUHjUtrE8CTUcEgLsGR7eFRLp0SP8gYM1JTVYu8DAjEM/pcEqWhLeam9qm6cx4VmEuK0n0einMzIl5Dd+ql+mgrxlCOPoNkslJgpT+bSGUSCf4x5vY5thdiyQftisIoeZkCT2oJBK79vcjYhO77EuO7GfAlR+nAuVAM0LZik5xOzAha40DHD2+xHjj1Kn5mlGVjTKEaSAwqM5j34WXgwJXBzxV0jNLpuZNB332YIBg7qYs8LhN5XFXad8zafhNg1pch7qk2d+8maTESyFw/OZZAvsafrKmSyXMpDpzejGtFb7hw9zNXbrrppkahzFXi2PHWPZCriTYZE241DhZigdShGyj16U9/elfGPXbs2reZkKAOz2Mp2SU6bt8z4xQNkCUEUoOWw4tjlzhnfA5GTdaNyjxl2nKNT+ElE8DIQw891MUsSqkg3LjlVJekqGKd5nyHptGWucVbzokzl/c/V6x0qZ151/QwVd+Qc71bb721GfAcRdXso8Gsf20VshwRpYb6uHpmawicIVFCvkQHyrmHpfeRVcIQ4n/3nZEhD3uJkuegg8Dth//38SmYjWrgPaCg5Byj1tYojLfKv6H13nPumbfG84BCDy36nxiTsVRCkaEIa+oE0ufjrQAw0lX11bml9M4vGLpYENOMAjlSEiQkswDKWOJGU2Ws/X8UAeQ9Z9F2bjauFNLhfk6h+DXpxARkkMrCqCmwqXkWBoYRXArhCzqhCXhGhxDcrKAfnfncB4VT+xyCxJD3nPeXhmubtHgd4j2HFBw942mCnKIy3WOgWdA+2mOuAHTGMB1qY7Zyjujn3nQ/24C7MbymgAakBUW4UQaciyhwJ31m3whsjjKWPBbK8MwlDcRIm5XxowIsOpoBIz+ZyOyQ5ZHDOS75LKXn0vHxurwHA3RuVkjJ9VE1DO6S/cykoF/r44cSbW0M8VzCy6KXmpRqn0F65RIoNFwfNeUVfADeocQrzHgQt912W5evP3Rd6azsVkDpPA60x1wRyAbsAFr2UhvPETpExVQbcMEXJdROAqX0DVaGCTLHPWmwkujvnIc75rEmsRqeT5BP+bgZWkaKv4ACPA80jr9ba9BLO6MCGNFc2mjpdpKWGCa9pc5tYmXED81Ru55lbBlyBkXaGXBwaGH4GJylhYfBJiw54Y7dIy9WMPXaa6/tpdqgcv3WpG3NkmDP/LbE8yvywkzIaDEhzE2vNNFD8lUG3GwiUi8anVuAwUUE+Rn9rYqFjXSUmoEmg8LiSFDX6173ul4VyUmtmRx6T7bQj1IkuZmClPjFJQpham/NqnH7oJoEl01OpYG72ueIj+NZhFiIeAgQlDvm4vPUfGfMvHM0fYNRzbn6jtFfljCOfedOf+MRq1MAMFLjiSKy6qXtqdABQzlXeKc8KX++zxXPwP4WG3APy0jJZSwVg5s7tsTyjKXXPsT+kFoN7w1tCUhAASLkd911V5dXm96ziQEKNxmuQdyH1EAdSfD12GIiQdctLfTOeC5RPVd7b+5B+pk8chyybCWxhn0Kj2aJ1Myxe2QclyhqGbuGbehJYzN4t34zMQtS8nStMtknPF72bi6Npf1Mxv6WqH9AP2E2igy4i6NMuCK1QhHcwrUhydrnCcdxd1VY1gidQN7iBlxWxT5DjYxigSKOKTq1+1QGD7WsZTlVg9Nksg8xwKG08Cq3fVwj55zQm/RUVJ1YAyO0REpaem01CCaKfQvKi1737d3I75cVFtoQmDTept6namzyLudSPSZf1IwJA+iZ24+kJPJgigy4GZmbP1dUa8nSkFazBfE8AiTcrRoxO4t0m1EZ8ikel+HUIY4hCiFMICiFnLL5Q96jQcYLGpr85t6LtEgGoCSPeO41x44XFONxQLEAkddsLeGeu6bn1NaHEAZt30U+aCgZUVbwK6Vt7D83rqNPAsBEpt7cBbJMBsBctgGnYDP+XFcidAhBDJkWa817DfeZ84lOYtBqJfDI3FWukSyWIZfONezDizmkiJ7rNPqAjrNvxFTzbPRocpmzquDUdWUPyGVei9fhfvUVyA5i1g95InPuTzD9kF4edIwaXMq2xG3onDKjcPkyo1xHAQwd5Yq4HcRbK7KYjFkBcZ+M99w+Ks3YhJ1lwHFt999//+KuGvcbJ37KooNAfVOr8OGIeRwasA8hii3IVWUoReenzseQTrl/S+mVOy3HGspzn2sWxTy1y9LmPBeEiypbquoz55q5+8icCIE6qFY6ak1Q2dIP+9Rh3/OIMQAGSwmvlkdmPPFq6UO2HENskisZOzJH5lC+xo91UDAYAAD2YW5qKg9J7CzLgDOyZvi5AmE6Dw4dZ2wm8jbzfQdK5t732PEGic43JvK3KdzzMjCokligWZkntsui0OGmMg14REvkp8b3kX6H7NyLAS0N6hSEl4Ab3KcANNpzrWvVMNqMIU8BUtO3GLIc0VeBg0OLQCYDt4TwPsSRYqPr/OwYLwVQKhF9v5R2Sc/v2dA4AB8b0Jfxkh4z9D/q0nN4zkkDztWACJdwb9AmIsE4XkqE6gRjBAn6UOnQA6zpdwOEazQmkLcBDxVoRIHgIAYWQ6AxNIzBxgDFOeBh3/hTIj93cB/5ye5F2pV2gTTXmnse6yN85y7ve2JzLQhKm5Yag3Cfh/g0Zo1fiNOA16+m+Hu6m1p9D+AwXsPfEO9ON+gYXLq+PybOwZOdk82kTfRXMSlpdoFzdl02TMD3uuuu680DH7s3no2xMGccoIqlAYshqlKek5qpuCgkTEwacEbWoNiHuAnGS1phTVriPu6p5JwQKr5ahxkTA0nnMQunKXfQEqQAHTgXNy93tT4pZXNm8r57Rt0oHOFV4NhOTSDIKY9oqWfiLWm3GppiqXvIOQ+Di2fG5ULXuOC+cnIGbyr+4nr240mjA1RoCsqlImAoTsMj0uddGzAYE+exeFSpGIfagGHUJn3xGZMSG6OiuYYeYgenaM2h+0bbmDgBWJ6z8T4nAYDOZYGRUQPOddCgS4lqQnSJGcR3mRsQAq7KDDk1Sy91H0udBw2U0iFD59apdLK+TgzJSCuCejUw/Qyhmvj82mcpt9MkpINDGgbBlAcQ38eavvNo9NkpCmqpe4ZY95F7vtT9peeBiqXPyVyBCKHW0NfQgWiXKQFIGKCwrogCvbhf2y5lL0b7JtWp5SUE9vS/EgGMGFfo2HWHJHhmqJWaOgpZYsZFjdCrid5LiBnfuQFMugxZMaMG3Ay6JD+NOnE+ysRJMVTBLdFxply3GuXt8xiNksMNGyAMYh8yiO8PLWK2hkRyKCVGV4efm8mjXTwLRL9mSiDW1dh3k9qhvAfuNWO45DgZe7altuHxUSqQcfAgGDcFL1NizKL67Ku/ovLivq2/A2cxyufVGe9TgupJ02gZZpx+AHg8VJ6n+5ZOm9P/7WcCMWl5zlJxfeOjRujG2DZZolABv1oKJXhJoc0GDTguCioOs3PNjafHMHY4b5RJui6KGUV5/qkI7lnHzUGq9jU5mX3Hipjw6QxBST6vTqVT1IhOZbKQV+668SCsOd9ajoGKl8xomHouiG5fL4GYuvac7do7IGdGkueSW91pvKpMhUpjpB3uh0cZKld52+F72D70qT8GeiDsw/CifoLRQgHxesYQdzg2fELB6Mlgf8LvuZ+e0T3EvHrusfZDYYkHmMTw9LVAyXPEAdVBA46n4Z4sJRDl1atXO+hvxrz77rsvuTIUFFyDpa67r/OYgHKLmrw+SccRTNLxdOhUcIZekSTNUNAnt3PqFDXIACIJbnTuoE3vea3/GyA1XOqc5xGohh5rB/icay9xLIMLQOQIekrfRx9Cs33GmR5kVUH5JatoQt9xDjpDxy4w7DhuE46/UmDpvLI/2LWpmNWQDoCv1DsY2jf9HW2CdTDZ8xDppkboHIIP0mvAzXRcoNpZIpw8/dToZlczIR4nzaCQXlhjjNLrHOJ/rpjnyBGzt8bHPZpB+1K6uKPcWYMBD55rwJ0bjZKLnsUbdAL3o0NtUTwXl/3QQq8m6lMUhjZ30gNAHnzwwe4xeerW8UkNqsCliRTVAijklvsDerJ7wkSoclIaK69dQLSGv3ajjgWepMXGBrCkrcSIjNEa8fwmSbSS56HvUkEhGeuxXe414FCgi5QKw4+bEp1OI70MDESvg8s+6UPakKoUu8CLl17/UPszrtBWblTac3H7IPAnPelJ3bHpvTLuOqk0y5L8YnqFWKY4X/eMJkGXGKjok62KQQLlBHrgUM+p32oLRuvURAwqJ57juRhZxhDY4s6n3LY+KbBpIpUhIvOjZJG3UIzFYLEHrsNwsh21xhcgle7LcAqw1rxUGIo2ftLJKqetedXAGcrJRABIlQqbGXsnju814NBLTSfkTkHZFIUfjvOjNSoeGJ+lwblFfdFYA++Q/GWpEu2PcijJztHgngkK4IHo1LGoboRSdFCuooBiyboqjhtLJ3QukybdCqRsXUJw9xjUkEkdH15CGxy7PcRxjNfcSd24BTbQRuxEX0ocqoGXrd/leqpBDwBg7A0YP+wHqTGejuPdGydoGDGS2tRowLakDD88k2OMfROQ+0iXtA37jX26b0HjWC4ZcK6LxuxrlPjAvu9mB/mhBg6DlBoVHQT/bYDp5H3GxA3WRIn77mdfv+GPS1x0iJB7feXKlS7lKW0E6JjLqcTW+jA6SUovjT0LyqXPtYNgzPgKJHBuOZktY9c5pW2MB5f1GGKyltrWR5Ud436mrik/OUV2Y8cYx/oVI2iMQ7TBwIbj0CcmM1k6gJvPXIHcofAlReaK/qBNMAy1YqzxpEvFddEobB+PIg3UTp2PzoHG1HO4ZMA9JHqgRiBJhoox6ksJhL7NrgwYA5jejGsy/iaQ2pm25r5Lj5FN4jlyRWfX6BqO64njSwVi42aamVEdIeKe7tf3vwGYthlKhRGj51yqp+/cp/qbYH/EC8sAACAASURBVFWNF7nU8/Kkagb6UtcvOQ89Gbe5YmwCYrhYfcs6STFdBZDo4+I6aFO0Q8nKhlLseOghbTD3vsb2cy7jjxfal0Qwdmy8DU3GkPZl3sT7pd+Na8ZfDMy4LPUA2BD8fSqXDLiE9RqCPT1x/L+HpjSNjPuRwWGGHjJS0EAfRx6f85jfGcWU9xu7H+jD5EW36JE0EAO9QPUySsQOLHxTQqHQr0nPwPGdbg0a1/TbOQoAwV0+ljAYsjrmrJ1/qHtH7ZVkRRi3QBg6AK+bZqHoyyHjA32iT5cCMl5jDU88pjP3wojXZqGEcwNhMcUTfh/7RCnhvt0DvZV4Z+wDffTFuS4ZcFHOvh3Hbi5soxg35i9EkW3TmQ0mho9h0anHOEIdaskUxnB/S3xSpoEprzNH0CcaW9YKHQj6pG9qd07G26CAvkXeSwy44wWh6NXsjmNLeface93SPgCAyfKYgoY08I5F5eQ+O8qyJCMJQhaUN059pseiKG644YbOCxcY1adje5BzX2xFDdc8dG7Xx90bj7VFNOHcxpbgaskzWQ2RDUCRQt8lq3qyDUN9+YIBd2MM7NCN4VD9QXWMRipmWsbKbA5Fx9kUZm0NaxtXwrYhdKhDeOA1islJCl4up2fy4p5yu7ibJqa+fFucN7fMeWWklHQyns3tt9/e/aXZP2vU4SHuiS51eh7JMUVfRif00YXHvK9wbWPQWC0BDAAIwIAqRSemaFJQ1PrbaBZ/YjtQeYmYGNAGS4nnY3skVqRFhDXXEMQ1TnMFJYTZEBspEXZW/xmioC4YcA83ZDi5QCr+uOdmR8gidUUYIYqS6G9W70PRDDnXnhsyNFH43Qw3RLGUKGDpffF+vJQSoXyBSUiMG6Xjx0Jfgr4GBb2acYcmt/i4+Lu83D59x/uc03dGpCT/eJ+6Edg3ZmKeeJ/XKzl3oN8AjVwxxj0PINIXX0EXKEpDY8lUYbxKvXo0w9IUGJsknTB3sbgxfZiQ2ahcT5dtZTfoA/rO1bdJLLUX8X1dMOBmFDNqn5gJGG9pQVwns1jKa2k4F+Qy4cAQ9qkI7OCBuLhjHfr/s3dvO9NcR93AfSV8CBAQtkJCAikHQRyggCAQAgrBlmPH2diOEydxTJAizrko7gMOuBd/+o0oZ7ne1d1r093T87xT0qOZZ6Z79dpW/etftdZYfL2Dnp+19b9ObO3IKEvmzEiOPOUtDQjNkZ9pMrCyAm948hGBLqCWp/yqB0z80gv81TfnvmOMUWdXNLAUkLnXK9a49Ql8lAicnqAbBPkpLfGeEYUpxrR3Jgrads/ANkSNU28R85DutMYZknIzztL9EjoYibX++4ICF6FdguoeglulgCFomQ+lUN5SiuKYSYoq0ww68Dvf+c6NSnH9mgLX0FomS/nM2fcmYa87JUWsFg1eqwtPwoTWd+6t5YDqLzn0XM4RgdoZiKf8qgcoTIbtCmIx8q4yX3zvulmHS173Ut3cQxlpk+SE2v3mMhBGYRqHnrRYz5WRxSPdUxjSlrOLWp8JwKJGW/at0AGMnXRAenFN98XzAZAto39T4Ih9Ijd7iVxXWUoGn+sck3/913/9AsWB48J7GVgoXG5oziThPlBgkLyFtZaXzBj0KspoeMsr+gdHKv1Ox7YK1643Aq0tUI4JZLD1U5bZycXwcmuf8qseYJxxlVcR60G2UOu28jPqDSX3rjNAjNJGg/qDQsuYGF2BXuERUuTe58D9VtvoJIByT4W79cyR7wHZX/7yl8PAa+mZDJ/YRGY58vU3BS5azpoKzq11mIGT34pCYYWzUIbQOYqA9cxBCIhaJFY5W0iEBa4F+/IzR/+P6Djk2hP4QzMxZD1iMuobRstkzznk5eRnmY1Hi4Uu64CLNOHLssrvX8f3MoVyfvy9+8HcMa8zjXavekkooIR7hXEEGFB+tQAtPUGxQajm/BIwXHquID6qsgdcLZV19OcAGm59DZD21IGh91OTtX7N5dwUuHxLKTtrfA7FTnHjZCTuG/QcxMTrQDysrmtLCsW1Mly4+egR7kHOhy4rh1cT/DhqANUHh8eY9GQqMEA8iR6hVKUOuZdLVE5mfQ+pQGW8GBSUa9YMae3ZyuGy9t5XK+ulfGYOUQIlR3uFtkG8vV7cUfXG4/KIe8Rcg8Dlf1Pg5nUWfW6eU2qAW+3YjHxP+T/KwXzuycYq7z/7vZ3Q+qQXeOV64rulGrZuNropcJ0ksLgWQGMNuH+UCwWNEsjb7Sk2kVYTwqDlzkevyJZQQek0W64k652fkRs8+j+lqj6CSz2d7h5uZ4+YyPpXFg/0XaJCz0bLMG6oFda8d5eXujB0ONYrZu709NWe1xpjNNnM7yzuWZ8oi3KzTnh/9xZAqzdOICDvgCrKmSdu41n2/OzCVDaPQ05460FZ0R/KsyZG1kKUcfarrBm0xyjoxDrQjT10002B6yTUgI0kawJFGhAdW1Ni0Cz3kPuEk83KRAaHaCzrQtlnBJ+fbVNK78DnMpb+x13pcOihFlRcuk+denNaucsMEeSiX/xQRhZ9pU6UPP4LJ94jkLcYRo830VP+o17L4I7+4MWRbTbngKCIPx35rLWyzf+tdV+7H9DQt/7++7//+5VLgDP6gG4B1kY25QAkWyDvlQff+QPMhPhfTwYdY4VuRpu0Iu9o5hv/7//9v1tKiwyTpU5maSFHAUwUiDSYWrqh/FBBOtkW0HPOkTTQ+GaNo8S2GskjwNEdIeriT9ZHzyJiYZf6aameEDiPxJ9+hLhLoaxlxEAt2sutzcavvL723iRAby3l1tfueR0+k3dfm6tXaDslyBu7p9FF5wAMPWKOmav6FeVXOxwqwJr1bgxa+NxcBwaOTtlbgJ1a/vpezxHfw/8zjmvUkXWvf8Qe0S9ZX7bU56bANUbQccnaUQ6Qs+wTCBIq5u6XXK6Hca3wYpQQtyxTKJAQ5WTCvPvuu6vb6ZVH0XHDjhCngWkDQ9OTuqezc3bNWv1MQBOdMeKZMIDZqxBAZrXlvUL4kHSPUYnnC6SMum9Rxkt7NW8BiqsKULT3hpWetgJjlHGPUFDiU9aC+cztLz1GmRM+U7ZdmGiWkaCttbmWA91T5/JaKJfhPMI4xHPQZOhmXgRWghED0rAY2AdxL0yGGA3Qu5VtEuXm15sCh4QVtob60B3Qp8FmcXF4ObeT1VVR16h05viUQekbTEGcrWR2DVvbhZQb0/o/KoOF1MHf+MY3uhBarwKHrng3cXyuYEfOb9WP+l+fsNq+H0EsvJqnAv/iLGAI9S0QckWBZikT2Vv3kBEFDsAAGuaqP3Gksn+9pyso95nNZT/84Q8/+/u///tbYgTFR0/t4WECUzK2eMRHC0XO4AFvdJnn6nMAF8U0m3Twxm/8xm98DuPLQag1jOLTeDxPDbVSVmFJoPCS/hCso9QNNuUPhW9ZZVSFibC3QAs6kPvHyq+5OfnZLCZPo0dYfAMnrU0wk7uUBSrXt2IMNU4xX1/7HwLfY4LXyn7Uz4ASRvfKwTAok4HvicXsNR4SEnopFM8GfvC2Am41JMur9/0MPcRD/tM//dPPc81lpdTomp6+oFDt8kQLMwqhr3rKuNK1b/zWb/3WDTG3bAIB/Q04l7Q26AKhMahQeMnpUCyUJZTZ6tLKHqDAtwxLb4eyeuqJMjKYLGGrMEK9gQZlQ1gCPku8mEASBeyHn9FQpUvaUjcG8hnErPcU5MM7vLLwVikoCuZMkfZbAq2WZ/OcUSh0hnzw3h8naHmGawLwWQ/0Dv3Tuy5qz0JZQt+z6LdW9tmfvfE7v/M7NyS6tWNNo/14KSSDBuHeZM5cXjfaQzpMzUVBr0Dga/nfZQcwABT4jBUvyyvfs+R+t487k7n68joWujQg6o9X7RHeCk7QJMTr5yCovpWiaSFQ8II3PV6Buugj963RYD11fknXmts8n6sLz9Z8PFN4fb1UAk5b8JMnac6i7nIqLq+C0XSt7KoRxctzslbwyOJnvVz9Uj/yvO1lqZ3VtHTPVT9/43d/93dvgcItrooig5xtwhFYtOknWzC8LZ6K4sXjcrNKMcg9ythGIJRFDpaWZY68V2+IV0AW+ljbiYnOgJwDdVOwXK8e0XeQvoAVioTCLsX/PBP9xW3szctVFiMEFW3RUuVzX5f3sj1qPzl3tfZz66HOnKV0ZD3NOYkFPWJdWt88Pl5DDYGb75AzzxN4och7xBqVfig+BOUHoAG8rMFRqlAcDpAEMr0+urzxe7/3e7dgQ20QcuMoMxabEq/xdb43IShF6XI1nlyZEC2Fk612fp5BpMCXysnXt/5Pyaknlww6Q+3UNgx5vgGn7FEbEK5jMimEHjEJ3eOZUv0o8RDP0PfqwEjg10cMFh5SX40gnajLS33Vpy0U4RXaj56gGCmYMwT6FmDrEXPM+hUwBz5s3Fvjkn3fq8AZCQg8dnOHF+wwKECy9QdVcrsASPQpL7rG3efrr/7/G3/wB39wm9xbqM8AoUcoPZt4pL2VHLeGsrr4RojW+7CSBsEgGnQDqQMhfspxS0Tow/puXdvyvXaggSISDLVSzmgdijrQCKsPXchioFChiL/6q7/67C//8i+7LTeqSdmeq+9ye/xvN5voPoThub1ZKIxnzm5p6Y/X4RrzlPFlLB9BBAZlzmRP7Yi6S22DaHuE4hbv4jXybN57773Pb6doIVvACM0iAwt12ON5Kwygsot2iRI0lpiAGpD8vDKVN1J6ra9vfetb3e2uFHf3j974wz/8w1tHUaprYmAoIMpIoIVCy7nKOhxC5waiC0IZUpoGlUtkC65ntaJqVrhlK7QBVS+o3qAzImH1Pc9Eg7zRHwZQPRmHv/3bv/0cEUPGFLe2ss4oFvcwWng+StgfrrJHGDJlmHAMl4ldir4QU4C61JlByX1bXl97b9GfzZ/W6nHFz4ynMc+G84p1jToBPPYFrCHbuHbmVfZTr3direG1/UkA4D2Wnp85LF5mreHB0YKu7RFUrFTFNcGL16jctXvQocCq+l05vXStDeV3b/zRH/3RbXJv0QImkg6j5ChEFjgjaO5YKGlKPAcJuD8Gl5JEs7QgIgoctYAf9DzR+ggCKkeuKYTMJaJkWWTIxfPROOpNeXqeSQbZutaZLDZQOBYXV7ckFj/lH6mDJnwtDXDpfp8zKp5rU4OFKWAZog8ode3UXya9+mpvjwjS3XNDSE9d73Et49Z7BMI96hnPNGd4VAJuRwqgYM32CgrDuohjM/L9jAIuPxIaWkBYWQZAImFgS6wTbaCXWoyd9YtJAC4949HlpsDlZa9tJNBJEDTkif/mctUoF0qOMsLp6tCs4KFiSoohoDSDYlnrRMrunXfeuSldFAyrDAUTZXnPpYO+uV0mPqUbr7WyoWruHyME7W6lmJUTQ34ry90jDAyjp98g/zJ4omyGDQViMUDpI/yetjAOT6n3gLlb9nv9qmt9at+FtbkWZJ+tMXoT527NtEqgY/EcXne52c58tq5RJhQ4CkXsx5rrEWnK2VNdup9ekK3W0k90lHoFHbxU5qN8/sYf//Ef3/jBNQVuUCBfW+mhV+9x4DlnFcph2fC8Un5KDo8yR58YbGjTpKG0toSyhLRDicbr1n1b35sgaB5/eUfp2r2QNN68ByEzJvrCpIYWGLlSTHjegx1bJhiXs5cDt1Ag96fUewDX27r/oF7CfT6FGIGYVsqxt5YUq/ncM994uagL6x2gkjIcYl1A5sAV0MIz9NrLgQMjLYkV8Vy0qT+oei04KR7C6EhNPMsj08fSKo2lZ4p1oaN7jGa0M782KXA3UTKyHChnSgYyyNkSLDLFCEFCtSXCpsAFkgQRWFYD33LOAfeuRdHnhq39zwgwWNB7LV997V6DYQKsTZJ8PySF3oAC0S8ClqWYeAwaBQwZ6Mceo6Is7vbe/VTW8dHfQ436fo9Fc3ZfoCaNbwvlOFI3VEVP1ot1z1tEu1Lk2bhY//h785innveLtNQRNUrX9Aovi0FaEgpebEudsQnW3lGCEeDp05s8BDE3sZj4H80L6PYat7K+NwXOGrUkyVPKlC/LCy1mgRxNBijcAOeBZYEoMRbZ+xbR4L0VEwVOUZogFkaPpVdn9/RYbwsPAody9GEtOCMLxoTSP60bnaL/oB7GMVKu4vPn6696gEHkzT3iWTGMDkWZPbdftW7uHS9UjKhVrGvejHVMYdZiL9YYtCurCmVRgrmW5wBuvYH8KJfBsNYiVhafe0XtWr/oTOcg0VN7C6NAcQNlKFHGMc87+oD+oS/pX8zGiNw4cBartjU+F8hiWAQQAZcUNVAKi8sqs8CsHG63FAE6jRIBZpnz/eW18R7d0rPVPe7beo2UR/xcL7IxYU3eVjFYFgkqiKHUD6VYoOojYCXlCs3UQ9FYUDyip6z3AAQEiT+iMEDW6Qgq3WovpdZrHIAFShLKRI3mtUw/SCJAoUDTOeV4rU4UIKWWY2hr9+TvGAz6CJVTCr2kvdYhnbf3sbLKU3dtXqKl1K3sLwoeUJV62bPuteuWRmhit2w1hgwNtL/aQtBZEcCk4EqKhZugQ32vcSZjSw4nBd6LSMsBq72XjcIyUsSQTc/xsMqjiHtyZ1lfiAL14l6USikUOM5PihODoh97uH7XPyK/W/bBGe8tEPGbRxXrBR8+ikyX2g2p9qQSUkBQNbAGzFmjWYAWyp0SBi56Mj60s+al5mds/Y9nRnVC5AEmGUC0KRDZ43VsPcv3Muwcz7GV0Ye61SdYCH1EH9ERxgC90uOt3Dby6CwDsSZBO3CZ8DlQYlYyOgy9Il0uR55VkLsiW4LF9r4lMm1ytHDla3XP3zEs6sBaMia40dyWfE/5v3ziNZ6tvNZ77TS4+H/WGX1TCgXOIMRZKTXjWF6f3zNGa6mQ+frX9X+I0Lx8ZAG0AK4Z3jS3H5pGwbWsx7gXajSf9WkJ1OJ7FKu6muvKbgFrca/7eKx7CUWNPSBAlLVCR0kc6Fn3a/XBEqCQW2IJjNr7779/6zvegPrRQYAkZoISbx2LN37/93//hkK38k0VyHKw/tyQGodN2VLQlBtEGKmGOsl79IuBdS8LvSXuM1lHgiBrZStX1oY/qJflq7VnqQwuXi2Iu3S9+osL4M0ZrjhXpbzepGVMBDi/+93vdtE6OL2WFKryea/jezyjhfLowtiLl+wpXPhWOkHankwTKbi8ako8C8TNCw8l3kNTat8Wis3PW/uf7oq9JAwK+oQiz/TKWhlr31nfDEKPDmE8KPIwINY+HUEYrzKzZ+3Zb3zpS1+63UDxbokKQnsGDAo3kKXIcVaOFEMLpcyv5ipwWygxg6sDfbYmGsgaZcph7Z7W79QNsleHWrBjqxyKH2/dIjwTBlJAB1WS+XMuE89F3/hjzaHyFpHKyTCGi9hyz+t6Dc/JvOtRJlfsK/MFJdeSeNBaf2sXGmwRc1Q/UjQMCSUeiijuDwUu3gPstMaxlKNtPVle8cytV14L3eTHXKxfgHRW1Jfxy2t6rVyU8FtvvXUDtShVRsUaLseTfg0AvFbW7TRCrhCLuiWUBMXMWhiUzMUh7Q2uFL0cVTXp5JFzMTQA0tzKLmEgKPAjsissZvy3v1bkUfaPzpUx0ioULX7MpLH1uBQKBTJHY0EsvI5sHMvry/f602J6ynYPmIO8xBbvb7u0+15hazpqYq/4ECVCqbUIREvxoKMoHmnFWdAqApeCcq4BXloEoHL9UQKJA6GUpfP3Z4UOaN1wFM+yzt3HyOl3YBLFBLCG0Bfqt0U9vfHbv/3bt4AE/nVNWBrWlKLxpxMsiFIoE5bcxKKoIvLsXu6BCinDTkwKcAs1ssIsUSsfVNal5X0cuKN+vULpQwotSJky5hJCKtKGagFH6ICnYRBd12pU9PeT/24fPfMJBfgSxDoyB7fWUUtbzVHxmZzuVruXUuZRAmoUufiOdVCuU1ko1jw9wDBsedvxHMptT/47yo1XY8/woHn/8R//8RUdFte1vIpVWatZD7bci82QK69v1KfmFaJ4GLM1HfPGb/7mb96sQAs3yKqyDAYQYs/UBiWE44Y04zqNUQHoHFowqGiWlsNtWJ+j0CUem5L05/2I8EJaXD1UDSWrf7iSORWMAbEYTF6KHiev/1qE+9Yb9Gwp96Vew+DtnX1wz77SHh7xHtJq3ChqhoNyMW95s7JSrG9rHdq2pnDDsn6AvVYjA+DsxU3X+oT3JftM4gYgmnVY7Z6lz3hzeS0vXZs/j9NH9RdaZ6kcukDfLskbv/7rv36jNQxGeaJYvoGSkQIowKDhjmPMVpV7IjCIY6Kky408ymbhuS5oFmh8KzjJGBylwLl9Os1k6wk+lP1iYkbgofw8v5fzaZel5H6uU+1gH5/hE3kFrVk37unJhsn1eh3/hwh7qK+r9xGPzRpBvc0KRWF9b4m1DDSY+wCEdSSGEzw3RKlOAnVASaZal8qX6857B3SOEmvWOgOUoF9twT6gM3qEYWLwRkUszHMjfXiJ1qNj6colz+j2q/QsJ951bfs2SwEVQtJeWbCswAX1IAJWGa9eKnBKTEW4fdwYpwFu/So9Zb9F7Yx2oA7RZhNwrd1r5aOMlLElEIsJw/LzXDKvBa1op7Lk+XrfUicLpXcDxlZdX/r3DPfMwrti//ACbZAzH2fEeuRVbnmkFCwvxvoE5hhF94SSMd8lBvA6/dEHW2Wqt/LEpI4UawtnLegIBdNZNvTQWz0ijlUmafTc61r9ARDLNkErr/UPSmkpyeSmwFlIHbd1Ch4E6aEazbLmXUPQLHeA8pbTmC0pxKgy/lo2z3hWC8Lt7by4Hn9ncs2ICb9FBzF0EdRl/HCGpfgM8ohzE5Qpc2VLeDStXPlWWa/L9wAIQ5nn5qO33/zijS0hudb2USi9aHStbP1svq8pqLgfauedHym8BPqJscDjQ9LAKQEsfbfGRLgOCJ1lBsQAeTxiBcoC7pYALV3Am6klc7zxa7/2azckza3YSotjBSBED68pDnySxuFtWLr8QBPDvSrLfdki/1nKI3fOmVQtE2ttQpkE+m5W8H5QDc9miQ8rnwFJzk6isrzX5T10CIG3xC4erU+sT2tvJCgfbaVQlHG24NEBl1owb8+68BJ4w5Si11J4vTj4rcwe3Hct86Ysa+u9vPEAaWjnH/zgB6s0GGq1dhzyTYFDJZAuxLsmlDauTQCjlnbIpeCOcE8g+rxIoHaf4yApq63BgiiuHqDTd4waFD0qEICFw+jJUMGXl2cl1Mo10Z7Hx9Z6ZvszRrI1rW27tOtcYc7Y1FVb6K21BGjQAxTqmUKf4IPPEJ6uXZNQeBbo29/SOSlSn9GuswKkqQejS/f6k1K4JIxKLd51U+DcLkiXJVgSyhZ6hqJBf7xXFo2GCilnij5HeCFvCtx1WxMEikAr1Lbp5ufe+/8l69hTL4vPJNY/JlC4dbUyBDlxnltKvnbv87PPbmlbR1Jz9+xjqbsUcG23b2u9bNRrCWa2lrd1HeQrHa8l7rNVVsv3KGNe81pmTMSscnkyfno27eT743/AVBoh/jvSWrfWsz0xedPhTYEbdDwu670klAqljCKhgPHYZeK5+3DckKGAAI6bu1oKxIgW4T68+eabqxQK9K7CWyi9LP9e700IZxtEEKe3HoHAeTYWH2SwNphQ+gzK6q3fS7veomF0X6rIqgJ+Yh9GbztRnxIOMgDrLaf1ekgUuDtDcPJ4cMrb6xLd5HPXApqR1mh969egPmbqK+sPYJaEwFi2BKCBZl56KTcFjjynbCmPNV5ao7ifOlwgKKe7MQKUu4OuTIAyS4UiVmHBFihehRmFJeFiKOcRRJ/9+Z//+bBSpcBNEm3mCVEwS33DSEIrs9z9I/TrUXW0cPGYL1lkfwBkowBIMO8MI2cDkQAdKvIMsa6kEopdtXhhvALK1pzBe6+B3J76U8SoGGsZNdISOFYXOroExjcFHopYVkPmraNSlDcEjSIRBKLAM72hHLnb0DdlVLpE7ofMIUdIniFYs2Q691FS5Chw8QP9N5oFwNtAi+gbSnwJges3RvIp4z0ASVk05fwcL+2ad1pvEgUo4hGBPs3HrQyrkbLLe4A66bBnijVms2GmI5bqQM8BTJSuzLU9BJNhfFA5kLXxahEGJDLaXP8FBY7eUHBNoEQuFUvpb2Ty6wRlsCACf2tuAy6YEXgEoRAoXEbHhoYRsVB4NgK8S/mlFDvkuMaPjzz7dbtH/zGEW2mzj94v1ihDNRqwpawAi6PE+qcHMhV71POiXM8rlWB8vvZqfc/QUrls4BRtROcyYlsxwbg/svji/y8ocMHJmW25ODdRWm6+3M9Mx8i0EAAwMSD5cqNPVCheWf+zOLh45ugrDivyydW7d8GwviLQsnQoltpZ63hJkXOu3FPmewBAMB9fulCS5uSSZ73Vfgp8j6Bdfg6FSHn3KtJczln/68c4U3yPZ2o7ZWy9RzCzpVx0N6McIO4LChzym7G4lDaa5OOPP75lomRei5Wxc0u2xRr6MdnwTlHJlobd8xrtiXRHNBL+fykpv1ZPPCX0rk9w4ZB2KfqBwWNg9xRGwXEGgrDiFdng7vmsq5WFI34Uim6271AGNujkjXct5aIPHI2x5i23lJOvEYh/pP6nbPesL9CHPqEPed09AWcKPOKLX1DgQW30FFYODAWAjMcvGfhywkCZFB0KAJIUIFnii2c9gbJOR7+nXPGFJYdlwVDiPYFGFAqXykSRjVJ6Jz6nwPcQYyJIagEpk1togdpEAWFw5/w4xFIQdY86XKEMsRp98LoIV310w5k1/dOf/rT5iOOtPmU8IdBHmmMO+5tJzcx9Ik6oH/QtT3Ap5pXv8z/dGZuQvqDAfamikTZTu3ntM4uCAqAYTJbysCrKjKIQsIAGBPxQLTXBI9eS7GvX3vszSLtmmSXoC/aWRmytroymfpOGSalCxQQyF63egye005ZnIxBiAniGctWR8eUBMCC8MH97o661735FDwAAIABJREFU9p/9nbYzlK+LSJszj0ZpI3s7rNmZDWv6Gn1Kebeed3+F8WForMmRuN9S/SFvZ7FYb/QmENgqxiIyhF5R4L4cRSZ2alLQ4D0Lk62KoKSIK8W2pKApE531KPw3C7p0FC8lLu0n3J2lAYLioWKpTf70DYXKzbLoRvPL43nuF0GnsFq2APMm1EfdW86GiOc80itvs/XMmUdq11pd7eajPEczS3Dhzjra2mq+VAdzCR+/ln22dO89Pwc0gavSy56tD52AaXBsgV9C6vFGxBlx5+QVBY5/pkBHKkuRQZBQOASeuVwIkFLizgn6lfmM0SF7bVWN8o5+ZTmXqCDPZmFRRoxXK6ePPmHk9GcPDVNrK6Rj0QpO9+YEQ1soL4i9Nla15z3SZxZP7IJ7pHrP1FUqMEO+tgtxrXxZak4StX4zQFu6j3eprz03px4v3XOlz2MD4p51ErylwMUMecU96J5O4A0Bea8ocJVU4Ij7jIyX20hhoUmgyVI8mOuAa4W0a0YCT37WmQhl3UbfQ+Bb7iBqQuBBu7lLtcWjPyAbfDeqaclD6amnSQFFz2YRqBOL34MSeup5r2vtJg4u8V51uMdzKQ1AalRQoxAp4w6kmWcZnAALaCqpseJB+N7aeh+tw5n38aS3zonqrY/1HrQJA9GbXUafoG+rCpyrQ5H2ivQ56NqCx91mReV73KqdVyy5RpRCQVA4axkq5fVXeP/pp58ucvll/UxotARkjRbRTxYRLssf5c6lN1G2DEJZ7tJ7fasveQB7iPre45S6Peq+VAY6L7hE16DtjJGYBo/FPIaSzMde72XpmVf4HJCyEU/7R4UyBl4YdoAP7Rrz2SuvDUrUl2VAfvR597wP/TgaF1yqN6VNxzJs3/72t7v3vJifkg2qCpyFhQKzVV2qTOvnBpzFprw1ILvlUL/J8EjCBe+hOfQpmkof8FAcHCTugDrK/THTD2gsE28vsWBZfQrtpYg+lw8O/QicM3j6jBEFQPxBq1x/RpdXtOcY3bMfpfSiSvPZ9CN1QpHYx0AZ6TuGwbrYI/A+Up+97wG6Yrd6S9nWuLiTPyC25rnqM8AA/ar83nx4ukO2W1WBqySkzN3fU/DjghgUFgWeETirshdi3LPeS2UZoB7uaqmcvT8X6adwtjhK/V8GWCHQtXt4Bs5u6HX39m7fXuUxpP/yL/9yAyuolKWxpLQFf8UkAIzRIN5e9d6rnMhKWmr3Xs955HJ4XsBs0B0tbWG4ADNMBsq4tjEPWNX/QC2d1+ulyCbi3SwqcGgDj72nmPgQjQdDP6UIbohwrwUEy+uv8F7HoxauJCy+fmzJNGBISzfaexTCmvCgHs1LqrUHP6uf0CQ9ixMN+Mknn7wYTwRHzQt5VH66NrZ7fkYf8VR62AjX8sojRRc1KuBYCuqV1/fhhx/eMvYymC2vrb13jov7FxW4Aj0EStlLWBsuOL6X21C6o1yCR+NYtcfflYQXw/q3CJQuRYr7y4XjcUV60tr9tv4+MpUCSJjbPJUR4bXI7EGxPLpYgzwLqWxPebUH7LCmr1oFgDKvACEsA8+uBElRjiAwBTwSa1QGSocOXVTgLgL/Z6LVUVmvrJKTCCFvSq/cUIAjekTX/GqoBadGsazRIOWY4NCMsZRPKMxkatlthr+TWZCD1GXZV31vr4IsqdaT6JbaAbWLCeRMq6Xrr/w59928me2TK7dxtG5ADUXbKuaFbDzHiQA5YlEUbRYxCIp9dA2hM3kGqwqc+2Cy5zNNcmVa/8edok9YeylI3Fgip5RFeiSBXAysTQmtJ4kd3T5IoSf9EL8XPzBN+fd4W5S+c5UfSbix6I8tmqi1Tc6ScWzEo5yaudYuPyaMGnuUDXRrbdnzOygazdYj6Eu8uWSQ//mf/7nF/fbOYgqGZFWBq/RszmjZcMESSE8wk/uucQT6XjpCtbz/Su9NdKlTeHBBCgHNe4q+ZJF7xNgynHbPaodfcmmVCGg+UgCMwZXTu6cwfBbro+0urPWBDBLpf7Wsidr1r8NnwCYvtVekHWIvIPA4qVQZvPYSEJs3AMAIEv/Rj360jsA9kGLyE2h7RN4hHwtIh1AaaBWTpoV37e3AM67nLlHiJv29uXDKSVCyR6BvtAnFLxjr/x5x/aNQCOgiXt8R4gc2pBo+ulAu4huPtJHu6D6np+ioVkHR2ThnFzOdQNeV61If815dY+2JozhGOgc5W57nl+w3EbiCVOCICcpl59L2ptC0NO7oa5z1QilAYIxcbx7nnvVj0Snh3rxb/J5xRb1AC0FptdZNIIXb3ROhby17z+v0Dy/vSKpLH5oPjy5oU1kT95zPV+pDNKH89lahiBlA6dL6Uapg3pgnCI4nByjEBSUSjKyh73znO20KXOUFbGa3ZOdOsBvsURBcrjvULaWO8rYj6p7CivdGs+WhUjj+IlI+ctIcCuZI7wPXNxss5sbKyT1SGDNUyogrfGS9Rso2N2xqKk8THSnnJdyD/+7N0KGMpUVL2LC+lnZxoqp8h8ocSZ+2g7MJgRsIXA0qZY+dW8oTzHy0wGU5IWViGCg0gqMBen7AoSxnj/dQdO+44MxlkohH2BXqvXTCXkEfiGscJbj5+LGMkWdAN9B3z27Zkee4hxEd4UtHn3fkfcAar6I3P/nIOt2jbJ4piqNHJDhQzNC39bEEfFHKkLg5LiDeK2+//Xa7Alc4xIk4nz1RTMP2KKe3wXtdL6KM/uGac5dQTHtlNvTWUcSbdzQi8u7xe9w+HPoI9+leaK1nM0xrXWUtMSy93HxZPk53aQGV17W+Z7SXlBpXWX1HPJnW5595nfgOBfM6y4gCpx+kZPLMpeX6MYwagHCqo+t4bSOB424FbiBxNnJGRyyG+2U6SL1q2Sl41Ymj0+V2GhzKWwoWBQ6Vny120gm0jIiJQzlC0BT5qBLu+U2/nnpyP/UxDnIkToICMFeXFG5LXSD4GFf9Jbd3LW2Qy90T9Gqpw72u0V7ZYoDb6yojFIp9GOgTmXXoKMxFjk/ZByNF28Y7bMRINlcXhVIOoAXl4SZ3j+BaKe9HP0tDpJlikSOKX5XBYYv1Hpk6Pf3pWoGQSMfsvRfv5jS+jz766Hbs56ii4yYecaSASY0awi/XEMxWe0X7Z5WpuQ6FMdDiNbzHtYwBnhmPZLQvt9p09vfWqoDcIwOumT7jgfQEMT3LXOX1AbvmTM3gCxLjvil534/EebqCmLkT5DbabaSiW5M1cqadPWExPrpYwFxpbYdecfllqtBZ7aMs8N+jmwScdcP6o2AoYO9HBEKVjbI1D3rLVq5I/kigW3BZZk6Zc9v7fNfrW5ujzHVcZYshQU2VO41Hnnule7Tf4XajHtqV2tJbl940QuWHAjdfKH9eblbQPJtA34BGPhuqpZ7NaYRLhQncCXRYvBYZBEq5Wch4QHSJwI4gEuWw9wJfqtfRn6MMtJWCgX61fZSHnqkr13YmgIjzNkHRDDYjzWTTMCQ8kz1FcNXk5+X0Kg8KVIB2L0EnQE36i1u8JrJy9j4Ibu15Z3yHSijPTj/jmVd4BiXcG5imrMVDeLj+pEpnr8265T3LXBpN22zayNPSic7+5WZCohQZpe4wd6l2Jnx5ZGlLeVe+hnWlULj3FCjDZGLfgyf0XPTFqDBAaCCKHL2VUUJPudzB3mj9VvkUJgQtC6U3zcrmsD1ymXmMFjB3WE6wg8K2dl0CKub/S0rDY0ApnHJX4db4vYTveR+MV4/QERS/OSMFUbwsn0+EkrN+6Q/P6PWiZbo4kK05jbClAQYZXeLPgvOQlyaixeFGozBwZBZ1DlKc0W7GcoaS4j1w8aBVCs+kGxUGzM/p7SWC5EAB6sJEL703kx1FAtV4b0zKKL4sKfRJRj0jdfNcCtvzGDt7F1qEka+dQtdy71WvMdd4azNpnVdt21K9eFOycVrFvBVwN/dsHAOMallQ5hRwiz4Z6U9zXKxlVwXe2shHvk7wMhYmy8p6Oh4ABXGmcNHwaBTLHiIHHGIYFUEuHtgMii+fTVny4KQ3+tEFmT4hFgh6hNHhfr733ntfOELXvT2LLsqtvfIeZcOgcxgUxqRF/ADEI+9zWGoj5IgyfSmpkkvtjM+BnJ6jPuxmRo9Qzug/Xqld21lQjoAT5Y2xqF2T7yn/9xz656nAy15peA+xxnnbOh7vK63w6J1+uWriCxTcjMicoegoPO2a4bAhYZNyi15orS/Fyf2EZPVzmbbKHfUchvQb3/jGZ3/xF3/xBV462tT6rKXrKCljC0H5k0LYSouoL+OSt1EvPeuRPkcpHZF1dMU+QOHx5npEdh5kbR6aNzWELSgc2WPASLxvfQ6AwFA8FXhrj/3fdRZ1uOYsKGVukKA0sYCzRNZLLzeX6yYQS+lClgxCUEP5utb/Ic7eHaFLZePn9SlXEc8fHDjaSmCcAqckbYZggEIodwtudrOZ8qR4oamkvuIqf/zjH99c4njW1qtslKVt1Fv3Xvl7xlqQtneL+ZXbtFQ3NLBA48jacA+dUDtqwvw0x4l+NK97hCckJvNU4B29hg9FmYQCtzgpLbyoH8OlBM8SgxdUzugzURFyUKFcaLF3EuXnMij6Zw+RpimHm/JE7UAoYiwO4IqMJvxi9kIcLgbd7CWCs9AUUY8eqsz16voShYckUAsJvnSxvnsPetvqEwF24A8Qe//992/7C7buKb+X+QY4PhV42Ssb71lMii5S2igPnCjFRbGcKdyu2cUjDZT1l4WCQpnNmWZQGJY9RCBcefJjcYmCZzmbCeUTyDyeKRDbUwcIS3AuAqNRTryqh/E1zgxdz7n14gIyN16qmPOUeB6Dl9ZeVAi6cU9Bq0DmAIc069pmn7XnmYviQk8FvtZL6TuKu9xFaoca9x5PeuRRpakat3/RBOGC1b5v+QyqNRFQKE40nOVrLWi/r7iHmNjoEYbFYWECNi1ZTTyhnt+6pJgZZUhIH2QOn7cFgUufM85lNsxWO80X47RXoHnreff4HooEJnKa3D3qctQzcf4R99rrGfQFuhEIGaFQUJ885qcC7xgRblRJMwT9YIFvbe7oeMzmpRQZ4xFUzuYNCxeYBLGDFMqddfehCpkxM6IMig+6oLjREDwdQbOt8yKkEqK0elIrBUgtUNSINMjoj2iD72zc8p2FhlLpEeWeGRvpqdse11LcuP69FdweddurDLSgXZN7Ck8Ospcma673cOxABM/H+n8q8I5Ryb96I/XHZ5TLmWdF4K655tz+GZE6iEcm0GdvKlN+NooDX9iClMt7I/WQS+k0vzhThjIVLBPMxIlviQCz3NgyJ3zrHlyiDREoGoo6HwssQErJ//CHP7wZkh4O3LMFXGWvvGRBvVEoZ9OIZ/Wp+Wgexjzd47mCmNYckKL/etYMFsCcJE8F3jEagpYlD0tZ4KEpmujQjuKGL0V97EFVMACMgckjIDIbFJUVIoDYkwFCYVKc2uT+oHFsDLJo/L3zzjs3+mKrw0zs1o02URajJaKP44SE8kLSPzhwAVULrjdOQHlT4i9dIMpw619aW3kZ1vqeue/mN/oO/eRE0Z6y0baoT/JU4I2zDaqjXEorLA8Tf8y9Ykl7uNfGx1Yvo2g8e1aUw4MQ9Pvggw8+z7YYLZfyw1VnFFsrT3BS8IsCFUTNLiSPxmYIyl3ftvD90DJl2yMoG+OHb0fXZFqKYpLjry5e9VmPMPAohpcqYhXiFOiAb37zm585Ic8cQMnZ/NSjmK7cRwDabNJA2T6en7XHA/YeeGkVfcsrJU8F3thr0J2JWbryAhBcah1K4bQomcbHrV4m/3wPTg6XZuJA4qw6jndWcNBBgeSyItAFbUM0a3EDRxNAvJCGCV72ey43/sfh9x4HoA4UP54aj5sRtudT3HYfQuHmQI8Iisol76F1esq/17XWg7kvAMzDQJ/Y5CRGxDhHiidqRb9mw3iveo8+1xyElPcSB8fxLpUrtlYCw61nmE8Ri3sq8K3e+r/vTUoIrRQWlGXm4ufvyuv2fo+y6UWauQ7OtRaQ40FQfBbjkuLN9679b1LWUu2gcvSGowjCcKyVExwhCkImB6S8JZBu76FiFD7qyIJiMGJhxLNQS7wAf5Q5tNkjFLeNII+uwKLN2sOQaROjHym18X1+lW1hnVD0DPejCgPfs6V+q50MICOHcuw5EgOlB0wEoHkq8K2e/r/vTdxAkHGLQCLFzXWEws8SSqc3GyLXTX4zaoIhsPW3zEjJ1/b8T4FLtyNQBbczUBkk5ljWFuEZoKRQFjJuWtxXC6w34wP6kXr44Ycf3uIAmcoR6JUFo0248i2FVWubvm2hlWr3XukzbWeEjXGPy68NELqdrHtt9Dq7X9CDvImcZjpaD/3BAJpTgENrfzpbpdQ1TwXeOALcaHxfKWgTSBb1EMG38vuj3lOEsyl/6obXZQigAZx6TqEbqT+PJLIRoNrRX3OhSBlHwdqW2AIDS7H0pBBqHwNhDCly/ZppMBy9w8ooHgh8xPMRqJrN8BkZiz3v4UEALNIqRwXFYj7sMc9G6zBzHw+Pwt1D7No2n9AhkHgrMOApm68hL0qB43LRAFCTjRc6W7L8Hke9cnXyQUYWvc6UmdLruscAjLwK+s0spHgmj8JiQqNQUJTgrFDgb7311k0xcvNGqQNctPTMCBJvZbbYLGOMencFSl1EoVhA+PC8UUefUOoMtL7qzXLRnxaqOfmoYhy1G4iZFePI89tLEc7Wp+d+a50x3kPQjOg4IMV6bvFMoXSxo1KfvQgFbrHrBNYMCuPyxh+FgjOCnCjcURFND96pLMMGD67VWkCuvH6P93spcME72RcoGVzzHm6+hQ7NZ7qpt90WC97UgpejvZVLTXFDiK1IJuqDdsFB8kQE4zJ/b84INFHysnVG0KMz4yNrIJ77SK/Wzh5pq9FmlJ0NLL3eUtx/r1c6QDwmB7pH6gM4oOWsOenJWwDFMyB18YRSHlqB41jRF84SsPgEGjPi44qjOig97puFWlqwsjOW3uvk4HXzNQ6lsbBnFVYud+1/QaQ9KBR8nn7zh0rI6HOtDkvflRTK0jUtnwvWKAsCp2RN3OwBleXwgijimpEtr8vv8d8yevDUjL9FUgoPjvGgyM0h9eoV9+E5H1F4lvpm7/kt756B7l2L9+5D6ZIjRjzXWyaZwDiw06qTZEDlnz18WAXOpeUy44Ry5kDurPjfPQIAEB2l3ioUpoWeRSBQdgRF2JIlke8f/Z/rBdXNCgQUvzv5b//2b119svRsSlCmyR7CODLIvBuobU0oWB5Yr/BCGAdKnLHIsQwAgHHDf4oZjLjQxmsPg9vbttnrIU67VHPsZ7bcuN+aAh4eScQyRmi03MaPPvroc2/P2it57Xyt/61VTEJON3xIBY6TlMY0mpeJ73VMaXaXax3nMwaiRi9w201A3GBLoG2p/N7PpbbNTnyI1Vku0CVEgSLYI8JOge8VsGNcLHIc8pZ3QMGb4K0CqWszd5jy1xeQUHaPubbcXb8AbufcSCoZL3Ek+NnalqOu0/fAy1GC7uIVC6I/kvBIZilTcw8CB8Sg8K0DzwDPmhf3cAqc0qS8IacZobxZvq3cVAvdM5dccwMgsJCzF2bqtnWvtlMmM8KFxd3zYhigX/ziF90peLXn28iz14Lk4VgsLZtzoMQeBa7ujC40JYVQBkp5TEK0jVHj7qISLDpovFcY3Nnx6n3m7PWx2SofLTBbbr5f3/ZujsplnP2/BIkRQ17W0yZAHh39AX2vJRDQP84Iqh3m9lAKHAqjvPfYMagzufqCKWu8JheecsvcegyGBb7Ej8c1e7+iFnBxs0LZRl8qbzbLwCRUJkS7h+BHGQPjs8XBjihwRtmikDsO7VO0ees3lGgzikVE2aBZeoXi32PnbO9zZ643jmd5lagvXs6jiHmDhp0BKu7nWYrb+Fv75Sae4dIZ9w+lwLmhey8EifFrCIDiDiV3lQnGfRvhYnP98fZS9VBRs1k6ytZX+hJy3kMgHbEKGx5q6Lh8xogCdz+kCV37QxfkuktL1Uc4bOCBR9ArFLjF+ihifvHOzhLKWwbRIwkaVpB9VKRSQuDKkDG3ZMAAxCX07dkPo8AtMC7ymqsx2pmCWEt8Omu7RJ+MPm/2PogQQprtC+2iJHFwSxOop66UH0qmN5Vv6Rk8GxwpBbolFG0vhaJMsQ1ZIp988sktUFrLitAefQWpL82TtfqJM5S759auvcJ3uFnz4kyBwltjUmfWa+1ZjPnouoG4bRATe+H9La1la3PtmI6HUOCS3KUK7nFWR21AJMizcrVMB6hMB19J9AeEVFM2PfXE+1KOJhFOb3azCV5vTyRlUtuw1LI93rNHslAocAvJed9QfO7ToKtkO/nhjpEALQ5/j6yhnrEdvRZdJdc5HykwWl7rfbysnOPceu+9rmNwAIytAPto/aQMGos1+vAhFLiFc/QCwPdBtVlQC7E1PH93z/9NnJbk/7U6ct9wa6gPbafIZoSiXaOjRspmrFp+uIIixiX2imAuegTPyFjjuktBfXB1cZZSuVrqUt7vPUOpjEcQBnOPXb7GLeIJDPHWXJWFoY/PTAbYYzx4ViPelT4BFij/mgGwJlF2W4Dh8gpcCh90vJdbvjZoXCILupQrUijqR1HO5p5bYBA45MNArln6sk+W3suOuRfXiyuE/nuzJiyeQN2Qcs5hl3Wir2fSACnEq8VRamNorvPs9tghCQzYBEWUi3ra2q8hU0dM6pGEIkbd8SB6RIqmvQXSbu1y5f2VwiOupQ2W13h/eQWOA2pJI8sNG/nf4i15VBkKMhOuKLIhZs+TMOkoXJPI4sm7vHrbLYvlXguQMcK/B+prrTujIzAOfX/729+upqcKoM4ACAjtrIyO1nbXroP29vCgeCkytwjPA0Vpnm0dh2An9R6bZGptO/IzWVdOWuzh8HnQNnhZexISyrXMK26lIi+twFls3HcgpCMHIcrWcXhPIohmu+8VRWBjdnefxWISaSOaagZl6iPR9FkjMNrXkDQaaG27fa1srqp5hjrRfvGAvQUIGckf37seW+WZA+bDlkDUDJp1yWvLuwPdLy2VwqaggA1GbAuB854AqL3SULfasef3MnfsK2lNLdQnULg5x7jFBjKoWyynVeddWoHbbQgZnSmUt0lHdOJVOTn1lC0wI7hZEwn6NokyfdBbNgqqtmO1t5zR63H6WxuzctnoAn2g/dBiRtqUk5QxcxFap7x6hWE5KgDfW5e169EnLeOnjyhnAALgqWUJCYaiTRhUSq11HVH0W0h9rQ33/M6Z9XZ42y+wJXSLuQdAhCFk9MRxxA9a5bIKXMNEYHNQqbVhM9dBAdCCrJSt4MvMc2bujVTCkaBaPBdvHEqPQRhRTmVZe6YQRrk9r2v5tEvliK9QzOgyO2rzmRROIlSu85vFCUYCvYJzV51H0S84WB5ZDU3HNfFKwQSC1D+1QBulbm7J4IIqW5WStDwZP48q4lLoEci6tnOy1i59T3E72bQVeUc5l1XgFtUswtRI/KVFSUFxjymtLUFPWKj4wAjEbN1zj+9RH63Ipla/WGRetTefxFe7Z+kz1MmeR44uPWftcyi6tw3u4YHgqAGGjJShwdihCon3ZkPJrmAYeoOra+084jvtbKXQcNqUrMwdx+Rm1M4IUN76Ck3Ao23Nl47+OjuNcc8+pYT1jSwSc4dSz+1h0NFqlDaFb5/LiFxWgZsAOSNkpIEml8Oa/Fq2RZoVHqSvM1lLr7hU6NtitmCzSz1Sh6PusYhmUhy5uJSXXWEi4jjQUYHE9kg/G32++2R69CJkpw+qu76o/Wyb79F4FiElt8Xj5vozCOby1UUmUus+AGuGYqLw33vvvVv6X24fOsoa4s0ykvmUx3x9+b8MjJbc//KeK77nJVPk0DUjhkrj5ZgPvFV/DODWQVZrbbukAkebGPzZtDYNN3Ggw+9973u3SZHdGpZP1NeEE8DRwc5H0eGCmK7f2sa91sFHfkehzJxKqH0RSDHRepVT2TaTsqYAy2uOfm+cGaIe0QcUtH4QMM8BNEaJofzpT3968wh7vULZBXsf/9DTvpZrUWfWWw9dCVyhUYLnzs/hQYuxMI6ynXqoPmW696UIRM6QA1t2YKLjxAakIM7KJRW4syMgQ6KhFiaLrPERrY2Gc9f8mYQ1/k7HUXKCIxR1znGFsKWecQuJa7785S/fJjSlhP9sRSZRp7NeBYdY8VGBpGx/595J/xtN1zRBBcBaec7R+m7dF7sIt64rvzfXIL7gcrOigR5RAQw7I9d7Bg2kChxcWawxKLFVofBirSlZF4KYFG4W8SNrlkFEEfQEyIGqPQ5ry3V6if9fUoFDOcEJyQ01WSBiKCijPAjHwqKgcdeUUikQluwIyh8HnimU8lrvKTJuoSNGv/rVrw7tssplHvU/ZcNF5aqNCA6O6wxlfvDBB8NoXnyBobu3MCRSsHoChlxY8w31QplnrppyQy3xdlA0W/Mn9wFFFHM5f3eV/9WvlkmyVD/KWHwIyDJ/BIJzAJw3R4GbmxR9D9WnzxnMPTzwpTa8lM8vp8AtQkopELFDdQTrLK7aJg0IWpTbPe7NKMIEszghBSgLoioFunaYEfRJeZs4EBcl/qUvfWlYOZbPOPI91x9XPyI8luDf9DMlNSIU3NqBOyNljt4DIffkXAMAlCwP4p/+6Z9e8dDMKeBAueZO9gDX6kkBQbYU0pWFl9BDWWgXpY9y5L3UUjcZRgFlVIq51RtLQulkuvPKfXivul1OgUPcyP4QfBElhdu02ylvH4cGTCIIUv5lRuAmEAMAUVtMeUszoxBnQaMkTBrIlkIS3Ls6eoJsRoNk4b3gMhm52mFeMQ5Lr4yAxXYVJSU3maFuFUABjWTcGbMMAHh/4c4z9DzBVlGuDJSri/XVShPiySlufUzx8355t1n0GdBFeUsiyOsyX5//t6avnAGW63uv/y+nwAWUSs6QUqXUAHXhAAAgAElEQVRcoGJ8bz4zANryvVRBCikvQOdJQ+gxmbKLTKFL5YEiudIlwkK5+O7KYmFQoC3pkbkdvA2L0FGqFHBOdcrX1/5Hac3w8LUyZz5D5+w5ZuIvlLYjFdBEFFKrmJM8wCsL6gMAaDXesrRw3jasoCchdxRlFlSTtWo9SadrTSOMcqzHnr6O+1peteGl0DOXU+BcVYswhGLiwsoQgIp1fim2KVNEkDaElN0uCtx9JoOFnV39kleHuMtdVLJPoPerC9d+hP5AGUFKPe5z7gsZFlc6L4ZHxaDlYGSud+v/AAGEKU4ASeb5t1aOeQs4XFlQRLyEHoTMC0Y5UdDWas3LgJ5lqsQWc550j6A0gbYjxLxnfF6CXEqBWxzQXLkxgCsFJZowlIX3Idx333ObBWG8z5beBI1MC65fRmcmIKPBEFikJUKHSNXnKvRAtDu/Wiw4/l6hnChfFJIMjl5BOVCWPUHD3meMXC/A1nOw0NozBOLsIaBMKONM4S3dC9kCFq3XL5Vz9OcokZoC3nouBWi9od9qabY8M2CJF4Ke6TWogJQ1ubcIqmrvEWXvXdeW8i6lwClKwchSuGv+oGMLIkezKV33UGDc1ZzLagHh6wRUTLZ8KhwOjxKzOE267FpR7ntsKCrbdMR77e9FOSgnRlHqJBSf6amteqKferIXtsrb63ueWC21baR8Bp2BM3fMkwiub5UlCwPouLpYH2XMqaW+1gjaEuWIVqrFiVAgduZS4PoNkOoRa/GILfU8dbSY9c47f3S5lAI3aGWQiDsMjbP2JgG0nHO9oT9K2WaBGlKGog2WXWMGLwuD4HPKT75qPo2Ogh/Nj87POvJ/yrg3mMm7oJyIBeevVSxiZ3y0cqet5Y5cR8ka/8jx55Ew9nuIOYU6QTPhcluNuTkjAHp14bFGkLa1rhTgT37yk9taZPTff//9L6xLa5QXBBgACNZ09oy3nuUXlsznHNPaum/re16j+WHejsR8tso/+/tLKXCK1qCHcKMESCgaygUPLkulFIrZn8Cn1+zOC4pylxgBFh3/VQrEbjAZC1kqOSWPclfu1YXLTqHWUrqW6s61le5F9Ev2Xpbu87mYwr3PPqEoGFxI8Otf//oXsk/ELkbz48t2AxDiCwwdpWzxt4g5WzvkqeXeM68xjj2GW914IZGeKxdckkAWHpD5yAtBW/YG2QU/GYHe9MNcj/y/GJl1fhS/np939P+XUuAUZY48Rw64jjBpKOQQC1g0HMdNbOLAWZYCAVDgrsHZlQbCdRA45YViMRlL/t33DEYvsi2ff+Z7xqf0YLaezeOBLKF3aZqtygn6hkZlCN1TpL+hzxhvi7Kk17j46LVZwe/qI0rIhpVMwdXKhx7N273RY+1Zs5+JC5VxpZbyrDvUiLXFQw3Pp7wXrQIcWM/e9/aFoKoxzUkJ5TNG3vPiGazenP6RZ51xz6UUOC4u87gyAChgARGLKKMayNqCIThZSLoUEwEaMNmUERy3CcU1htht94VGWeV86I7/IYlHER5Lq5uvTZS4QKS+kTXRIhQa5XlPoUSMO6PFE4D0SkXCq/JZjPdoXc0v4y+O0ooiGY/ZH9sYrW/vfYycse8RfDYFThnykhlz41EKasV8Mgb6sJeuUB5AFuCsLHvmPfpHfMLcaR3Pmecdfe+lFLhAXA4sGEiKGf1h0mThJlNCBsT9GYFTzpBAUCmlAcCbsvJ+kdwCrWVimKwUXE+aVa7jmf9rP4XTku6mL3g9AsRcfgZtS3DCkOhVJr/5oh3qnwOMPKde7jW3n1EAIBgJXG+ZZpqv9b9sC0qrFo+pXX/vz4y/+FKPMIr6xdqiqKXiZkMJGAWNgprrzUJRH15MLcOlp67ltday9toQaDzvfXZPWbfR95dR4Cy0wFNWDLHRBj+OHmBBS6GcZQjg4d5+++1XEDwKBPrmMkEEpYHAG1PaFjlXz0TOgwqpUw4zJ/WV9T3jvfa28JoCOhYIL0O/t7i5eMmRnPO9222cuO84UsaKEc8oED+ONpsRAIHx9yfjAupcE1z5EdkTa8+c+c5c6T1DXZ+7xzywPnNcSX0YOmsONcdjM9d6BXDac93RHday4LJjE1rosN46n339ZRR4BC3yQFPq0DGxgCI9jPLNVh2HnfN/LWKumIlWKu+yo6FrytuEywbEdVIJbUh4FNEv2ryFFnvbgxqARq8gePstyodCl/N7Zi42Th5l8CgiAyUH7tfqbp2ih6w1wEkAuXa/4L81Zf0BR71phOpAgUP41icvi8HoOecmtwOfTg+gSumVTJfm60f+B0SBwvBQPCMDi5Fyl+65jAKHdHDg2RXjipok0DfEFdSAVwrF4jRJDAw+L1MdvmdxIbG/+7u/qyq1mIQCmOVGnug0k3wLecW1V3nFAX/00Uev/MLMaP0Eomy5zx7KaHkt9/GeatwpBGhhxFxYKwtSnEXha+WX36H40HiPJBIDagp4qQ3WJ2/k5z//+W1u8YBrG4GgclljMncEuzPYWiq//PzTTz/97M/+7M8++9rXvnYDDuiPkgItr215j9ZhBMwdBmZPmksbAQp6ihEXF9Av5gOPjH7K8bmWOm9dcxkFvrShQFocxSx7hMUv0whZYx0mE8VEqaFn15twJhTkwKKXovw333zzlskgkJk9ANd6rgF/NNE/+O2cWdPbDojyF7/4xSs/dtBbTs/1+FVccuSpx71iHT3pZTw15eTYSJS31yuU5TnZA9yr/KPKAU5y5tfWs4yNMUBJ8PJqOfcAmZgKUAZAjShwitC8e+edd24o1hoPusa4jgivAAdOp7QAgK1noHgoaHWlZ+gbOgQdqc2CsACmfhab0oYWqnLrufH9ZRQ4y0oZZ4H4HIwDGXN9WOFSdAaXBfoxYXLeqNSy7373uze0TkHn85xlvaBl3GtwM4L3LHzyFXjfst2t73kODFzPgfpl2foFElqin8pr93xvoUKHmSYxnuIhPeIelNKRYmHy5B5NRjhwbYQ4rQtecA40Ulyyx6BzaYquqwGjrb5iEIEya092FYPBoDOWaFXP7jEMQaEAi8Zrdk5LguBlmKs1zz23j7JHxzJ4uc/yta3/X0aBU6Q1BQ4xmwisGFfYhCjF5zqQooHS80YeE4eLaKIKdOaJpDwW1CLnbtcUuHLzc8s6XP099MnlFUxqRR3cPTwnV3BPV7O1r4wHY8zwxJh6X6NUWsoUTCtPuWy5p/UaiFT/HsGpttZh9DrouBecAFUUl2MUGFNrMAQyNs8oXPSBfqewRjhwWSiRGQYxl1v2IXyAiwIXjOQl5yykqFO8Gh9eOK9B/WSgjdIayuEdjARZ0Sl2smY2IOrZ83oZBc7dzxtmdLhFS4H7o2DzIoGoudUGAueU08ZYWffKdfXLILIVSuEKmhyCcxBUjSrxvfM1Hln0D0Srjxg7wagcXMFvUtYWoAWq3S3I4oh+oaghLMqRoCZw8KMKXCqbNu29+UgfUlC9NMQRfTZSpj4eASdAEVqAEs3UJXT5ox/96DZmjC9FV1KfLfU0F8s8cP8vzUVKHiIHzswTa7lGG6qXNWCsvFrvI3nmmABgc8QoRdvpNfpoVolfRoFTvFmByzRwPgl+iSuNCsjZIHYPcqt0CFc/ZwCIBkMJyqoFLtAnOlLZBqXmVrnmKPQWA3rWq/6yIUqE3wSGsiEpr7J8KHh9HYrzrHrl53DBjSekQxhpru+MmCOMQCD6mbLiXhuaKLJHFVQCJd4jjCjUHYaeQsti3AAAil7OdS9lQBlD8L0ImaH2bHMFOpZZFsdL8A7QHgyuujMKvYLnpo96qJulZ6CE5NCHl7F03drnl1bgKg4hB7pBg+Rtv+gT3LYJhYbJgwId+F5Ghh2K+bwPgwyVQZ4olpeuwGMyUGKMJvcZemHkGL8ahRT3nPnK2zI2xheFtdeWagvXAszzZKRtXGEGr5WWGnnG0fcANTmutPVMa0g/AkfGqZYZQgHjvoGE2praegbP2tqfQbnqCXzRDWgfdKCgPlrHTyaW1M9WfXxPvwB7ewIA64+nkb3hlvq45jIKvEahqCDlCuXg6qBEk6YU6JEC4sqxvJli8T9L973vfe+WiZAVAT7MREOxvPvuuzekXpbvPSTB8j7lvB5A80RqKAQ3OsFrNbaoobAc8K5du/QZ5CrIlufT0vVX/dy6683tZ7CsG2DK2uO5ZYHq8dKu4fH1ImlKn0e+17gzBNKQlclj+spXvnILZOZ6L/1vnO1ADjS/dN3I57wEOmhELqPAl4KYgcIsZpMmI0QDA2XjxyCrfA4IjkkHoQUMIFe8FFxwcOgGtwyUxHWPHsSMdjzKq3EWsJbu5bdO5bTvLWIa6JT//d//7SoafRAU1FbQrKvgO11MUTJmPYKKgLChWcAGzVl6NJSucaPsUA0ff/xxdxYUumvvHa10BMNLH/iRjshwQq/SG2vGAohk+I8QOk1fjsRnLqPAcdu1LBSLmbsDBaNCKNxSpMlx4wwAC5nzcNECykUXUM6ZbxJcwaG7H1pgMLJA/xD+U87pAWNOSUr//MEPfvBKkGyvWnChudUW5pYylq6Kl0eZQEuPTJuU/YcOoIB7hMLh+vN+KcEah65vjSFlaV2tKcfas2WWCDTuKeptHdMX8tMjoQFPz1gwSjwSOqXM1UYR8bZGc89b2uC5I6mul1HgkHJNget0HWqyUKTZZRVsg87x17XNGiwn5S9lSCAyB5xkJpiEouaUeS3LgSv4Es5NaJlIV7iGux35soz2HgGjpXbx3igZitk4M+T4V54d+s2cMLcE1Pyh416SMESUUw/FQRnjlN1L6TGApcLTP9A3WhJXzvD1jiFqZm/EizKzjqWoarO5FRL1N/6UOcNGJ9E9PHsewdHC62RMeuQyChzyFbTIAw1BC2T507HyP0vBlepgJwpS1CZUKdwjC487zkBkJO1wG0qdgVgSSMDAPuWcHrDAKFXpn8arZlT3ron5R2nggxl7Ljaljn+XZYHii0W+97PvXR4OuyfDh/IW+GTwrA2xo1L0E88GMIJ09Wev4XMvT2xPQfOYU8YUCl+SQNrAodgZkHeGoPP0W9aBa8++jAKHdihwk6MU1ptVYtFZ5JICMVFEhfFaJpKJwhUpxcSEAkwGmRYZaTAIkEJG9mUZDEfrjx2U9z3f9/cA9Pv973//tvDFJBjusxWnOfcnf/In3bnL/a29xh2MZY+HaTysI1ke0gOtu5ID9z3jx+NlHIxjzTteaz1dMJsjnctXZ0CN8VnKFc/3AIe9dc9l9PzP82RkWuUyCpw7Bg1bwKWYDFA090IwEY1SSmzSkddMUedkf1krFDyeD2+XEXxZVu2956tXbWNA7frnZ3M9wECjLMQsuLzGu3cTyEwNLHI7AJ1bIej9Ooh1g6duFeMi44v3K68ahZkF9SBrLGJP+fu1/6056zmDubV7Wr4TZ4OmGR5euTasCdqEITlTzPUeLvwyClwnseQ5K0CUXMYAioTrY3GXopMpaJMQisgKnPtNiaNQKIfSHTfJIPPys7Js73Gh0ITXpxzbAxSB8RaINoktsLfeeuvW/5kaO6om8pYhUi4/njTPp6Oee89yrYOegCEFC1lTghIDannR+hB9gmcGnHpSNq1X9/YGPrf6kHGGcFE/XqHwtQwn+eLA49nCaOQNiUt1uJQC52rlYIGtrqySjjZZcqoNFw5HyWJD13nBoT4MGMsLEZRcn3IpCKlQoubQvEEuRdYLBf6UY3uA4uYlyQbxZyzwlMbFJitK42gR0IS6PTf43UzJHV2He5RvjvM6ShpkrR7WGAUjZmBdoSBLoXgpYDEpm+8AL0i8VVCm7jtCjKc1Tg+UuiA/C9hr/WWrfO/s/zZXMR4tcikFzl3mlpUiuAQhULbQUXb1WGuDLacXZ5bTu0w0ixE6h96zxZV6CPUbMGc2ZC4QGkTfvDShrHgf+pPSYsRwv2uxgCP7IPhUz2B0IaQPP/zwhvS2Uvz2rhcQIcWM4dBPr4Pgeq2BFqHAgSkxJbRmPvJXGcCS8bMuoXXj2yoAWY2Wab1/7ToKXHqjxIU1ioZREki9hzAwQGPLWryUAqe8M+9IgaJQbKeX7J53LFHulA93W8BL2mEpEDslTYkbvLJTKG4InBLjKpnE2XXB8WXevSz/0d5TTjwdHosUS4tF3+l3Exvq4E6voZM92wxZW+ylZ+VwJeMMudkDkI3uns+vlSWgvkar1e559M9QHnFkxVZbIGzZQU7U4zXVgnz6kNLWj66t7a9Yeg4KoZwPS9eNfI6KM/+3DqdDDx2x67K1ztZmBpO1ey+lwCXM56CBCcBSUsxcq5xaxFJSQlAAtztzbe6VAqhDpBGWwUgogtHAdyoX4spCeTMMjy7cZJ4EbhkvWUMf0qcsPMhKOhOjdzT3b2F7Tkl9MbKUCcV+FBJbG087E3MsZu36R/4OYOGyAzCttAUgxLjK6LCJB0DKFJd1BcGKTQFJ0jBbBJ8OXOTyWu5tuYZ+QNfRA+WcK+8FGKyTFkpJfc1hyRc8mL0MP2+Y57Ill1LgOkDHlcELEwEKM1EEK/OpZvEzVhS5vM3yXo2H4CkkE5SiR7mU4vPYMQaFZHddCqG85EcW9XfaIiTUMim1lcHkHqOVcp/t1RdiFjW33YLAAaJRuLp7LYqWejNiFNlZQdOWOh11DQVmtysFSwFBnUtKrawDWkkfWTdQeO2kTteYN+gAyQk5tlWWV74HxHoCquW9Le8BNUARGFzy7KyTVvpEZgvvFThyYF4+LVVONzCA3tUf6EEgaUvMv5bkiUspcI2FwMujTDWWFZe7KRCSLTNXn5I3+XRi5sC5dxS4DuQ2ZWVkB2a4gCia0m2BPqGxnNq41flX+p6B8mMDDNmIWFB4zL3dSX0rh79WL94BDtrYugZiOksAgKO9jrPasvUcSvgb3/jG7ScFIVIeamtfQ548VgoprznPpSR5uLxfCr41lsBgt1I5W+2rfU9pownXgoS8i9aNR+oqzRiApFuyfqJPxAIEiQFR+qQ1KQKA2dpAeCkFrsN1LFQdggtDYZhsOiIrElkKsgZYTVxuRk461GAYNFHxfPIa95Grwl3nEpYUDCSo4x9VuGGM0qwBgir2/lk1NAnKqyYUAw4cskF95TGt3bPXZ+aXefLSxaY4ige4QVlYP97v0XZrjudmTfH8rOGW3YW8PnXJ5x3tPRayZ9BANeHtSR+tUYy16+PMF1Sr9mZ0jTmg3B2YF/SwzJ0WEQvaGo/LKXCVLs9AoHzxZ1xt7k9GRxSyQ9HlmlLGpQLWSawi6oV7A6HngKQFi1rBw+YgKPQKETyi8Di0ufRmZtohWKyfyyDwaHkWzxrHzI0XmIZWlhba6LO37jPm5sJLF7Ra/BoNeoOxpGTQHbOChkKFWps56WCtbGMtwHi00BFLBoXnB4G3Cv1EfwAatt1nj5LOkj0HrNA/FDpk3SIy73hFa3I5BU7xQAYhJhULhkaBzmWFlML1Q42YgDo/zjGIa1hzn+sMVEnO8+ZS+R7ahtIZgRCIvPw/Pr/6K5eW5wAd7CkxBjNlijFY3MZ1SdA2vCLIDSIzNmeJxX0m4j+rXbXn8HQiSByI029FZi+3du/WZ6iYDIi27sGp33u9AZBiP61Cn/D8KWfztiYoXv0MTNJfrfMLkKGTcmZd+YzLKXAujHS+cEX8j/vGhULmGUGjW7hEOlDmRGvnRCeYaMrHt3JtYhAYAmgkc+Zx35VfBYFMqiMEQmJQR4RrbcLH2C6VIUsGT8ilx79DxGuTeKmckc/NhTMNxkgd97oHOqQ0S+GtogLOFimHxjwnEZxdD6CNF9YqEh8EPM1TKDwbIOAQ/QuFQ+piAz1Cr2VUX95/OQWuclyvCCbqAOgalaFzI+AYjRBMwfF65d7nIILruIg4vnyv7/C7Ot2gCUgEQucJQCOPJugmHN6SizjbHn3N0OVsoJZyGeCtoIxyoEHojUttTIxNps5anjdyDe8g5smZ2S8jdZ29h6eWKTHznyK1ns4Um+wyODvz+Z4V1E8tnXipLhSsfSRSKSVSZAUugEtxA6X0UO+c4g2sAaZLKnBuBmsWomPjLz5rfaW4dTJFYHtv7mB5sDVlp9N6+LvW+hx5XUzAo3ljbmYOBm+1C5WFGgsDuXU9zhBPLrbRes9WmS3fAwwWGQOez91puf+RrkEr6tu8aQuiPLPtUltRZXvFa0bHAHBAWdRA4FKZYnN4cDSurJssELe1Aqnn+Fy+tvY/XejeJbmkAg8UUEtPWmrI0ucCBlxCZeHQc2dAIDl3XFkCaCb4I4nBZqyOFhPcRJdC1iLG00TvQdGQugyGMqDd8qyZaxjyyNhB20BVe/DBM3U66l5UI2+DgUQVMlgh8vPRkXusvyhz7ZW3Zb/FvcVY96wf6w0zgIbiPbg3o3fUkM9RmnjwvNN7q828wbW+uaQC1yiV7uGiljpCB0LzobxbODa8OJenddPL0rPP/JwRolTLhXjk81FcrRkD+jJiC611okzFNvKCaL1/5DpoybyTnWGx+R8P/xKFckYfxtnYGXGLo+j/M+Rv/uZvNrMtzqgH77x1A4/6iMuIzfHygRRpgjz9UoAWcTpABCjo9Y7NRWByiXq5rAIXyFqzPGUnbb2HGHV2q2uks6X7PJJQkD3pT7NtYzBwpWvpgJ7BLTXBW3b4lXVCZYSSsTjOEFQC6kzboFAKLrIzznj+mc8AZHgb0gmNjTTRErCIcUDhWwHn2TpD34CH13uLdS99tUfw37x6ey5QtF5LQR0qUyZKHFXceqxAlGOdLY3DZRW4SYUXq221joYd8UrJCwKWZ6Yc8Zy9y+QGR/CttWwot0Yftd5PMa/lyfMG8oRuLRsChg794fbPEGMfhsaiM/9GgrVn1HX2GRIDeBcQokBbLcuHcpJBcZRY2wLiQVstocyjnp/L1daMoPM1+X9zhtFHo9SO3NCHEc8DED7++OPuXPu1tNvLKnAdZRfSmRyoZ6JtWg6RyQN5z/8hRW5Wrwi6CLDgsnv46XiORU/JoamyMA6+40mNCOVvFynkcpZQ2vqSUWM4BLF7F/RZdZ19DgOJnsKBizVE1ldZrjEUB5BaeYSgHKQtEsrcppUwoEc8b6tMSriX4uC5iLNB4dZSNvjSkM0lHrKMEu3tTQCA3AVKa3JpBc4ym0BnurE2wPS6OLWOPfMzyAEa7pWgNxxoBEUoI3bntZZl4lICWUTc5a/OIHwexYhhyXVp/Z83EZkZ0JT+eYlBTFQJesqfMadkKPSapwM1olJqRrq1X2vXUWQZKPEKUFf3EG0XbOyNIdFPYfwYoJJ6RZ9YAzbUQeHQuPXVu1dFgNThWzW5tAJXYcS/hp8hOlou5yOJyQDpmiwjggu1CQFC8FqeQ9NSnkBfRv+i8yMGpeV5R14TLrwFiZfl7kLkL03sgrWutJciRaWsbV7CTzv3u+TIZ/oEoncsQ04oUH7+bOY5PfcyZtJceylbYE+sTqYbJV0aOmmRykQT6WfB/BFGAcUldbcml1fgFBNXOm84qDVm9jPcdy+PPPvM2fsthp7Up/J50KZsA8EXituJcTUUVt6T37tev0W2iEXIFd0KbuZy7v0/Qxh7BKAqGRjvvPPOF451uHcd93o+o4suohjQGG+++eZNCa15SxSUTK7e+ZHrDNE7GG0pRZcSVL+zBR1o416vATHPUW28N7ngOdjIs5VcoN+ApJHNgQzo0s7qyytwA6ljjgymeAbEaII+mpg4oXh66+4+/Jy0SW50INDecuw0gzAIF3G0nN7n7nk9xQJ1k/AgoM4l7nHPZ59dVvDMXHPIzg+GUyxbWVqUOJpgZEOKNuKXKe81r4bC0/9ni0wn9Cnev0fQvM7sMe/pj5JCUQ4K0Gf6zt+IcRKHcW9NHkKB61SLSWrZEQJ5Ov4youFHPOOIMi1EEeo193ftuYIp/uSyQmKjVBUvAJLnlud84rXnX+k7LnT0I76RQocS9z4Q7AptprTNdfy+9mlvyxEH6g5tWiuMfqtAn+aFH3/YiimY0wzEljFpfXbrdZCzdL1ewdmb/+YLTxbYLIUCZygBRHTLCJMgsWIp8PkQClyHaDwlPmr9y07N721IuUIeaq7X1v8WQ3ly49b1+XvctYUFedjAsOSm5fvy/1xvCA6azy5kvvaq/zPikW+Ou8RbSs3sUVRXbVuuF8oLNaltxt95+ktBsnyv/yFp/SOAvZZuSwkzEGI0FFCr8sLJn7WJKNqnP+iXHjHvZXA59oHX4DX/cAW9IlhLuQsUbx0PW3u+PlzaE/MwClzDIMS9N6sIKrSez1vr3Ht+Jvtj5rwWHg10gJvDia4txrV2mvzvv//+6qlpa/df4TtGPFx3/QFVQaWU20uT8DQE7CgGgfteT0OGDg4dauW9MQRON5RWJ/WTMfcdxdVLQ+GVI3f6rL5Hgci26RHt1HZAiIFiqPIacoCVPv7ggw9uukt/9Iq9FEt676EUOFcMKhpFirnjLFScXG/gIpdzr/9Z9t681bKuvBnnoWs/t7qWDlhev/TeYqPAz0ZNS/UZ+ZwCixxeSEp/AAwWXu/5FSPPP+seCoZSIbxaQXsGGMcaHkhPXQT/lBcbn/76r//6dnooFM2TGaVCzM3g6nvqM3rtiALXNkpfLIlukkyQs69kpUDelL3XERqYUXwRCtzgCJBx11n8GbFgZbf0pg3NPHPPe00Y1Ed22XqeIdeZ8hVk8XN10HivqIeFCrHmvN7esu51vTaUGRi8MujSD1iIMdR22N2rrrPPtTkuAmLcexSc///hH/6h6xyQWj0YB8h7D5HVhNbbK3Vxq04jFIoyeW2OuWawBDFzFhsOnEfB67GpLafcbtXL93TV0tp6KAQejZXyRYlzW3qjxsoQaBC4y+5OlP8Ir4In3LGR9pftg3QE8Li/kOeoMCSUwRExitE6td6n7tzcQHxiCxajRROovLWsq1+HzhBwIzhwXpcsB3TRDBhQHkNoLgLvCpQAACAASURBVHmdFQYVrTVbp9Z6QMqRhdR6j+tQSfqPt4bqKIGA7xkiwAhIwn/z+HvFjmm7MWvykApcQyBx6FFy/FpaUtloSo8rgrfiMj2ymCzyrWdEJoL0TDEAk6w1yLT0TEY1+NWla674OUMugybEQrbt+d13311EPnHtI71SrBRiKBkUorVgJ27OnhhpV+zs3Qs1o2cY1T0MwlZ7zH3B3V7KR9rjd77znZu3hiapGRy6Srn0T04z3KqX720sg/Jr8rAKPBqDH7LgoCUuSlbMBgZPrANEzjNHFeU82iuOdusXq7faxJ0L3poxmC3PGPQGrLbqeI/v8bkWpvzoCGzeox57PxPHLbAYXhvO1vj//Oc/v3mk4YGMPpfyshb3PP6AYV37/dTRuub7GB90Wa8H6T6BbnQPg5j70HrgzfGWZe1E/CE/f+1/nvFSssLDK3ANZ+F0HnRNKUGCIsIGxP86D983EqRZ69h7fmdiz56Xrk8sYkpKcHgmIKovuJECNY8m+HsBvRCcNy7XJqmXlEbIOyrjHNpG+VAw+mBWGAabWvZC4OrDE5qNd7W0iw6hK3DhPWJjjjlPwTJe4kGliKX4TrxKymF4P+U1W+8ZWaCiJi9CgUfDuFrykAUNbMLA9UEFvW5RlHflV65vcJkj9eSp4OcgTd4JJT4yucpnc/WgjEcTdeb+hlDgFiVUZYPSSxHosESI0CHQg2veg0KhuBnCPRE4Tv2MvQV0hH7oRfuAIzqTzjFn0D6lMJIMJCUenk/5fct7RmwpPvWiFHhLZ7yUa2w6mPnhWXQTSkkMweRyuNBsupwI/MzGonuNjTTKcuFJ9eLdyEYZ2Xhxr3ZsPRftVqaxiYH4H/oW1B9VMPFcfWhe7h34FSQUyDtaxIJyFsnWMxkXnizPhrGPIyXK+6D6cn6V37W8F+uTiVKTpwKv9crFP8O7cclmkQ7EERtVpJKNnJRWdhX08minOUJ4XNvS7ee9WTRoqtnAbtk/934PCZYBf8qb4uFpOM9mVqB7CmxvqlKdz/CEUGaysXqEhy+u5kx1cSQ04pJgCEbYAKBo6QiCpwJf6u0Lf45nw+uPTIayWdw79AG+l7LK/F15bct7SOPRUgktQJ4Ioxgitc5ilqb6koKYPA0GK4QHR3mjUfbIHqKgGLzSGMazZl6Vu7dRqNWHJ1pD0LVr4zPnh5sj/nDVOWZijULfjFsc4xv3tr4KPJunNXkq8FqvXPwzgZM9tv9DNsoxcQVJegM4uZtMVAo8ZwLl6670vz0FeNuS/xeMwmvi9FELpXK/Ut176mLDmvaUYtzxq9qKSpsFBMo2n7ISK585+h4tIwWPMj9KGO5eT4RhkYZqHglYZoPPMAICDCWvWcZPj5h7kjGUX5OnAq/1ysU/kzoJIc6KXwtx9jW3T/bALCVDAfAMZpH8bLt67ocWy8Cee3HF6AYLzwafpQBSz3PufS3Foj2l+AUcqZ+Q449+9KMbFTCrICkqxzPsLTwH29blUh8lUvx691bgpq1FxuV73/veK8Fg84vn4896W9qQs9QmwVGZYiXAKK99KvCyNx7kvZPjYjv0TJUFsXB+lJTFET/KMFMmBc4YPIrIHMi8pX4QzKLYGctZpXaFvkBtZOXnDHhZSHZh2grudaat7tVnM2Ws9RUPcQmJ1u7jEVKarYKmsJmnp/5Ai+Cve/ShgGsp5hKa0nkpuPLeX7xaO0rWc54KvOztB3lvIpT5vKPV5t4JYppUDgjbI3tA1sbIofWjbZi9DzJFIZRiQdqhCo3N5tqX5d7rPeWCq80elv/RBhS7OdWjuJbaQoEd6YGhOJb44FwnCrV2QmC+Lv6njPHNPYFr6afuCSCQjSTkDUHzdKD1Xi4ftbm2e/OpwGP0HuiVi9/L1dWaB32H8oLqIbJZocBHdpvNPnfv+yk2GTXlbxzu/YyzyqNEBGprsQmbZKSQZn58tG6oJ17LUSLgnnnm2rNQF7zUnONfu7b8DIffk04rMOkeu5hRR9kI8hhskBNrMAa8nB6RfbPWn08F3tObF7mWVd7jSF27L23gUJaFt4dRkJr4SKf3CeRRcKVA4IJ++MferdVlOVd5rw3yqDPXr36UOgppJk+5bCeDd2Sf2THZgmLRLTxBY9lzvINUWqdQtoqArRiJTB4nemYErj8YHP0PpS/9FujS81A6NcMb1z8VePTEA71SurPnlmgut5ryVh4XemZjUHQfBb7Htuwo78hXSov7m5UXKsmixOW3oL0j67hH2aiSWmofRUvJUew4/z2yUCgwsZUjBaJt2XDDCMc+h9b6ULQ9Oee8TX92RZsreS5RvjxmHh0qxPtWMQ9loCwFMJXzVOCtvXmh6/ZS4Nw7Lik308RamyitzX8kBM7dlaaV3V5tdbyADJ1H4vOXxoj7Xh4VUF7nO39LZ22U17a8R1v05lK3lFteE2mP5We199r1ySeffGHzUu268jPIXUolpN8i0L1AMDoyb5Ryv+wZgUyKHH3S87NtDIK1uSZPBb7WOxf9jou3B4VC2ZrkgjayR9aCJa1doczZQ7FanzV7nWDbEl8ve0Fe7x5Gbbaes/dTzks7+SgeucnlFvuZ58Wv/MyUsXUvWgTfvDY25jRDYnx7UThqsScVEkeN6tDPeTczxU3BC6gCS6iWVmEMc1ZLvvepwHOPPMD/JqYc3llhCCBNCpfidT7KrAhi9gSBZp83cz8FLdukJiiHI7nc2jOP+Ix3UfMw4lmUYXkSY3w++opCaOGoR8uP+6Ba+etLYk5TqAyUAC2uek3hl+VQwuZGi0Dg5pBsFyAokgLiXvSVZwt2Mgo53hLX5VfInVHY+sWwpwLPPfcA/3OHWfNZ4SYKXMoDhxL2EAq8J/d2j2eOlkEJPPKvMrW0GyeNcjtLIM09PLmt+lKE9i4snVSIy6ZYARRpsrytVgXOG6GMW4SCZrC89uSob5WNU3cs9pY8FfhWD13we6hiCTn2VJcRsIuMy2iHmEDLrJj4sjeOFgFXk9xxAF6XFvJaPSAiC+8lCyTaE5Sb7QsbVlrR6+yz7GNYGj9rxIFk8q97A/68L+h3j30Ro21Ekbacg/5U4KM9fMf7LMq8LXqkOg6wl21BgZswtkHPiGwG55QfhWotVpwgukeOtrMluK5e/Q/9805aqA+0Qs8mj5l+uee9XPGcGXFkffZGolt1dR53rX3moFMmzRfn2fSKw92k/d1DZANB3y1nyjwV+D1GaPKZ0tt6giFLj5OvDXmjTyjwLb5tqZz4nCvpMKs90hGjzHjlEjtkSqSfSyxboOR25dviH+2eFOnf2phikXD3a7nR8cyX8CquMeKdjLadR9STKjf6nLgPwq6dVSPjQ5zIjuWRfQmUfwuFEfXY81UfAlUt8lTgLb10sWsoWohTAGpGTBSTFOcnkt6CXNeex+WE6mfrVT5DnShlE3opk6K83nv57ephh9wSL4n/ryG3XNaj/w99nkkFUJyU6lkCLIhlZLHdPlIkR4GJOXePc33w9jWjlNvo/6cCr/XKxT+DGqHRWQUExduF56wGga6cAtXbDbjoVuTQUjZEb6MNvr93kwl0juOHxmsIlMGyC/Mliz6w86+2ieeodsurP3ojT667LJps3AETedQoFsHOERET2uPUz55nSzs0Z1uzVZ4KvKd3L3Qt/nYUWUQzpCPKAX733Xdvirc3XzbKiVeu6h7UjvIgZ8rbz1XNCCRjQeTUNodU9WyZnqnDve5FK+Wt3UfXheJBP5wp6LKcNcI4S/ETqB4dZ3y+80tm11lPX6Aye460eCrwnt690LXogdnNF1xrvLEFR6HNLnacMrd1VqBtBmp04eXn4/gp8ZLvRvPsSfXkZ+75v3py5WUloJMEcQWxcc28nqV2SOc728ugMHmHZwrjnHfMAhMUobGXL74VE1mqLw91Nri/VHb+nPdi9y8U3ipPBd7aUxe7jqKkMGeEwnbEJS4cb8n6zwjKwqmGs2LhUVR7SvzGZZQpW+WobJl4xuwr6kMWha3d/qTDBS3g1XjJwHFeBgWV85xdc/amKp7TPc7C4W2UJ/0BN7KS9I2xzwq+dWwo1X//938/JY5gPHv3dzwVeOtIXuw6CmgWGeANoTg8IYQ6e8a4FMJZ95lHIAd3CVWODgNUbzHLZiHeC3ZeVWw8UUdoe61P8dwMMApB/KEW0DuzjeojNuP1TBG0/PTTTz/PgBLXcY4IL65U7CN1QuPJfjpSgAl0Tab6tp75VOBbPXTR7yErOyhnBMLjrskVtgFj5scLKFwKpMf9y3WXGWIS9x65mctZ+l9eLRcVquJ9tB5YtFTeUZ8zqH7iLG/L3nqe8XPfHkcibD1r6XsKiDHJ3sDS9Xt+ztBFCivDh0JCpeQAZ+8zGX+ezpGeBYMz4lE/FXjvaF7kehOVwlxKk2upJsTNCPziF7+4ZaHMoDfKEQKfWbiok54ATksb8zV2Ccp9PzO1Ltdh7X9BVy776K/E+1EO47l1CNJaHWa+g74dwgQUnC0UrcOrzEG7gfH/csF5KLOCgmH8jzD66C8U2Yg8FfhIr13kHi62Q3JGRa40CkW2x6xAfzO7QxkPC6Q1F11AEs3gPsqY4mq51+J+5513Tg+0tfQvzhqV1fOTXrVy8cE8mdHAXa3Mns+MzYwh73lWvhb6t9ELPeYIAXNyL+QsiLxXllXUWz0Z7FHP9anAoycf8NV2X4t+VByKL8DT66rXngfp+FGIURG07DlH2klzfgrMRhW0AYXVakC41u65kqCNPvroo91S1iB45Z1xLk3Zj5S3YGs2QoztGfnhFKLn8AbNa1TjaB542a54DzT1nq0S9+ZXVN7Pfvazz+My+fuW/58KvKWXLnoNrnMmWwMHLs2KQuv52alad5jYo7+paXFTwD3uKRrEBg58MVcZgsFTtoh2S1M8W7kt1c1C5gXtnTHizBwB4aUDn5bqM/M5Be6ZZYaP+Igg4GyQvLVejBdOmUEXyJTWuHb0bGu5rkMRad8MWFEObxFtMnveylOB94zexa61SOw4s2hGBFcpbYmLaccZZTgiNjpQ4KP1sLBbTl4r68boSLtyH2XOA9j69ZLyfpkFe5zoWJY5+l5Of20XLING+VrsjM6I6JczdxPKPskBYsFFyhSlccamGBlaDKIsLQAHQJiJFeV+F6ilxAGHkWwb/SNOATzNylOBz/bgne93JspolJ0Cj7xtbuEoGrCDc1QZUk4WW2QPtHYnjtX2f/XnNqtDD4IP1NubttVav9brpLgxfgJwpVAMshIYKqlwKIHePlJeIOI9f7ShrGftPc/QYWMhqDq8PEVq49HRIoD63nvv3c4CF+9AE+4t5i2+3bj0BMQdc4s22SvI/FTge4/syeVZ4P5GhPKg+KA8iHQUQXOPI7+6tx44/FbuuiwbvwlhQXUUecvRm+X93jM6e5yBnstt/Z/ShuSWqBNKD59LWQh0jbRRXXhYjMRZghrIu4RRdKNAY6Te0ghlNL399ttdnlnvs8xfaJonK6Ggtn8B+rdhTtaYxIGSXup9Xr7+qcBzjzzY/7Yujy5OEwk3aKJTooHGe7rA5ISgR3lWu+VGsgS4xhS3xUOxUXK9QnFaUPcSKYNLJ/dB4LIpXIPams2xhxbl+p8hlFWJwJ2PIj6Blz5LeGXf//73bwCldpjZnvXgGZmL1oF+BgycKOjVumKkzXOAaYRyWavrU4Gv9c6DfGdxj/yMGaUr0EUJ4pNHdnbiG0c5VrvnBBNHJjVlBH33bj3OQ0qx7ImIcvlL/0Pfgms1VO07lAeDitbClVLmM6l5slz09RlCYZZ0FvRtvFBCFOsZIgsGsEHfjACTkTqKUzizxvNkVPHueIqjKYItdXgq8JZeuvg1UPSI8hVcQr9AC/jwJVd+rfk4wJED85VJOY0qYEoXemZ4KLjRfHhnyux1aNZaP+XvoOol9M0Nh+hwpYKQxha6K5Wi8rSbAaKoxEJcQ9EvCRQIHR8tDGvUg9FRT+1F1/G2SnR+ZF303YcffrjrjzYfWd+Rsp8KfKTXLnYPxGPx9tIIFhe053UE3aFvRneQ6UIKbPScCghVKheE5XU0SOc+iu1soXAzT1zWAYKU544DF3DlJWVPgWvOg1J/O0xtylpLK2VoGdyjRTwlDo9idGTYAAiyNuyK7An6zdRVf331q1+99dFMOVe+96nArzw6HXVDY4ycpdDxiFcutZEIuhoRCgp6HE3vgrjRN6gB7R7NbqBgINizUKG+osTQXlviRycoZMoPF56pJgpcu6VhQuw2N62lUrpfW0f7aqu+8X1ZT/1LceODR6m+KLfnVQAYncHAnZV/3lO/va59KvC9evLO5ViUUHi5eI6sEoVn6/toGh70KVNgRiA9vC4aJtMLPeU6D8ZCP0sYPnXfEgrI1m0Iu0Zv2YhEwTNkOGaKiuJaE3nzqIUjBV0S/cnD0w6bvLTD+dpnCD6a4UOxMR68mJcoTwX+gkZVlH9ma31PV+BlZ7YUc6tndscJ2kpdxBd7v3bk6la7KNOjD9GKOjA0PI8tRUvh/PjHP761DVXlfT5sjALXhxS4/OIWL8JGGs8f3RgU7Vh7paTROUROthiDWAMDk9uwVs7sd6g1RgMnPxIjmn3+Gfc/FfgZvXzSM2Q05F+eOeLROExb30fpD3WysNY44K16Q/4CsHZhMgYzCIvy/8///M+tR+7yvdPyWjwPOfmuQ53IauBd5fNFxB8oxffff/92FEL+fqnC2ip2cJTE7tEoX5wBtSOIeZaH6Nm2vcs9l8Y4uk8h2nDV16cCv+rIDNaL24gPPVJs/Z7h2wVbZZBIIxwViEpbg2MdTWX0fGhYUHHGCLS2gyKDmNeEV0HZQbKQK267tgVdmxkx49EjPI7R7J+W54hPRFqrc0kYe5/JkQ5k3lLOnteYc60/FLznc48u66nAj+7hk8uHOpzQd1S+LX5zJvNEd/AUKMwZgUplVEBWyuo5ybD2XGUdvVMQbSGQ15LyKID51ltv3dL+pORJucw8PxQtkKkvBHNbDZC5wYCOZB7V+i5/Zixi+7oMKd4Wj0LAezRbKD+j93/b+EcytXqfc/b1TwV+do+f8DxKTbZBbVvvzOMjcDl7ip/NDb2osay3oBjaxB9Ep7xZsWNu5heJWp5PcTt8rEWir6FGvLHjb3Hhpchmwd1D9dC4Q5JahRHOaYmt925dB3UHPcZI4MCNkz/KPbdjq7y9vlePs1IY96rzVjlPBb7VQw/6PYphLSe4t1myCWR8bLn/LeVayDM0j8CYvGgcsV1+kN3oZqKor2AgquJIQYvIQNkSPLFr33zzzRsHrs/x1jnwSclTSugQKNcPOLTGJWzeOmprfRgd7aTAjTfPg6fE6NbooK0+2eN7HpBsmL2BzR51Gy3jqcBHe+7i95ms3OveY1qXmgWhiubvIZTHbFBJ8NJWZe2kFFoCg2t1R1ns1b6l5zCosUNx6Rqfa5MT/Rgn3gXaqnYSIdon0vUYHyi9NbNHmTNxg7X6q3P8co2NSA7iMg9lLR2F+tfqU35nTYR3UH7+qO+fCvxRR66h3tCYCQsBzQiF68TBvTIIoDE0yKg4W0JaHRpAqhjjMnuq4Oyu0pa2oE96fvRCABM9AmHLZc6nRaJPeDIoLQFdCLc1OIkHn41DLLU5jmjwPcpCTIahsev26IOlluoUnwMOtZz6+P7RXp8K/NFGrLO+ocQh1t4fmrXYGADIcc+AlzJn3Ghcb5w5rX0Ct7OCjhg9WKvl2RSZwGEORC7dKyXwBz/4wS23W1qe96XyV47P5X9T9IKD7mnlwSMT6IiDllAU6kbMG3QQA2O7v36+t5gzvWvh3nVeev5TgS/1zAv63GTFiVNQ3PItwXfLbJD+NYve87NkSkB+ozs4c3l7/c8IqFeNqtjjGRRsL80j3Y/h5WHkLBvjg/f2Rzkyiq3KO9qDgtnjF9ujvHhVD3UivDYpp4LWdoDeG4Grkzlth+ZLkKcCfwmj2NgGbizaQUAM5YA2gJQgJqhEGp2gmGvk7B6RiiijgtKZRUDqJgcaEofwSnTa2B1fuAzvrF6z5Xyh0OIfG3Ja6Q23Qdiut7OWAswpjhFU9j1qBefcm5uPnmEI9hYKPIxV/N4pAynGMBO83que5uAV6rFHe54KfI9efKAyuLRQOIQEgdm5iaOEzi06KCkriz2b58yWCHDNlCslT3CMUsCt7oGcnYkSG1Bm6la714FOPcccQK4yawQEBd1+/vOfv4KwlSc+QXEbu15u131HINEABPoBMODZoHnMN+Bg5tiDWt+OfMagXM0LHGnHU4GP9NoLucdCQ2mYyBYaFHq0UEYzOeBRP6lqPIo45W6P3GJ0xWw6YtQvv0L3ccRq/m7pfxkcNj3ZsfrJJ5+88uMPeGwKXCB35Fhe2/r3MKa5/jyCMjffe/w/6kIqpHrfWwAAnugZc/7Itj4V+JG9+yz7lR5woD9FOSuCgnYnyn2Wnlb7ZZveZ0Dzs+mNS8+0C7BnEwmKROqdNlLQMk4Y2VJw49AtrwmSLpVmed3Se/QG7nxvQcvx6ggjBHnLPHr33XdP+UGJlvbwROXk7+G5tTzvqGueCvyonn2WW+0BnDXFMyvoArnMBPqc3R2qHNu/j+CE8dmog9bDptQFhcI42S4vU4SRylvl0TKoCfQX49N7OqSMkCN27FKOQcPhm1FT6vrP//zPl1Hg+piR1Kfq+6jyVOCPOnIPWm9Kl7KZFSjeYU82ruDz9zAK6Ig9dprmtkmZhEJbUwjjfspbMJnyF6jNisbPozlCWI4+NNmD8D0DD4xGOCK1j9EJesI5LbwDxjvnskdb7/Wqf/eg3+5V/6cCv1fPv6bPtX17jx2AFh2FK7dY5sweO/xkZfRmcrQMo4wZirZnI5RrKTw/q/btb3/75hlAjKXI5KGEiSyX//qv/yq/3nyvPMHPlsO1NgsrLmBoIPs4bZKHhP8XXzgibbF4dPdb9JRc+h4ROzKmwAiKC7ev78UU8nEHPeWOXPtU4CO99rxnuAf2UuAqAOH1KMWtSh+lwNE9I4FbueM8An0mZTIjeKjWJiv893vvvTf0azd+l/SIzBveUShwr7wIgdyrIXBzQmwhG8c8V8wz44hmE8/QFl6fILo//xtjiJ63BQj0UGb5ea3/PxV4a089r9ulB/C6eyBwlaHABaHCVZ+toIUIye4tFG0vxQPlMShQndRLSjqfZ63dEdiEBEe8B/RLnKeyZ7sZm3Jc7Ds4+rTH0fqrm/5bEv3jGAS/ZKSPUWLGJ4RyZ2gZKddC5hS5zCFxiSPTFZ8KPEbh+XpKD8jy6FVmtYrJbqBwIUiBvD12+KFkemmIWt3yZxb0iNFCuzjzJc7RzijRAVwoJGjX3wgV0nrAVm7T1v+MT2wEc+4Npad+R22U2qrP2vc4er9sRBGLNYRXBxzoH3slGNIcgyjLhLb9MhJKxg5atIwTM/1uLMQuXnGEPBX4Eb36LHOxB+KX1hcvaPzCwoqsCxw4JDkrlOwRKDE23PTWD/UA8WkrPjwLnpni/vjjjz+TEhjnj+Tr1v5nTBmYvUXmSfxsm9x/QVbB5t7t/nvXK5dHSTu/nHilrAmj87Of/ezWv2uK+3bxZ5/dctttLCvFuFHkArq+c5xFGIfyupn3TwU+03vPe7t7AK+7h7KVTx7ng1ByNQXXWzkLbmRDzNZz0DK8hR6x0HkD2kjxqVvptiuLAeOBQI+jIiPoiNRJHlEcl4BOwRHzcK4mjCSEjEJBkzDiQIZzgCIVsqXO5vW3vvWtGwKH4iluSjvmEzqJEeNVRb+0lLt1zVOBb/XQ8/tde8CioHRmBS8sBY5yFOAboQ9yHaDG3t2SuYza/wwMSqFXKL5A1ZS1nOpSKHSKIwc3y2u23lPgR9BGFJgxCpGnv0emUJS356uMJvTHl7/85c++/vWv3xQ6iq5VIHTnsfOGzG9zyHzU5hy0NVdx6XvtRn0q8NZRel63Sw9wU6GxjCZ7C5fzjEKATnGYM0rMsyOl7oic4BEFDoHjtyF3HP83v/nNz1393r5au/4oBC5PHxJ9FGEo33777c++8pWvDAcdnTHEu+QtrQVFKXqZKjmmMdJXTwU+0mvPe4Z7QLDHuRh5V2FvgTaf4Ku55QJ9s6lwFrB6HbGphSLrpVD0B36Wiy/Xm9HDc5fC2KA/BIZl97i+V3Dg7t1boO8jzhrfu55RHrQMEOQ+ju9RIMAHDt9fnr8AiTPbHekATHz00UerOe+OP4gffo5njLw+FfhIrz3vGe4ByFK6FcU0IxStyD7uG9qZpVDixyvK1LeZ+pX3yuMeWawyNiBklFMti8H5IjwQ547IQYbsegVa3CN+kJ9rQ8sZedD5uSP/q6eUv7VNRhS2YLm/OL4gPwtN5sgAG3uMx1b6IApw9ljbpwLPo/D8//AegHRmD5+CSiksvLU83sw19jYCqsJNHiF+B5Mi7hEKg6FDRXC3eQd5qzwFID+cIhd8i6Buz3OULyC8t6gXCugRhIHsqasgpHtyRokxY1CdTcMobtF6PCbHBJexgt7+eirw3h57Xj/dA1CfSP+MoE4gIYtEAGk2wwF/ObJbsqUNwY22XBvXoHQc9QrRSW2TvZApEl6HEwttHhE0HIkrlOl+8ew9XgVXtfvqIj7hRMc1kcPuxzXMMQrauNR+PNpn6DKbehhcgectSs7xAjJeRgHIU4Gvjdzzu0N6gNtoc8qMyK32a/QE8pw9hAqKj/Jm6lW7V2ZC77nbAlwUgBxtrnk+bZGiwF8rF78OpWeEXqtL+RkE6SyUXHZ5zeh7ZWeEOlrWUfeheaT6LfHe8VxZJqgT11Lmsnay0gckxGIiu0Qw84MPPmiip3hPo3PvqcBjlJ6vp/WA4CMUPiMUXKR62SXX82s3tecedZSsZ0mfs7W6B2VB0/K7IWypkoKY5W5TW+jt8mN4uO4UeO8xAJSO+yilvcXxASOUzt71WCsPrdWqOFF+KC3URURhMgAAIABJREFUiJ2WtVRYxhYVgz4Sl5EyaG5uSVApOU106z7fPxV4Sy89r9m1B+xy42LOiDLsbLMAKTIUw4xQsGtBrJmyKVibRLz2iIBq3PMf//EfryBlyp1rzw1fCnSuPY/iUK9AjWvX9n5H0cm0uKrgnfVpS9CaMeVNiJNQzOac3aVZKHmbdYxHHCPQmipoC/4IhfdU4HkUnv8f3gOi8xR45nR7HuxgJxwwVAoR9QYJy2dRkupz5FGgdvv1ptXJXpHRYHELWJYIXP259n6phxIe2Q4P8R3xizzqRnFtBfHKMTj7PeqpdQeqjTlQtd/ydA+UnTN3GAKxCuVC3mivno1L+kvwEzDpkacC7+mt57W79QCFZAPOjEA6ApgW1YzyxQFnTnOmXrV7ld+7OKUO4vb9yWTJaE7+tyCkXYR48N5NSDwOFMoRglc+Ir98j7oaB4ar5YwTz0N94b0ZYfPW9vjwjKI+EDpa0Hjw5lzbu6tXXKP3mImnAo8ReL6e2gNcfxkAowJ1czmdg40+WNv5tvUMi3Nkq/tWueX3yu85KEtu8i9/+ctbGiFXn8ue3X2IDc+MH5cO2MrnRr0gfONwhEhNnKXJjqiXMgV/e+MF7qOkeS0UbZxxUtZRmco21iPlo2qMNaqmVZ4KvLWnntft2gMWALQyKrHFHLJFn0jvGhWLLrvEo2Ut3SfrpkfBopnkd2snrrsm0vQYMqiQIs7nhdfuKT9Dv6BnjhD1n90de0S9BL6l7cUZM63PgLiNoaCx8chjQrnj/I2DuSg+M+IV8ijx6K3yVOCtPfW8btcekB9r40xGla0PwSdz0eVJ4yd7F2Q8x8KzseiITIx4hld5770GC4qlNHDJmT5RJo6V4ZEDLgunN6YghfCoXG0brQQK9e+VRGrmSHDVPNXfELgApZ2bpRgjtIl0Q4BA39YCneU9tffmNc+r1Rg/FXitF5+fndIDuEIbPkbEuRQ2TlDeDAGOeESgRAj2aMFPe06rQnMdigMCR4+giPJGnfghAoEzOco9x58yCLwX/XiEyMig0EYN9BF1UhdzZaTNMnXEHPyhUFAdpeDTjZPUT+gbCs9B5/L6tfc8ytYTIp8KfK0nn98d2gOi+SL2I0JZQToQOC59FEFzhe3oPFoEwlAivZttHBcQu0yz8ufO48Gh795UQDwrBV5D9nv0hbNueA+tgcI9nrlVBrAwaqzl3aOb9Lm4Q81Y+gELilfu98zP1PGKWoPLTwW+NerP7w/rAYc12RwxItxTk5zLKltjlEKhVGfOouipu1z1lo0dyqSsGSYoFrqGwPNGIAoDQqeU3n333a52zMYgttpNcY+OyVbZo9/brDUaOEcJCUz64/kJHGdhaJ1twnBB6qNplO6TJdPiKTwVeB6F5/+n9gAFKr+2V+SAQ9/Srr72ta8NBePiCNGzUCJj03NiIBoC4hOorCE+WS08CIhQJk4Pukc9HblTEmJF7fR6Br3zoPV6ngbaY+tskqXy3C8zCDetnz/99NNXLuV16FNGVYrrjKBgWozNU4HP9PLz3ukegGZGfhIMeke/QKaU2Mh5HgJaPQp1trEMVY8Lr35oIsgRr5r5ZEqCW+8V+ovdfy31ZDh7rm8ps7wG+mZcr6LAURoCi6MCgZtrFLSzfICHLGIW5iIuXP/OeCA8tRrKz898KvDcI8//T+0BUXc8bq+7CaFQbD/5yU9uG116z5GgDLmpvffNdI5UNBkvLellMkps0IFkeQg//OEPq7/o7swROzEjoNtSP6l0R22hj+erczY48d09Xv9/e/fTKkfRhQH8q/kFXEv8gyFiVPyTGEKC4k5BUFyJuHQhgovoyoULF0o2imAUAioEF24E/QC6y8uvtd5U6lZPV3X3zNx7+xwI0zPTU919+uap0895zikSTuA619w7T0JAHEXy448/nhjK9aZEM6qlR89dDmbC8Pfp/u+yAPBd3onvDuIBFWy93QQ9pvpPiUOfAxQkiLWGRPu+YMVHtcUZascFAvYXydbABwdOM3zz5s0hsm8tDVd2L7LftzmfJVHomudnwprzlJbOwT3z9ETF4mmo1sEQuCvi8VT3+OOPz6IG0/G8uvdT6qoA8NxjsX0UD6AWROGlymLXyZDlAW+RpyhahNRjfjtHp9tzjNq+QE370BbDtdKO+1d7Ukh8rIge/9qqKPGI31MV2nKutX0UzPTw8rUx1vjM0wz+u9U/tWOKuD3xCTbGWkCQDbpetBGFz9JCJpP2lEIqALx2t+Kzg3uAJlxBSqtRjuB9FWX4TyUabTW0g/9gxzCJMJNVqSgpz8UjtGhP5Ie/5Z+5Cbh8bOACzKYezfPfzN1W+NJLjc091q7fKXZa0uzM2O6XvzMg7m+ttoQf3tqTneORyPYWVpXXYKJw33dZAPgu78R3B/OAaIVkrlURYj8RlX94x9bfuSDc4twCojUcIqImM9tlAFybXFG2a0MBlOuISkIax7UAjRbA8ARwCPrEtQG53iejXT6Z+52WAZ7Ulpj7IHmJHlEuXxbaWGYNlYVCoVChIJpD7eXnaExVmbsSwQHgucdi+6geECVpn7pPo9rALR7T0BckdlMmgvVYbpKifiijZqqHixcvDiv30HVPLaLreCK6pcvZTZ13+t5TTi3Zl74/1Kv7va+WAekagDXliXzFmsomSpRdMtsA8HQH4vXoHhBhKlpJK+2sfULA0PiA8ZgGkD0F7DoP+QBUjwlH0vHy5csnVCjoGLQTTlvkNxXtprzBoa5dlLokcbjGeUqiyne0PJ3sOp6nIBMoKsWYteSsqJt2W+S8lnl6kBwdswDwMc/E50fxgD/WFv3rnJNDXSimOQ2m61xNS5zODYCLqkXZXmsAjov1xCLZhS+f6gdOernP4p107ukVDbQmmKVxe14FA3IOS83kSD5oLFH2lDpk6fHS7ymR3LcxCwAf80x8fjQPrP0Y6kKAXAttcaiL9jRApYFbHTNRox4vXgH1kiiSUmXqeGPnMfdzXPEh1C67zk9+YA3KLOVY6PhNqul9fmyl75LrchO2e1RV+Tj5NgpK4DFmAeBjnonPj+YBXO6rr77arJeeOlFtWa9cuTK7O9zU+HO/V4E6JhPzuC7aUz0IeGsr8vQcl3ZZZechzfFSsrYGeIc4FxTUGtftb9IkeuPGjWGhitoSdq7VPpqLSWiiVJaaCZz+fOxJJgB8qYfj93vxgAhGNn+pWsSyVsapyb72cuIdg+KwgXON8xehA/BdIN96KL6kZiiToK2/790PlYO/T1WJqIdaL5fecefsb+JCQyw1E5Bx0FnkfXxaGpAn9ZTQdO/WSODKl1BnjT19BYCXdyHenxoPAN1r167NalTlIkRCIvl99vxY6izgRl9cs7RgBTBfYipOWxojLTlG/lsgJgJVXYu6krAdiyDz3+1jG32yhuomyVwppfxd1aJ6dJEIXAMyE0dLy4SWa5bfqFV++m0AeIsHY5+jeUBlm8ITBRQi1hbDK0v8iDprkVLLGIfcR7Q2xhUv5VEpQagwDm36hly4cOH+o48+OgDeoY+fjifvsUuGl/abejWGv0F6fLSXCao01bJUI9obrHHMND4OfOxJNAA8eSleT60HPL4qosA/6n8iGimLJDxqAmsa3LRfuc9pvUBSO1TKGpWW+TWiZoyrc+OhzcSjAdelS5cmq073dW4kfxRNa0zi6Cf95z1N0NKXfWf8jQoYTMTAm1x1LdrOhFDj3PktAHxffz0x7uoeAEgiHBGr/0TUKqITr977nDSv1jdk9ZNZeUB0AwBYa9JBWajkpJg4tJEPmpSsG/n0008Pkav7RJViObLaBLyPcyT9kwAc4497jmlCEiSMme9x1a5Pjx3U3xjtMTbG2OeCkjH5ZwD4mNfi81PrAZEVgKDMAFBe8dzH4lnXcpQOiyajNQx1ADAPaXfv3h3K9N94440hWlW+LnLE5btPNP64YVEsWsfT1NpPHfn1Glt15KH6sUhwolcknscaXuXn17oNvPmqZgHgNa/EZ+GBI3lAp0KVlbuivV2nJoKXtFSZeSgzmSZ6QQKvpaSfxM4E4ynBU5WofW2TP8FZr2EoFNdmUpJ0LgEVhaLHjCQm/h+Qt+Zsps5PVI9GqVkAeM0r8Vl44IgeAL6ArXehZqX5+P9DRd4mC0AmoTeXqkFzSDi73iULAddulwUV1krgSoyjMiQy3Z9a0ll5vaifX9aSEbouTzFj3RQDwGt3Pj4LDxzZA2gHiTAR365udE5TdCjJCwRrwLKPSwFoom5UzVQPlpbjo1/o9ckq1zJJRBK8NQyPrjkX+aAWBknjno+tYEy0rAWwe7eWfBVFOFZNGgCe34HYDg+cIg+IwFEqOGVRHz0zRYWmX14BhZ7ovsefl+1m93UpksmOiVJY03DV77333ihd0HssBUX49jXMJKX3vBzFY489NiyNV46rcIdsU8Tsn1zNGqYoaqwNRAD4Gh6OMcIDe/QALhevinsFSCJtkSXOVal4rZJzX6djDVORsieENQztgze2AIJqTWoOihVUxVLDs68F4DhuLWndB4qhUpooZ+GJBMCjT8gM10qemrhNbDULAK95JT4LD4QHTnhAFKqoai3wNjGJLEWtnibQBN9///1wXInYsT4xJ05s5AMR+FoUCpoK30/bTu4pws4NWPONfVqXzMt/v2s7IvBd3onvwgPhgUkPiIxp7dekTdA+ea9rSUfgyCQCabh7F7vOL0QB01oAbsUjE4yEq3zD9evX80MN2/bx5LCrz/uJHzV8YNwxeWlE4A0OjF3CA1v3ALBdeyk2/Vlw++gHFEW53JtEqS6ScxefRnOspUIhjZRgJedTsCMqLo0SxyQkGrc9VwpajuuJZyyqDwAvvRXvwwPhgYc8QN4nabkWp5sPrkhF1GpyoAdHVeSWjl1bASffr7YtCUwH7ulhiVGgUPcAZXw9mkTf79z4Rm4AsFOiyFMsXZU+je8pZEwaGgCevBSv4YHwwAkPKLABTPtsB+sYZIRlf5F0MtojzElq6gZI+jcH/NOxvXoS8KSgNQBwNtnUVCESnFRB9kUNLT1uOgeR/6effprePvQaAP6QO+JNeCA8kHsAGImM92F02sYWheO7rXZTM3I8Tbn0du8x0TxlyNJ2vI5JIuj8TDbOQ4Rd2q+//jqoRVTSSsquZcB7LPcQAL6Wl2Oc8MA58wCAVZCyViRZugc1AQypRVATQHzMUBO9fLZEqG6EazWVojwhccSDl0U6jnX16tWBNhH560MP0NcwidOxAq0A8DU8HGOEB86hByzntpZkcMw9qhct+iDCLEGx/A0wLuV75T7le1QHemYNQ5+I6IG4Sac0E5Bye7JIapq1CqtowFV/1iwAvOaV+Cw8sHEPUH6sJcEbcyXQBoj6Z7dQNRKHFCA96g50hlL0pUafjsZB56R2seWYqJpbt25Vk5zlvj3vFQaNSRMDwHs8GfuGBzbiAdE3/fE+DdhJMqokJVMcW1ouPwfR71iyM98vbSt/H+OP0z4tr3rMa01rLC1xTTi5UbpoOJUUNTTjCpWWmglDNelYZ8MA8KUejt+HB86ZB0S6a5WgT7mGRI7G+bPPPqs2iCp/T5o3luws9/Ue7bFWEtaxTQgon7L9rTwBjp62HWcNwNdY1JiW3VNKrXmW6wsAr931+Cw8sGEPANSxFWDWdAsqREQrqvYqEdhigLIVHCVJPU0sNVJCcj5SQZWYqlJLs5AD8AbypI+lpr3cv+U96sZkMGYB4GOeic/DAxv0gIpDRTtrLkMGqP0rC2q0ZkWd4I6BYwuF4pZYFR633WIUIXqULDXnj8YA5KgR2vjSKEVoxJXwjyUdy99MvTdhjBXx+G0A+JQH4/vwwIY8oLvhnKKZmos0v8Jzi1g/+eSTgTvO91PZmOgNVMdYsUr+G9siW6CsM+KU4ZBx10s7NqJM0CP+kTyaeHJzHBMfftzEhA/XDXGpAW++GbMA8DHPxOfhgQ16gBSulZ6Yco+olZQO0OoRopJRz5Nkil0AuH3u3LlzgldO+9VeTTKtja5E67XeJbVxa5+JvEX9qitNSKSCtf4sGk7RzZMQUvBMySJrxyo/e/vtt4f1X8vP0/sA8OSJeA0PbNwDHv0lL1u56Cl3WUmIYsQ/HHeZfCQfFK2K+kWsYw2bascB+MCtxUT2+o3PtbyU3rU4T+1uSyNXtIKSiNn1Tq2kVP6+fC/qF9WL7scsAHzMM/F5eGBjHgA6knBrGFWGBCKaBED7VzZ3EqHj2lEi33zzzUB1tB4bqNGE47inTEOsXYnAqd/73mIOjocWEn3ThJemuEfRkMpPFI8Jaol5EqpNFPmYAeC5N2I7PLBhD5Cr9dAnIkQFJigSi/nmJffeS0pa8NjCDPTeJbdOW03tAtwpOFopkXSL8NCojSkzQaA1dkWyU2P4/vbt20P0rZT+559/PvGTL7/8crhWVMtTTz21GMA9OaBrdlkA+C7vxHfhgY14gPoEbyvCbDWUCwqEDPCFF144UWDz3XffDRSA8fRVKRtAiZ7REaRyovNeykFZfTkpjJ27yWlJST3/pFWCKGa0AKiZSQzPj0YZq56s/a72mRJ6kf8uCwDf5Z34LjywEQ/gbwFxj/3www9DZE1lImFXFpvg0ik2gKxoueyrIjKXYBSdi1p76Rv0C6qiPG7tGiQf9fGea0AZj85HJo6azFJSVqR/+fLlgQMvZZM9xzZhoGymnhoCwHu8GvuGB86pB0TSqiF7DMebFmIQSZdd/0TU+mOT1gF5icfc8N6KbJ577rnhtVXbnY8hMVprLJXvY1uE35r0LH/r/T///DM8KaA0LKdW+sr3njAkMVEspItLtOC7llHLzy8APPdGbIcHNuoB4Nbb/tT+qg4B9LPPPnuCQhEZk9ahL4B1qcX2Xlk67likXq5y03IrHL+1alREO5fWUGzkPJ2ja6klKGm2VWBaBk6vlDwn0HIt+T4mxpbOiwHguddiOzywQQ8AmjlLpqFI8MHavCpwKSkDj/+ADjijFiQrc5NcxI0DcvI8oNVraBkSxBYD9qiUOUZK6DpExqLvchwUiycI12G/mk689biOpQNhy0IUAeCtXo39wgPn1AMUFRJmvYYTRhdYvADHXXLMVCpAW0JPpF0W06hU9Dv0DS67d8EG53vv3r2hL0leIDR2Ha5zzjHSeGSPSuhNVqL50nDgAJxs8caNG91PNGk8Jfm1JdvS9/lrAHjujdgOD2zQAwCJjK/XUCeiWtGiCs5UFp/GEWGL0EWkOHBgXVoqGpIEbS2lz8dA0yg+aolW/Q433UsV+R11jsnIRANca31bJDb1ScH9229uFG78b7/9Nr/M0e0A8FHXxBfhgW14AG+riKfXRNhACgdtEiijYJQKgPaKpiFTzPehfFFggyMXySv8mWNAuZU/d649FZ/pfJw3ZYhkpdJ6fHhp6BWTFaCX7ESF9JpEcI9mPQC818Oxf3jgnHlANEkS2GM03oAQ7yt5hwcvE3v4bUBGL+67EqDJBgGeCFpyMQf3nnMxTkvCz5jAV7+S1og9nYcI3Ll6otCY6/nnn09f/f9V7248voRwea3/32ligy9RSq0WAN7qqdgvPHAOPSBCBjiqInsM2Ip8AY7oWgRN152bCFTEq8IyAXX+vegd9YK+KROg+X5T20C1h35xvN7eKCJv56tS1ZMD3j83VM5bb701+MFk5qmil6rhL9F3z+QSAJ7fhdgOD2zMA2gQoNFSDFO6BjArbFGVSAkCpHMD8sBorBuhfcsS/Pz3rduoi55eJyYrqhvX3moA3FOEroq//PLLCUWNCchkJCdAJ25y611STZ5AXqHHAsB7vBX7hgfOmQeAjCTkXMP3ija9lgYgRccUKCLkEuDz/YF9Smjmn7dsoyuAZ4/RaZfFOLt+LyGLNqE+ca01zp0vRehoIyDfYyn67gX9APAeL8e+4YFz5gH9QVola+Wlk8sBb/JBr2V/EFGr70TqAA8Xnoyk0HuRvypJCpZW5UUaI71K/Dk+mV+r/fHHH0PlJE681Zwv0FddWqNHTAoibwldIJ9UKS3j49XnKIECwFu8G/uEB86pB/C5AGmO0Y4n6SAAwv3mBuDtowkULjxfKBnY+w6XLPFnIplD4zieplgi8J5GXH7nnFuLh5KMkPpE0tdTRWlK+uUEfEdK2NJN0BgmhmvXrs1SrQSAl3ch3ocHNuQBgFQmH1sv30o6uG+A5rVc4kyUq5T+pZdeGgC2XNABxaJfyFdffTXQK3OXIJNEBeDOp8dMGPTarQock51CINeEuy8NFw+8UVL+UepMdRM0hmZeCoDmWAD4HK/Fb8ID58QDtbLw1ksD0HhtOnLAVfYZAazGxwmjUkqZId4XFYEvVq1ZLvjQeh4SiJQ0Eoy95ikBiE/x7xpxmagcR5SNKimNP9A5Xp2LMaekka67l7/PjxsAnnsjtsMDG/OA6Bu9MccoTIAy4KZdLrl0Ze5oFf1KtIstS+lxvu+88879V155ZdCTlxRMzzkBVsebY5Qjoupd5jp1TnSNug7aXmqqT69evVptTds6dgB4q6div/DAOfQA2Zqk2xxDI6AIRNHAuOwnrjcI2gQfDOTL5c8U4OChgbgIvUcKWJ4vAO9VfqQxJD9RHpZ/22U4botPmPBqfDsqRiJWVI/j39XL+++//x6kjFb5WWIB4Eu8F78ND5xxD0hgtixLVrtMlZYUJn5vEvA+N2D3xBNPDH1QKDTK8nMTAOBHI3zxxRddBSz5cWzjkZesuONc6OHLnuXlcXa9T61k9QQH5mMAbsIQwe+SVe46Tv5dAHjujdgOD2zMA5KPcxJo6BCRMy5YSb3CmHIBAxE45Qmum9Ki7AcuiYm+oK+mVCmToD23AoDPLV9PxzEBUcWUXH36fupVEtUkBZxF6WPVpZ5UVK6uYQHga3gxxggPnFEPzAVwl0sGmPp24NLLKkIVjzoQAjUFPSUHnvp+SOJJdJoQ5toaAO7YEqlAfE4kTqUCuNFBnmzQJLlRveDQ+XwtCwBfy5MxTnjgDHrAepVzKRQ8L94a/UFPXYvk0SikdxKUZb8VETqwU92IvpjioHe5dymFko+N63Y+vX5BI6mkRJ1orpXr2lE0nlbShJcfb8l2APgS78VvwwNn3AMSiXjsOUYmJ6rWGMoyYyXni1Kh7gBcItJcLkeB4TvyQ5SFyHeMcmg5N0nMudRHbXwKG+1vPWVoIztlom2LOJiUPHGYlCwgwSQqX3755e4JYeqYvg8Ab/FS7BMeOKcekHgTQc8xiosnn3xyKARSOl4W4gAwETrOFxdeSvVE5WgTCT9Vi2WSs+ecAHitP0nPGOW+NNx8g1Ix0Uw1v7IvWkgSU3GS6/JkoEth+fRRHmvu+wDwuZ6L34UHzoEHRM/AaY6hCPC+SUmicKc0kTWqRae9sk1qkhGS5Cn4AXRzDYBLlO7DJCepaG7evDlw+iYuCdmySEcU7notjgG4UUeqM/dpAeD79G6MHR445R4QNeKh5xiuWHISr2uRBPrn3AAzMBNlS3CiF5LRhWu7KqmHfnEOvZxzGgt1g55RAblP0/gKz01lkiJrNIunC3p3nzkP1+rpYwkl1HodAeCtnor9wgPn0AOSbaV6pPUyUQQSl4DTRFAW6qQIFbChFHJAs68JwBgmAVFt2r/1+Gk/HDXg7OksmH479zUVJ6n+RN2QILqmno6Ic4+d/y4APPdGbIcHNuYBcrmSm251gR7ZlCMUKGiUsquhCBywi7RFreiW3Ky+rg2sJJ9z6F0lJ42FXzaO9rVbswDwrd3xuN7wQOYBvHGtMVO2y+imiFcp/Ysvvjgk78pS+sRtq7TEs6NKcqMdB+zULLbn6sCV8gPwLVoA+BbvelxzeOA/D6SVYOY4xCK+JIh4YcoLq9HkJqmpQlOCUaRe9ioRMavEBPxoHIA/x2jNTQRbtADwLd71uObwwH8ekACkligVIi0OorpQ/g6o0SG1ZCiO2OeqD0sAT9w5EPcUgCefYyaRuTz+nOOdpt8EgJ+muxHnEh44ggf0IUlFJz2H1zxKj2wATCtdtpPFkaNP/MNxlyvHS/zhz8kJyQxLHXnrueho6ClgixYAvsW7HtccHsg8QONcK4PPdhndTMqSVIyT74ieAc4SmSSCqI7cROQibxpwXHrZOyTfd9c2+qSkb3btf56+CwA/T3czriU8MMMDEow1+mNqKKCtZwj+WzOqspRdclKvFRy4RR3KJc+oR1SCSl4+8sgjs2kQvbzLTodT535evg8APy93Mq4jPDDTAyolWxf3zQ9h1XXctvJx0XSp48av64dy69atYRWbkuawZiT+mhJGbxQRe68BbhPE3Oi993inbf8A8NN2R+J8wgMH9oBOeaoJRcw9pppSZA3An3nmmROVmIpdfK+cHHiXOnCVmSYAfVTQOKiUXlMAVMoXe8c4y/sHgJ/luxfnHh5YyQMAXCvUHpOkFEEDXmteish7jXQQ0AN5FZu95thrt2jtPYdj7h8Afkzvx7HDA6fEAyLgXhmfxk3vv//+/QsXLgwKFO9zU1aO91bwo8y8LHW3grtlxSRQrVCjmrPXKF9w8Vu1APCt3vm47vBA5gFSv7IUPvu6ukl+KAJOK/N4n5voWmQu0YnmKCkUChafqcKkUkmKlnyMXdu6IRrbk8BWLQB8q3c+rjs8kHlAIhGFka8ik31d3bQGJf223/knos4tJTU1msKFlyZyplK5dOnSMAn0rsjz008/Db8rx93S+wDwLd3tuNbwwA4PqMjs6aktYqY0UYlZU4HoEoifVk4P4PHluVkvE21Cx41C6e3JojBoTuIzP4ezvh0AftbvYJx/eGAlD3z88cerA6ISe1LC33///YQOnATQKjzK4FEspU586rJMChpZbdkCwLd89+PawwOZB1AiQHEtU55vbUjLqpEKqsrMTS+UtIq7ZGZPKb1GWsbeugWAb/0vIK4/PPCfB3DWVpgpuey5DhKSgIMTAAADGElEQVQdi64V2uhXYtWePFFpjUnH0o5WKXxPIY/e4VuWD6Z7EgCePBGv4YHwwMBJS0yuYVQoZIYAnFKlTGSiUCQuL168OMgJW/l3kwC+fk4DrjWu6zSNEQB+mu5GnEt44Mge0CEQOK5hgDYpUWrjKRwiX6Q/t6xaK59Nb74m1VM7t7PyWQD4WblTcZ7hgQN5ADiWCxTv49CaX924cWPgwS1+XPYLHzumFrZlX5Wxfc/75wHg5/0Ox/WFBzo9gOp49913O3/VvzsOHDdOTqixVcualpQqr732Whdf3n9mZ+cXAeBn517FmYYHDuIBtAeFhw6B+zQUinUytaK9cuXKsLjx1PFIHYF+2L8eCACPv4TwQHjghAcU3ZD/7dMU/ziOUnqLPkypUDTLev3112ct/7bP6zjm2AHgx/R+HDs8cEo9oLWsKLw1sTjnMnDgmmilUnqtYXeZpduAfdgDDwSAP/BFbIUHwgOZB0j8rJazL8N9o0R0FATOb7755uihrN6D+1aeH/bAAwHgD3wRW+GB8EDhAcuV3b59u/h0nbd033qZ6GKogIiEccz0SyE1DHvYAwHgD/sj3oUHwgOZB3777bf7N2/eHBZdyD5ebZNWXN9w/8bMYg9radPHjnFWPw8AP6t3Ls47PHAgD1jwGN1xDJPYlLi8d+/eMQ5/6o8ZAH7qb1GcYHjg+B4Aoqom1zYLOWhyhR6p6cDx4hZFDqt7IAC87pf4NDwQHsg8oB0sKmWtRleGxn9LkuosqB/4Bx98kB3x/v3PP/988ws2POSQypsA8IpT4qPwQHjgpAfu3r07KEF6+3afHOnfT0TdImw8u/L4fEk3/VF8Z8GIsHEPBICP+ya+CQ+EBwoPKLPXv+TPP/8svpn31oLGKBR9wVPjq6+//no4xl9//TVv0A39KgB8Qzc7LjU8sIYH6MOBOOpjbcOzo2rWivLXPr/TNl4A+Gm7I3E+4YEz4IE7d+4MQKsJ1RpGRvjRRx/dtwCyPuJhbR4IAG/zU+wVHggPFB5Ao1y/fv3+hx9+WHzT99bCDppZSWSG9Xngf396QDBRHnrCAAAAAElFTkSuQmCC;" vertex="1" parent="m8tGLTJIxdYSyH3AfNJf-68">
          <mxGeometry x="920" y="-54" width="1481" height="2607.84" as="geometry" />
        </mxCell>
      </root>
    </mxGraphModel>
  </diagram>
</mxfile>
